<?xml version="1.0" encoding="utf-8"?>
<!-- Generator: Adobe Illustrator 22.0.1, SVG Export Plug-In . SVG Version: 6.00 Build 0)  -->
<svg version="1.1" id="Layer_1" xmlns="http://www.w3.org/2000/svg" xmlns:xlink="http://www.w3.org/1999/xlink" x="0px" y="0px"
	 viewBox="0 0 1041.8 640.5" style="enable-background:new 0 0 1041.8 640.5;" xml:space="preserve">
<style type="text/css">
	.st0{fill:#EBEBEB;}
	.st1{fill:none;stroke:#929292;stroke-width:2;}
	.st2{fill:none;stroke:#000000;stroke-width:1.6;}
	.st3{fill:none;stroke:#000000;stroke-width:1.6;stroke-miterlimit:10;}
	.st4{fill:#004D80;}
</style>
<title>Asset 1</title>
<rect x="239.2" y="63.9" class="st0" width="40" height="40"/>
<rect x="239.2" y="63.9" class="st1" width="40" height="40"/>
<path d="M265.4,84.3l-1.3,0.2c0,0.7-0.1,1.4-0.3,2.1c-0.2,0.6-0.5,1.1-0.9,1.6c0.3,0.3,0.6,0.5,1,0.7c0.3,0.2,0.7,0.3,1.1,0.3v0.7
	c-0.2,0.1-0.3,0.1-0.5,0.1s-0.4,0-0.6,0.1c-0.3,0-0.7-0.1-1-0.2c-0.4-0.2-0.7-0.4-1-0.7c-0.4,0.3-0.9,0.6-1.4,0.7
	c-0.5,0.2-1,0.2-1.5,0.2c-1.1,0.1-2.2-0.2-3.1-0.8c-0.7-0.5-1.2-1.4-1.1-2.3c0-0.6,0.2-1.3,0.7-1.8c0.5-0.5,1.1-0.9,1.7-1.2
	c-0.8-0.9-1.3-2.1-1.4-3.3c0-0.5,0.1-1,0.4-1.4s0.7-0.8,1.2-1c0.5-0.3,1.1-0.4,1.6-0.4s1.1,0.1,1.6,0.3c0.4,0.2,0.8,0.5,1,0.8
	s0.3,0.7,0.3,1.1c0,0.5-0.1,1.1-0.3,1.6c-0.2,0.4-0.5,0.8-0.9,1.1c-0.5,0.4-1,0.8-1.5,1.1c0.4,0.4,0.9,1,1.5,1.7s1.1,1.2,1.5,1.6
	l0.4,0.4c0.3-0.4,0.5-0.8,0.6-1.2c0.1-0.5,0.2-0.9,0.2-1.4c0-0.2,0-0.3,0-0.4l-1.3-0.2v-0.9h3.8L265.4,84.3z M260,89
	c0.4-0.1,0.7-0.3,1-0.5c-0.5-0.4-1-0.9-1.4-1.4c-0.5-0.6-1.1-1.3-1.9-2.2l-0.3-0.3c-0.8,0.5-1.3,1.3-1.4,2.2c0,0.6,0.3,1.3,0.7,1.7
	c0.6,0.5,1.3,0.7,2.1,0.7C259.3,89.2,259.6,89.1,260,89z M257.4,82c0.2,0.5,0.5,0.9,0.9,1.3c0.5-0.4,1-0.9,1.4-1.4
	c0.3-0.5,0.4-1,0.4-1.6c0-0.4-0.1-0.8-0.3-1.1c-0.3-0.4-0.7-0.5-1.1-0.5s-0.9,0.2-1.1,0.5c-0.3,0.4-0.5,0.9-0.5,1.3
	C257.1,81,257.2,81.5,257.4,82z"/>
<rect x="239.2" y="114.2" class="st0" width="40" height="40"/>
<rect x="239.2" y="114.2" class="st1" width="40" height="40"/>
<path d="M252.3,136.2v-1.3l5.6-2.4l-5.6-2.4v-1.4l7.7,3.4v0.6L252.3,136.2z M252.3,138.8v-1.1h7.6v1.1H252.3z"/>
<path d="M264.3,131.7c-0.3,0.1-0.7,0.2-1,0.3c-0.5,0.1-0.9,0.2-1.2,0.2l-0.2-0.9c0.6-0.1,1.1-0.3,1.7-0.6c0.5-0.2,1-0.5,1.4-0.9l0,0
	l1,0.2v9l2,0.1v0.8h-5.8v-0.8l2.1-0.1V131.7z"/>
<rect x="239.2" y="164.5" class="st0" width="40" height="90"/>
<rect x="239.2" y="164.5" class="st1" width="40" height="90"/>
<path d="M265.4,209.3l-1.3,0.2c0,0.7-0.1,1.4-0.3,2.1c-0.2,0.6-0.5,1.1-0.9,1.6c0.3,0.3,0.6,0.5,1,0.7c0.3,0.2,0.7,0.3,1.1,0.3v0.7
	c-0.2,0.1-0.3,0.1-0.5,0.1s-0.4,0-0.6,0c-0.3,0-0.7-0.1-1-0.2c-0.4-0.2-0.7-0.4-1-0.7c-0.4,0.3-0.9,0.6-1.4,0.7
	c-0.5,0.2-1,0.2-1.5,0.2c-1.1,0.1-2.2-0.2-3.1-0.8c-0.7-0.5-1.2-1.4-1.1-2.3c0-0.6,0.2-1.3,0.7-1.8c0.5-0.5,1.1-0.9,1.7-1.2
	c-0.8-0.9-1.3-2.1-1.4-3.3c0-0.5,0.1-1,0.4-1.4s0.7-0.8,1.2-1c0.5-0.3,1.1-0.4,1.6-0.4s1.1,0.1,1.6,0.3c0.4,0.2,0.8,0.5,1,0.8
	s0.3,0.7,0.3,1.1c0,0.5-0.1,1.1-0.3,1.6c-0.2,0.4-0.5,0.8-0.9,1.1c-0.5,0.4-1,0.8-1.5,1.1c0.4,0.4,0.9,1,1.5,1.7s1.1,1.2,1.5,1.6
	l0.4,0.4c0.3-0.4,0.5-0.8,0.6-1.2c0.1-0.5,0.2-0.9,0.2-1.4c0-0.2,0-0.4,0-0.4l-1.3-0.2v-0.9h3.8L265.4,209.3z M260,214
	c0.4-0.1,0.7-0.3,1-0.5c-0.5-0.4-1-0.9-1.4-1.4c-0.5-0.6-1.1-1.3-1.9-2.2l-0.3-0.3c-0.8,0.5-1.3,1.3-1.4,2.2c0,0.6,0.3,1.3,0.7,1.7
	c0.6,0.5,1.3,0.7,2.1,0.7C259.3,214.2,259.6,214.1,260,214z M257.4,207c0.2,0.5,0.5,0.9,0.9,1.3c0.5-0.4,1-0.9,1.4-1.4
	c0.3-0.5,0.4-1,0.4-1.6c0-0.4-0.1-0.8-0.3-1.1c-0.3-0.4-0.7-0.5-1.1-0.5s-0.9,0.2-1.1,0.5c-0.3,0.4-0.5,0.9-0.5,1.3
	C257.1,206,257.2,206.5,257.4,207z"/>
<rect x="333.9" y="64.9" class="st0" width="98.5" height="336.9"/>
<rect x="333.9" y="64.9" class="st1" width="98.5" height="336.9"/>
<rect x="1" y="1" class="st0" width="185.6" height="509.5"/>
<rect x="1" y="1" class="st1" width="185.6" height="509.5"/>
<rect x="693.3" y="13" class="st0" width="200.6" height="288.5"/>
<rect x="693.3" y="13" class="st1" width="200.6" height="288.5"/>
<rect x="694.4" y="351" class="st0" width="200.6" height="288.5"/>
<rect x="694.4" y="351" class="st1" width="200.6" height="288.5"/>
<path d="M858.6,130.3l-1.2-0.2v-0.8h2.1c0.4,0,0.8,0,1.1,0c0.6,0,1.1-0.1,1.6-0.1c1.2-0.1,2.3,0.2,3.3,0.9c0.7,0.7,1.1,1.6,1,2.6
	c0,0.8-0.2,1.6-0.6,2.2c-0.4,0.6-1,1.1-1.6,1.4c-0.8,0.3-1.6,0.5-2.4,0.5H861h-0.6v3.5l2.2,0.2v0.8h-5.2v-0.8l1.3-0.2L858.6,130.3z
	 M861.8,135.9c0.8,0,1.5-0.2,2.1-0.8c0.6-0.7,0.9-1.6,0.8-2.5c0.1-0.7-0.2-1.5-0.7-2c-0.6-0.4-1.4-0.7-2.1-0.6c-0.4,0-0.7,0-1.1,0.1
	h-0.5v5.7C860.8,135.9,861.3,135.9,861.8,135.9z"/>
<path d="M869.9,140.6c-0.8-0.5-1.5-1.2-1.9-2.1c-0.4-1-0.7-2.1-0.6-3.2c0-1.1,0.2-2.2,0.8-3.2c0.5-0.9,1.2-1.6,2.1-2.1
	c0.9-0.5,1.9-0.8,2.9-0.8s2,0.1,3,0.4l0.5,0.1l-0.2,2.9h-1.1l-0.4-2c-0.2-0.2-0.5-0.3-0.8-0.3c-0.4-0.1-0.9-0.1-1.3-0.1
	c-0.7,0-1.3,0.2-1.8,0.6c-0.6,0.4-1,1-1.2,1.7c-0.3,0.9-0.5,1.8-0.5,2.7s0.1,1.8,0.4,2.7c0.2,0.8,0.6,1.5,1.2,2
	c0.5,0.5,1.3,0.8,2,0.7c0.4,0,0.9,0,1.3-0.1c0.3-0.1,0.5-0.2,0.8-0.4l0.7-1.6l1,0.1l-0.4,2.3c-0.3,0-0.7,0.1-1,0.2
	c-0.4,0.1-0.7,0.2-1.1,0.3c-0.4,0.1-0.9,0.1-1.3,0.1C871.9,141.5,870.8,141.2,869.9,140.6z"/>
<path d="M879,144.2c0.4-0.8,0.8-1.7,1.1-2.5l1.5-3.6l0.5-1.2H879l-0.5,1.4l-0.7-0.1l0.2-2.1h4.9l0.2,0.3c-0.3,1-0.8,2.4-1.5,4.1
	s-1.1,3.1-1.5,4.1L879,144.2z"/>
<path d="M864.2,28.4l-1.2-0.2v-0.8h2.1c0.4,0,0.8,0,1.1,0c0.6,0,1.1-0.1,1.6-0.1c1.2-0.1,2.3,0.2,3.3,0.9c0.7,0.7,1.1,1.6,1,2.6
	c0,0.8-0.2,1.6-0.6,2.2c-0.4,0.6-1,1.1-1.6,1.4c-0.8,0.3-1.6,0.5-2.4,0.5h-1c-0.2,0-0.4,0-0.6,0v3.5l2.2,0.2v0.8h-5.2v-0.8l1.3-0.2
	L864.2,28.4z M867.5,34c0.7,0,1.5-0.3,2-0.8c0.6-0.7,0.9-1.6,0.8-2.5c0.1-0.7-0.2-1.5-0.7-2c-0.6-0.5-1.4-0.7-2.2-0.6
	c-0.4,0-0.7,0-1.1,0.1h-0.5v5.7C866.4,34,867,34,867.5,34z"/>
<path d="M877.2,27.3h1.8l3.9,11l1,0.2v0.8h-4.2v-0.8l1.3-0.2l-0.8-2.3h-4.7l-0.8,2.4l1.4,0.2v0.8h-3.8v-0.8l1-0.2L877.2,27.3z
	 M878.2,29.9l-0.4-1.4l-0.4,1.4l-1.6,5.1h4.1L878.2,29.9z"/>
<path d="M858,79.4l-1.2-0.2v-0.8h2.1c0.4,0,0.8,0,1.1-0.1c0.6,0,1.1-0.1,1.6-0.1c1.2-0.1,2.3,0.2,3.3,0.9c0.7,0.7,1.1,1.6,1,2.6
	c0,0.8-0.2,1.6-0.6,2.2c-0.4,0.6-1,1.1-1.6,1.4c-0.8,0.3-1.6,0.5-2.4,0.5h-0.9h-0.6v3.5l2.2,0.2v0.8h-5.2v-0.8l1.3-0.2L858,79.4z
	 M861.2,85c0.8,0,1.5-0.2,2.1-0.8c0.6-0.7,0.9-1.6,0.8-2.5c0.1-0.7-0.2-1.5-0.7-2c-0.6-0.5-1.4-0.7-2.1-0.6c-0.4,0-0.7,0-1.1,0.1
	h-0.5v5.7C860.2,85,860.7,85,861.2,85z"/>
<path d="M869.3,89.7c-0.8-0.5-1.5-1.2-1.9-2.1c-0.4-1-0.7-2.1-0.6-3.2c0-1.1,0.2-2.2,0.8-3.2c0.5-0.9,1.2-1.6,2.1-2.1
	c0.9-0.5,1.9-0.8,2.9-0.8s2,0.1,3,0.4l0.5,0.1l-0.2,2.9h-1.1l-0.4-2c-0.2-0.2-0.5-0.3-0.8-0.3c-0.4-0.1-0.9-0.1-1.3-0.1
	c-0.7,0-1.3,0.2-1.8,0.6c-0.6,0.4-1,1-1.3,1.7c-0.3,0.9-0.5,1.8-0.5,2.7c0,0.9,0.1,1.8,0.4,2.7c0.2,0.8,0.6,1.5,1.2,2
	c0.5,0.5,1.3,0.7,2,0.7c0.4,0,0.9,0,1.3-0.1c0.3-0.1,0.5-0.2,0.8-0.4l0.7-1.6l1,0.1l-0.4,2.3c-0.3,0-0.7,0.1-1,0.2
	c-0.4,0.1-0.7,0.2-1.1,0.3c-0.4,0.1-0.9,0.1-1.3,0.1C871.3,90.5,870.2,90.2,869.3,89.7z"/>
<path d="M878.1,90.9c-0.8-1.3-0.9-2.9-0.3-4.3c0.2-0.5,0.6-0.9,1-1.2c0.4-0.3,0.9-0.4,1.5-0.4c0.8-0.1,1.5,0.3,2,0.9
	c0.5,0.7,0.7,1.6,0.6,2.4c0,0.6-0.1,1.3-0.4,1.8c-0.2,0.5-0.6,0.9-1,1.2c-0.4,0.3-0.9,0.4-1.5,0.4C879.3,91.8,878.5,91.5,878.1,90.9
	z M881.8,88.4c0-0.7-0.1-1.5-0.4-2.1c-0.2-0.5-0.7-0.8-1.2-0.7c-0.5,0-1,0.3-1.2,0.7c-0.3,0.6-0.4,1.3-0.4,2s0.1,1.5,0.4,2.2
	c0.2,0.5,0.7,0.8,1.2,0.8C881.2,91.3,881.8,90.3,881.8,88.4z"/>
<path d="M846.1,479.1c-0.8-0.5-1.4-1.3-1.7-2.1c-0.4-1-0.6-2.1-0.6-3.2s0.2-2.2,0.7-3.2c0.4-0.9,1.1-1.6,1.9-2.1
	c0.8-0.5,1.8-0.8,2.7-0.8c1.5-0.1,2.9,0.5,3.8,1.6c0.9,1.2,1.4,2.8,1.3,4.4c0,1.1-0.2,2.3-0.7,3.3c-0.4,0.9-1.1,1.7-2,2.2
	c-0.8,0.5-1.8,0.8-2.8,0.8C847.9,479.8,846.9,479.6,846.1,479.1z M846.6,469.8c-1.2,2.5-1.2,5.3,0,7.8c0.5,0.9,1.4,1.4,2.4,1.4
	s1.9-0.5,2.4-1.4c0.7-1.2,1-2.6,0.9-4c0.1-1.3-0.2-2.6-0.9-3.8c-0.5-0.9-1.4-1.4-2.5-1.4C848.1,468.5,847.1,469,846.6,469.8z"/>
<path d="M857.5,478.5c-0.8-1.1-1.2-2.5-1.1-3.9v-5.9l-1.1-0.2v-0.8h4.3v0.8l-1.4,0.2v6c-0.1,1.1,0.2,2.2,0.8,3.1
	c0.5,0.7,1.4,1,2.2,1c0.9,0.1,1.7-0.3,2.2-1c0.5-0.9,0.8-1.9,0.7-3v-6.1l-1.3-0.2v-0.8h3.7v0.8l-1.2,0.2v6.1
	c0.1,1.3-0.3,2.7-1.2,3.7c-0.8,0.8-2,1.3-3.2,1.2C859.6,479.9,858.4,479.4,857.5,478.5z"/>
<path d="M871.3,468.6l-2.8,0.1L868,472h-1.1l0.3-4.3h10l0.2,4.3h-1l-0.5-3.4l-2.8-0.1v10.1l2.3,0.2v0.8h-6.1v-0.8l2.1-0.2
	L871.3,468.6z"/>
<path d="M879.1,480.2c-0.8-1.3-0.9-2.9-0.3-4.3c0.2-0.5,0.6-0.9,1-1.2c0.4-0.3,0.9-0.4,1.5-0.4c0.8-0.1,1.5,0.3,2,0.9
	c0.5,0.7,0.7,1.6,0.6,2.4c0,0.6-0.1,1.3-0.4,1.8c-0.2,0.5-0.6,0.9-1,1.2c-0.4,0.3-0.9,0.4-1.5,0.4
	C880.3,481.2,879.5,480.9,879.1,480.2z M882.8,477.8c0-0.7-0.1-1.5-0.4-2.1c-0.2-0.5-0.7-0.8-1.2-0.7c-0.5,0-1,0.3-1.2,0.7
	c-0.3,0.6-0.4,1.3-0.4,2s0.1,1.5,0.4,2.2c0.2,0.5,0.7,0.8,1.2,0.8C882.2,480.6,882.8,479.7,882.8,477.8z"/>
<path d="M836.6,377.3c-0.8-0.5-1.5-1.2-1.9-2.1c-0.9-2.1-0.9-4.4,0.1-6.4c0.5-0.9,1.2-1.7,2.2-2.1c1-0.5,2-0.7,3.1-0.7
	c1.3,0,2.5,0.2,3.7,0.5l-0.1,2.8h-1.1l-0.4-1.9c-0.2-0.2-0.5-0.3-0.8-0.3c-0.5-0.1-0.9-0.2-1.4-0.2c-0.7,0-1.5,0.2-2.1,0.6
	s-1.1,1-1.4,1.7c-0.4,0.9-0.5,1.8-0.5,2.8c0,0.9,0.1,1.8,0.4,2.7c0.2,0.8,0.7,1.5,1.2,2c0.6,0.5,1.3,0.8,2.1,0.7
	c0.5,0,1-0.1,1.5-0.2c0.4-0.1,0.7-0.3,1-0.5v-3.6l-2-0.2V372h4.7v0.9L844,373v4.3c-0.4,0-0.8,0.1-1.2,0.3c-0.5,0.2-1,0.3-1.6,0.4
	c-0.5,0.1-1.1,0.2-1.6,0.1C838.5,378.1,837.5,377.8,836.6,377.3z"/>
<path d="M849.8,365.9h1.8l3.9,11l1,0.2v0.8h-4.2V377l1.3-0.2l-0.8-2.4h-4.7l-0.8,2.4l1.4,0.2v0.8H845V377l1-0.2L849.8,365.9z
	 M850.8,368.4l-0.4-1.4l-0.4,1.4l-1.6,5.1h4.1L850.8,368.4z"/>
<path d="M860.9,366.8l-2.8,0.1l-0.6,3.3h-1l0.3-4.3h10l0.2,4.3h-1l-0.5-3.3l-2.8-0.1v10.1l2.3,0.2v0.8h-6.1v-0.8l2.1-0.2
	L860.9,366.8z"/>
<path d="M869.4,367l-1.3-0.2V366h8.1l0.2,2.5h-0.9L875,367l-4-0.1v4.5h2.7l0.2-1.3h0.9v3.7H874l-0.2-1.4h-2.7v4.7l4.5-0.2l0.8-2
	l1,0.3l-0.5,2.8H868v-0.8l1.3-0.2L869.4,367z"/>
<path d="M879.1,378.5c-0.5-0.7-0.7-1.6-0.7-2.4c0-0.6,0.1-1.3,0.4-1.8c0.2-0.5,0.6-0.9,1-1.2c0.4-0.3,0.9-0.4,1.5-0.4
	c0.8-0.1,1.5,0.3,2,0.9c0.5,0.7,0.7,1.6,0.6,2.4c0,0.6-0.1,1.3-0.4,1.8c-0.2,0.5-0.6,0.9-1,1.2c-0.4,0.3-0.9,0.4-1.5,0.4
	C880.3,379.4,879.5,379.1,879.1,378.5z M882.8,376c0-0.7-0.1-1.5-0.4-2.1c-0.2-0.5-0.7-0.8-1.2-0.8s-1,0.3-1.2,0.7
	c-0.3,0.6-0.4,1.3-0.4,2s0.1,1.5,0.4,2.2c0.2,0.5,0.7,0.8,1.2,0.8C882.2,378.9,882.8,377.9,882.8,376L882.8,376z"/>
<path d="M848.6,427c-0.8-0.5-1.5-1.2-1.9-2.1c-0.4-1-0.7-2.1-0.6-3.2c0-1.1,0.2-2.2,0.8-3.2c0.5-0.9,1.2-1.6,2.1-2.1
	c0.9-0.5,1.9-0.8,2.9-0.8s2,0.1,3,0.4l0.5,0.1l-0.2,2.9h-1.1l-0.4-2c-0.2-0.2-0.5-0.3-0.8-0.3c-0.4-0.1-0.9-0.1-1.3-0.1
	c-0.7,0-1.3,0.2-1.8,0.6c-0.6,0.4-1,1-1.3,1.7c-0.3,0.9-0.5,1.8-0.5,2.7c0,0.9,0.1,1.8,0.4,2.7c0.2,0.8,0.6,1.5,1.2,2
	c0.5,0.5,1.3,0.7,2,0.7c0.4,0,0.9,0,1.3-0.1c0.3-0.1,0.5-0.2,0.8-0.4l0.7-1.6l1,0.1l-0.4,2.3c-0.3,0-0.7,0.1-1,0.2
	c-0.4,0.1-0.7,0.2-1.1,0.3c-0.4,0.1-0.9,0.1-1.3,0.1C850.5,427.8,849.5,427.6,848.6,427z"/>
<path d="M858.1,416.7l-1.3-0.2v-0.8h4.6v0.8l-1.6,0.2v10l4.1-0.1l0.9-2.7l1,0.1l-0.6,3.6h-8.5v-0.8l1.3-0.2L858.1,416.7z"/>
<path d="M874.8,426.9c-0.3-0.4-0.7-1.1-1.2-2l-0.5-1c-0.3-0.5-0.6-1-0.8-1.3s-0.4-0.6-0.7-0.9l-1.6,1.8v3.1l1.5,0.2v0.8H867v-0.8
	l1.3-0.2v-10l-1.3-0.2v-0.8h4.3v0.8l-1.3,0.2v5.6l4.7-5.6l-1.3-0.2v-0.8h4v0.8l-1.2,0.2l-3.5,3.9c0.5,0.4,0.9,0.9,1.2,1.4
	c0.4,0.6,0.9,1.4,1.5,2.4s0.9,1.4,1.2,1.8s0.4,0.5,0.6,0.6l0.8,0.2v0.8h-2.3C875.3,427.6,875.1,427.4,874.8,426.9z"/>
<path d="M879.1,428.2c-0.8-1.3-0.9-2.9-0.3-4.3c0.2-0.5,0.6-0.9,1-1.2c0.4-0.3,0.9-0.4,1.5-0.4c0.8-0.1,1.5,0.3,2,0.9
	c0.5,0.7,0.7,1.6,0.6,2.4c0,0.6-0.1,1.3-0.4,1.8c-0.2,0.5-0.6,0.9-1,1.2c-0.4,0.3-0.9,0.4-1.5,0.4
	C880.3,429.2,879.5,428.8,879.1,428.2z M882.8,425.7c0-0.7-0.1-1.5-0.4-2.1c-0.2-0.5-0.7-0.8-1.2-0.7c-0.5,0-1,0.3-1.2,0.7
	c-0.3,0.6-0.4,1.3-0.4,2s0.1,1.5,0.4,2.2c0.2,0.5,0.7,0.8,1.2,0.8C882.2,428.6,882.8,427.6,882.8,425.7z"/>
<path d="M129.7,28.4l-1.2-0.2v-0.8h2.1c0.3,0,0.8,0,1.4-0.1s1.1-0.1,1.4-0.1c1.6-0.1,3.2,0.4,4.4,1.5c1,1.2,1.6,2.7,1.5,4.2
	c0,1.2-0.2,2.3-0.7,3.4c-0.5,0.9-1.2,1.7-2.1,2.3c-0.9,0.5-2,0.8-3.1,0.8c-0.3,0-0.7,0-1.3-0.1s-1.1-0.1-1.4-0.1h-2.2v-0.8l1.3-0.2
	L129.7,28.4L129.7,28.4z M132.9,38.5h0.5c1.6,0,3-0.9,3.6-2.4c0.4-0.9,0.5-1.9,0.5-2.8c0.1-1.4-0.3-2.7-1.1-3.8
	c-0.8-0.9-2.1-1.4-3.3-1.3c-0.4,0-0.7,0-1.1,0.1c-0.2,0-0.3,0-0.5,0v10.1C131.9,38.5,132.4,38.5,132.9,38.5z"/>
<path d="M141.1,39.9c-0.5-0.7-0.7-1.6-0.7-2.4c0-0.6,0.1-1.3,0.4-1.8c0.2-0.5,0.6-0.9,1-1.2s0.9-0.4,1.4-0.4c0.8-0.1,1.5,0.3,2,0.9
	c0.5,0.7,0.7,1.6,0.6,2.4c0,0.6-0.1,1.3-0.4,1.8c-0.2,0.5-0.6,0.9-1,1.2s-0.9,0.4-1.4,0.4C142.3,40.9,141.6,40.5,141.1,39.9z
	 M144.8,37.5c0-0.7-0.1-1.5-0.4-2.1c-0.2-0.5-0.7-0.8-1.2-0.7c-0.5,0-1,0.2-1.2,0.7c-0.3,0.6-0.4,1.3-0.4,2c0,0.8,0.1,1.5,0.4,2.2
	c0.2,0.5,0.7,0.8,1.2,0.8C144.3,40.3,144.8,39.4,144.8,37.5z"/>
<path d="M149.3,33.7c0.4-0.3,0.9-0.5,1.5-0.5c0.3,0,0.6,0.1,0.9,0.2c0.3,0.2,0.6,0.4,0.9,0.6c0.2,0.2,0.4,0.3,0.6,0.4
	c0.2,0.1,0.4,0.1,0.6,0.1c0.7,0,1.3-0.4,1.6-0.9l0.6,0.7c-0.2,0.4-0.6,0.8-1,1c-0.4,0.3-0.9,0.4-1.4,0.4c-0.3,0-0.6-0.1-0.9-0.2
	c-0.3-0.2-0.6-0.3-0.8-0.5s-0.4-0.3-0.6-0.5c-0.2-0.1-0.4-0.2-0.6-0.2c-0.7,0-1.3,0.4-1.7,0.9l-0.6-0.7
	C148.6,34.3,148.9,33.9,149.3,33.7z"/>
<path d="M159.8,28.4l-1.2-0.2v-0.8h2.1c0.3,0,0.8,0,1.4-0.1s1.1-0.1,1.4-0.1c1.6-0.1,3.2,0.4,4.4,1.5c1,1.2,1.5,2.7,1.5,4.2
	c0,1.2-0.2,2.3-0.8,3.4c-0.5,0.9-1.2,1.7-2.1,2.3c-0.9,0.5-2,0.8-3.1,0.8c-0.3,0-0.7,0-1.3-0.1s-1.1-0.1-1.4-0.1h-2.2v-0.8l1.3-0.2
	L159.8,28.4z M162.9,38.5h0.5c0.7,0,1.5-0.2,2.1-0.6c0.7-0.4,1.2-1,1.5-1.8c0.4-0.9,0.5-1.9,0.5-2.8c0.1-1.4-0.3-2.7-1.1-3.8
	c-0.8-0.9-2.1-1.4-3.3-1.3c-0.4,0-0.7,0-1.1,0.1c-0.2,0-0.3,0-0.5,0v10.1C162,38.5,162.5,38.5,162.9,38.5z"/>
<path d="M171.6,42.3c0.4-0.8,0.8-1.7,1.1-2.5s0.8-2,1.5-3.6l0.5-1.3h-3.2l-0.5,1.5l-0.7-0.1l0.2-2.1h4.9l0.2,0.3
	c-0.4,1-0.8,2.3-1.5,4.1s-1.1,3.1-1.4,4.1L171.6,42.3z"/>
<path d="M704.6,28l-1.2-0.2V27h2.1c0.3,0,0.8,0,1.4-0.1s1.1-0.1,1.4-0.1c1.6-0.1,3.2,0.4,4.4,1.5c1,1.2,1.5,2.7,1.5,4.2
	c0,1.2-0.2,2.4-0.7,3.4c-0.5,0.9-1.2,1.7-2.1,2.3c-0.9,0.6-2,0.8-3.1,0.8c-0.3,0-0.7,0-1.3-0.1s-1.1-0.1-1.4-0.1h-2.2V38l1.3-0.2V28
	H704.6z M707.8,38.1h0.5c1.6,0,3-0.9,3.5-2.4c0.4-0.9,0.5-1.9,0.5-2.9c0.1-1.4-0.3-2.7-1.1-3.8c-0.8-0.9-2.1-1.4-3.3-1.3
	c-0.3,0-0.7,0-1.1,0.1c-0.2,0-0.3,0-0.5,0V38C706.8,38.1,707.3,38.2,707.8,38.1L707.8,38.1z"/>
<path d="M716,39.5c-0.5-0.7-0.7-1.6-0.7-2.4c0-0.6,0.1-1.3,0.4-1.8c0.2-0.5,0.6-0.9,1-1.2s0.9-0.4,1.5-0.4c0.8-0.1,1.5,0.3,2,0.9
	c0.5,0.7,0.7,1.6,0.6,2.4c0,0.6-0.1,1.3-0.4,1.8c-0.2,0.5-0.6,0.9-1,1.2s-0.9,0.4-1.4,0.4C717.2,40.5,716.5,40.2,716,39.5z
	 M719.7,37.1c0-0.7-0.1-1.5-0.4-2.1c-0.2-0.5-0.7-0.8-1.2-0.8s-1,0.3-1.2,0.7c-0.3,0.6-0.4,1.3-0.4,2s0.1,1.5,0.4,2.2
	c0.2,0.5,0.7,0.8,1.2,0.8C719.2,40,719.7,39,719.7,37.1L719.7,37.1z"/>
<path d="M724.2,33.3c0.4-0.3,0.9-0.4,1.5-0.4c0.3,0,0.6,0.1,0.9,0.2c0.3,0.2,0.6,0.3,0.9,0.6c0.2,0.2,0.4,0.3,0.6,0.4
	c0.2,0.1,0.4,0.1,0.6,0.1c0.7,0,1.3-0.4,1.6-0.9l0.6,0.7c-0.2,0.4-0.6,0.8-1,1c-0.4,0.3-0.9,0.4-1.4,0.4c-0.3,0-0.6-0.1-0.9-0.2
	c-0.3-0.2-0.6-0.3-0.8-0.5s-0.4-0.3-0.6-0.5c-0.2-0.1-0.4-0.2-0.6-0.2c-0.7,0-1.3,0.4-1.7,0.9l-0.6-0.7
	C723.5,33.9,723.8,33.6,724.2,33.3z"/>
<path d="M734.7,28l-1.2-0.2V27h2.1c0.3,0,0.8,0,1.4-0.1s1.1-0.1,1.4-0.1c1.6-0.1,3.2,0.4,4.4,1.5c1,1.2,1.5,2.7,1.5,4.2
	c0,1.2-0.2,2.3-0.8,3.3c-0.5,0.9-1.2,1.7-2.1,2.3c-0.9,0.6-2,0.8-3.1,0.8c-0.3,0-0.7,0-1.3-0.1s-1.1-0.1-1.4-0.1h-2.2v-0.8l1.3-0.2
	L734.7,28z M737.8,38.1h0.5c0.8,0,1.5-0.2,2.1-0.6c0.6-0.4,1.1-1,1.4-1.8c0.4-0.9,0.5-1.9,0.5-2.9c0.1-1.4-0.3-2.7-1.1-3.8
	c-0.8-0.9-2-1.4-3.3-1.3c-0.3,0-0.7,0-1.1,0.1c-0.2,0-0.3,0-0.5,0V38C736.9,38.1,737.3,38.2,737.8,38.1L737.8,38.1z"/>
<path d="M746.5,41.9c0.4-0.8,0.8-1.7,1.1-2.5l1.4-3.6l0.5-1.3h-3.2l-0.4,1.5l-0.7-0.1l0.2-2.1h4.9l0.2,0.3c-0.3,1-0.8,2.3-1.5,4.1
	s-1.1,3.1-1.5,4.1L746.5,41.9z"/>
<path class="st2" d="M186.1,33.7h506.5"/>
<path d="M129.6,77.6h1.8l3.9,11l1,0.2v0.8h-4.2v-0.8l1.3-0.2l-0.8-2.4H128l-0.8,2.4l1.4,0.2v0.8h-3.8v-0.8l1-0.2L129.6,77.6z
	 M130.6,80.1l-0.4-1.4l-0.4,1.4l-1.6,5.1h4.1L130.6,80.1z"/>
<path d="M138.1,85.5c-0.2,0.1-0.5,0.2-0.7,0.2c-0.3,0.1-0.6,0.1-0.8,0.2l-0.1-0.6c0.4-0.1,0.8-0.2,1.1-0.4c0.3-0.2,0.7-0.4,0.9-0.6
	l0,0l0.6,0.1v6l1.3,0.1V91h-3.8v-0.5l1.4-0.1L138.1,85.5z"/>
<path d="M150.3,84c0.4-0.3,0.9-0.5,1.5-0.4c0.3,0,0.6,0.1,0.9,0.2c0.3,0.2,0.6,0.3,0.9,0.6c0.2,0.2,0.4,0.3,0.6,0.4
	c0.2,0.1,0.4,0.2,0.6,0.2c0.7,0,1.3-0.4,1.6-0.9l0.6,0.7c-0.2,0.4-0.6,0.8-1,1c-0.4,0.3-0.9,0.4-1.4,0.4c-0.3,0-0.6-0.1-0.9-0.2
	c-0.3-0.2-0.6-0.3-0.8-0.5s-0.4-0.3-0.6-0.5c-0.2-0.1-0.4-0.2-0.6-0.2c-0.7,0-1.3,0.4-1.7,0.9l-0.6-0.7
	C149.6,84.6,149.9,84.2,150.3,84z"/>
<path d="M163.4,77.6h1.8l3.9,11l1,0.2v0.8h-4.2v-0.8l1.3-0.2l-0.8-2.4h-4.7l-0.8,2.4l1.4,0.2v0.8h-3.8v-0.8l1-0.2L163.4,77.6z
	 M164.4,80.1l-0.4-1.4l-0.4,1.4l-1.6,5.1h4L164.4,80.1z"/>
<path d="M127.1,127.8h1.8l3.9,11l1,0.2v0.8h-4.2V139l1.3-0.2l-0.8-2.4h-4.7l-0.8,2.4l1.4,0.2v0.8h-3.8V139l1-0.2L127.1,127.8z
	 M128.1,130.4l-0.4-1.4l-0.4,1.4l-1.6,5.1h4.1L128.1,130.4z"/>
<path d="M135.6,135.8c-0.2,0.1-0.5,0.2-0.7,0.2c-0.3,0.1-0.6,0.1-0.8,0.2l-0.1-0.6c0.4-0.1,0.8-0.2,1.1-0.4s0.7-0.4,0.9-0.6l0,0
	l0.6,0.1v6l1.3,0.1v0.5h-3.8v-0.5l1.4-0.1L135.6,135.8z"/>
<path d="M147.3,134.2c0.4-0.3,0.9-0.5,1.5-0.4c0.3,0,0.6,0.1,0.9,0.2c0.3,0.2,0.6,0.3,0.9,0.6c0.2,0.2,0.4,0.3,0.6,0.4
	c0.2,0.1,0.4,0.1,0.6,0.1c0.7,0,1.3-0.4,1.6-0.9l0.6,0.7c-0.2,0.4-0.6,0.8-1,1c-0.4,0.3-0.9,0.4-1.4,0.4c-0.3,0-0.6-0.1-0.9-0.2
	c-0.3-0.2-0.6-0.3-0.8-0.5s-0.4-0.3-0.6-0.5c-0.2-0.1-0.4-0.2-0.6-0.1c-0.7,0-1.3,0.4-1.7,0.9l-0.6-0.7
	C146.5,134.8,146.9,134.5,147.3,134.2z"/>
<path d="M160.3,127.8h1.8l3.9,11l1,0.2v0.8h-4.2V139l1.3-0.2l-0.8-2.4h-4.7l-0.8,2.4l1.4,0.2v0.8h-3.8V139l1-0.2L160.3,127.8z
	 M161.3,130.4l-0.4-1.4l-0.4,1.4l-1.6,5.1h4.1L161.3,130.4z"/>
<path d="M131.5,185.9h1.9l0.3-3.3h-1.9v-0.9h2l0.4-3.4h1.3l-0.4,3.4h2.7l0.4-3.4h1.3l-0.4,3.4h1.9v0.9h-2l-0.3,3.3h1.9v1h-2.1
	l-0.3,3.3H137l0.3-3.3h-2.7l-0.4,3.3h-1.3l0.4-3.3h-1.8V185.9z M135,182.5l-0.3,3.3h2.7l0.3-3.3H135z"/>
<path d="M144.5,179.2L143,179v-0.8h4.7v0.8l-1.5,0.2v9.9l1.5,0.2v0.8H143v-0.8l1.5-0.2V179.2z"/>
<path d="M151.4,189.5c-0.8-0.5-1.4-1.3-1.7-2.1c-0.4-1-0.6-2.1-0.6-3.2c0-1.1,0.2-2.2,0.7-3.2c0.4-0.9,1.1-1.6,1.9-2.1
	c0.8-0.5,1.8-0.8,2.7-0.8c1.4-0.1,2.9,0.5,3.8,1.6c0.9,1.2,1.4,2.8,1.3,4.4c0,1.1-0.2,2.3-0.7,3.3c-0.4,0.9-1.1,1.7-1.9,2.2
	c-0.8,0.5-1.8,0.8-2.8,0.8C153.2,190.3,152.2,190.1,151.4,189.5z M151.9,180.3c-0.7,1.2-1,2.6-0.9,4c-0.1,1.3,0.2,2.6,0.9,3.8
	c0.5,0.9,1.4,1.4,2.4,1.4s1.9-0.5,2.4-1.4c0.7-1.2,1-2.6,0.9-4c0.1-1.3-0.2-2.6-0.9-3.8c-0.5-0.9-1.4-1.4-2.4-1.4
	C153.4,178.9,152.4,179.4,151.9,180.3z"/>
<path d="M159.8,178.2h4.3v0.8l-1.5,0.2l2.2,7.5l0.5,2.2l0.5-2.2l1.8-6.1l-0.4-1.4l-1.1-0.2v-0.8h4.5v0.8l-1.6,0.2l2.2,7.5l0.5,2.4
	l0.4-2.4l2-7.5l-1.6-0.2v-0.8h3.8v0.8l-1,0.2l-3.2,11h-1.6l-2.4-8l-2.4,8h-1.5l-3.4-11l-1.1-0.2L159.8,178.2z"/>
<line class="st2" x1="186.1" y1="83.9" x2="238.1" y2="83.9"/>
<line class="st2" x1="186.1" y1="134.1" x2="238.1" y2="134.1"/>
<path d="M136.2,236.1h1.9l0.3-3.3h-1.9v-0.9h2l0.4-3.4h1.3l-0.4,3.4h2.7l0.4-3.4h1.3l-0.4,3.4h1.9v0.9h-2l-0.3,3.3h1.9v1h-2.1
	l-0.3,3.3h-1.3l0.3-3.3h-2.7l-0.4,3.3h-1.3l0.4-3.3h-1.8L136.2,236.1z M139.8,232.8l-0.3,3.3h2.7l0.3-3.3H139.8z"/>
<path d="M149.2,229.5l-1.5-0.2v-0.8h4.7v0.8l-1.5,0.2v10l1.5,0.2v0.8h-4.7v-0.8l1.5-0.2V229.5z"/>
<path d="M156.1,239.8c-0.8-0.5-1.4-1.3-1.7-2.1c-0.4-1-0.6-2.1-0.6-3.2c0-1.1,0.2-2.2,0.7-3.2c0.4-0.9,1.1-1.6,1.9-2.1
	c0.8-0.5,1.8-0.8,2.7-0.8c1.4-0.1,2.9,0.5,3.8,1.6c0.9,1.3,1.4,2.8,1.3,4.4c0,1.1-0.2,2.3-0.7,3.3c-0.4,0.9-1.1,1.7-2,2.2
	c-0.8,0.5-1.8,0.8-2.8,0.8C157.9,240.6,156.9,240.3,156.1,239.8z M156.7,230.5c-1.2,2.5-1.2,5.3,0,7.8c0.8,1.3,2.5,1.8,3.9,1
	c0.4-0.2,0.8-0.6,1-1c0.7-1.2,1-2.6,0.9-4c0.1-1.3-0.2-2.6-0.9-3.8c-0.5-0.9-1.4-1.4-2.4-1.4C158.1,229.2,157.2,229.7,156.7,230.5
	L156.7,230.5z"/>
<path d="M165.6,239.6l1.3-0.2v-10l-1.2-0.2v-0.8h2.1c0.3,0,0.7,0,1.2-0.1s1-0.1,1.2-0.1c1.2-0.1,2.3,0.2,3.4,0.8
	c0.7,0.6,1.1,1.5,1,2.4c0,0.7-0.2,1.5-0.6,2.1c-0.4,0.6-1,1.1-1.7,1.3c0.4,0.2,0.7,0.5,1,0.9s0.6,1.1,1.1,1.9c0.3,0.6,0.6,1,0.8,1.3
	s0.3,0.4,0.5,0.5l0.6,0.2v0.8H174c-0.2,0-0.4-0.2-0.6-0.6s-0.5-0.9-0.9-1.7s-0.7-1.5-1-2c-0.2-0.4-0.5-0.8-0.8-1c-1.1,0-1.8,0-2,0
	v4.3l1.6,0.2v0.8h-4.6L165.6,239.6z M172.1,233.6c0.4-0.6,0.6-1.3,0.6-2c0-0.6-0.2-1.3-0.6-1.8c-0.6-0.5-1.3-0.7-2.1-0.6
	c-0.3,0-0.7,0-1,0.1h-0.4v5h1.9C171.2,234.3,171.7,234.1,172.1,233.6L172.1,233.6z"/>
<path d="M163.1,277.3h1.8l3.9,11l1,0.2v0.8h-4.2v-0.8l1.3-0.2l-0.8-2.4h-4.7l-0.8,2.4l1.4,0.2v0.8h-3.8v-0.8l1-0.2L163.1,277.3z
	 M164.1,279.9l-0.4-1.4l-0.4,1.4l-1.6,5.1h4.1L164.1,279.9z"/>
<path d="M173.7,290.7h-3.5l-0.3-0.5c0.4-0.8,0.9-1.9,1.5-3.2s1.2-2.5,1.6-3.6h0.3l0.9,0.5l-2.9,5.5l-0.4,0.6l2.8-0.1v-2.1l0.9-0.1
	v2.1l1.5-0.1v0.9h-1.5v1.7h-0.9L173.7,290.7z"/>
<path d="M163.7,326.2h1.8l3.9,11l1,0.2v0.8h-4.2v-0.8l1.3-0.2l-0.8-2.4H162l-0.8,2.4l1.4,0.2v0.8h-3.8v-0.8l1-0.2L163.7,326.2z
	 M164.7,328.8l-0.4-1.4l-0.4,1.4l-1.6,5.1h4.1L164.7,328.8z"/>
<path d="M171.3,341.3l-0.5-0.1v-0.6c0.3,0.1,0.6,0.1,0.9,0.1c0.5,0,1-0.1,1.4-0.3c0.4-0.2,0.7-0.4,0.9-0.7c0.2-0.3,0.3-0.6,0.3-1
	s-0.1-0.8-0.4-1.1c-0.4-0.3-0.9-0.4-1.4-0.4l-0.3,0.1l-0.3,0.1l-0.2-0.6c0.3-0.1,0.6-0.1,0.8-0.3c0.4-0.2,0.8-0.4,1.1-0.7
	c0.3-0.3,0.4-0.6,0.4-1c0-0.3-0.1-0.7-0.4-0.9c-0.3-0.2-0.6-0.3-0.9-0.3c-0.3,0-0.6,0.1-0.9,0.2c-0.3,0.1-0.5,0.2-0.8,0.4l-0.3-0.5
	c0.3-0.3,0.6-0.5,1-0.6c0.4-0.2,0.9-0.3,1.3-0.3c0.6,0,1.1,0.1,1.6,0.4c0.4,0.3,0.6,0.8,0.6,1.3s-0.2,1-0.6,1.4
	c-0.4,0.4-0.9,0.7-1.4,0.9h0.3c0.4,0,0.8,0.1,1.1,0.2s0.6,0.4,0.7,0.6c0.2,0.3,0.3,0.6,0.3,0.9c0,0.5-0.2,1-0.5,1.4s-0.8,0.8-1.3,1
	c-0.6,0.2-1.3,0.4-2,0.3L171.3,341.3z"/>
<line class="st2" x1="186.2" y1="185.8" x2="238.8" y2="185.8"/>
<line class="st2" x1="185.5" y1="233.4" x2="238.1" y2="233.4"/>
<path d="M163.3,375.1h1.8l3.9,11l1,0.2v0.8h-4.2v-0.8l1.3-0.2l-0.8-2.4h-4.7l-0.8,2.4l1.4,0.2v0.8h-3.8v-0.8l1-0.2L163.3,375.1z
	 M164.3,377.6l-0.4-1.4l-0.4,1.4l-1.6,5.1h4.1L164.3,377.6z"/>
<path d="M172,386.8c0.5-0.4,1-0.9,1.3-1.5c0.3-0.4,0.5-0.9,0.5-1.5c0-0.3-0.1-0.7-0.4-0.9c-0.3-0.2-0.6-0.4-1-0.4
	c-0.3,0-0.7,0.1-1,0.2c-0.3,0.2-0.6,0.4-0.8,0.6l-0.3-0.5c0.3-0.3,0.7-0.6,1.1-0.8c0.5-0.2,1-0.4,1.5-0.4c0.4,0,0.9,0.1,1.3,0.3
	c0.3,0.2,0.6,0.4,0.8,0.7c0.2,0.3,0.2,0.7,0.2,1c0,0.8-0.4,1.6-1,2.2c-0.7,0.8-1.6,1.5-2.5,2l3.3-0.2l0.4-0.9l0.6,0.1l-0.3,1.7h-5.1
	l-0.2-0.5C170.9,387.7,171.5,387.3,172,386.8z"/>
<path d="M165,424h1.8l3.9,11l1,0.2v0.8h-4.2v-0.8l1.3-0.2l-0.8-2.4h-4.7l-0.8,2.4l1.4,0.2v0.8h-3.8v-0.8l1-0.2L165,424z M166,426.6
	l-0.4-1.4l-0.4,1.4l-1.6,5.1h4.1L166,426.6z"/>
<path d="M173.4,431.9c-0.2,0.1-0.5,0.2-0.7,0.2c-0.3,0.1-0.5,0.1-0.8,0.2l-0.1-0.6c0.4-0.1,0.8-0.2,1.1-0.4c0.3-0.2,0.7-0.4,0.9-0.6
	l0,0l0.6,0.1v6l1.3,0.1v0.5H172v-0.5l1.4-0.1V431.9z"/>
<path d="M162.8,472.9h1.8l3.9,11l1,0.2v0.8h-4.2V484l1.3-0.2l-0.8-2.4h-4.7l-0.8,2.4l1.4,0.2v0.8H158V484l1-0.2L162.8,472.9z
	 M163.8,475.4l-0.4-1.4l-0.4,1.4l-1.6,5.1h4.1L163.8,475.4z"/>
<path d="M170.6,485.5c-0.5-0.7-0.7-1.6-0.7-2.4c0-0.6,0.1-1.3,0.4-1.8c0.2-0.5,0.6-0.9,1-1.2c0.4-0.3,0.9-0.4,1.4-0.4
	c0.8-0.1,1.5,0.3,2,0.9c0.5,0.7,0.7,1.6,0.6,2.4c0,0.6-0.1,1.3-0.4,1.8c-0.2,0.5-0.6,0.9-1,1.2c-0.4,0.3-0.9,0.4-1.4,0.4
	C171.8,486.5,171.1,486.1,170.6,485.5z M174.3,483c0-0.7-0.1-1.5-0.4-2.1c-0.2-0.5-0.7-0.8-1.2-0.8s-1,0.3-1.2,0.7
	c-0.3,0.6-0.4,1.3-0.4,2s0.1,1.5,0.4,2.2c0.2,0.5,0.7,0.8,1.2,0.8C173.7,485.9,174.3,484.9,174.3,483L174.3,483z"/>
<path d="M342.8,89.3c-0.8-0.5-1.5-1.2-1.9-2.1c-0.9-2.1-0.9-4.4,0.1-6.4c0.5-0.9,1.2-1.7,2.2-2.1c1-0.5,2-0.7,3.1-0.7
	c1.3,0,2.5,0.2,3.7,0.5l-0.1,2.8h-1.1l-0.4-1.9c-0.2-0.2-0.5-0.3-0.8-0.3c-0.5-0.1-1-0.2-1.4-0.2c-1.5,0-2.9,0.9-3.5,2.3
	c-0.4,0.9-0.5,1.8-0.5,2.8c0,0.9,0.1,1.8,0.4,2.7c0.2,0.8,0.7,1.5,1.2,2c0.6,0.5,1.3,0.8,2.1,0.7c0.5,0,1-0.1,1.5-0.2
	c0.4-0.1,0.7-0.3,1.1-0.5V85l-2-0.2v-0.9h4.7v0.9l-0.9,0.2v4.3c-0.4,0-0.8,0.1-1.2,0.3c-0.5,0.2-1,0.3-1.6,0.4
	c-0.5,0.1-1.1,0.2-1.6,0.2C344.8,90.1,343.7,89.9,342.8,89.3z"/>
<path d="M353.4,85.9c-0.2,0.1-0.5,0.2-0.7,0.2c-0.3,0.1-0.5,0.1-0.8,0.2l-0.1-0.6c0.4-0.1,0.8-0.2,1.1-0.4c0.3-0.2,0.7-0.4,1-0.6
	l0,0l0.7,0.1v6l1.3,0.1v0.5H352v-0.5l1.4-0.1V85.9z"/>
<path d="M342.8,140.4c-0.8-0.5-1.5-1.2-1.9-2.1c-0.9-2.1-0.9-4.4,0.1-6.4c0.5-0.9,1.2-1.7,2.2-2.1c1-0.5,2-0.7,3.1-0.7
	c1.3,0,2.5,0.2,3.7,0.5l-0.1,2.8h-1.1l-0.4-1.9c-0.2-0.2-0.5-0.3-0.8-0.3c-0.5-0.1-1-0.2-1.4-0.2c-1.5,0-2.9,0.9-3.5,2.3
	c-0.4,0.9-0.5,1.8-0.5,2.8c0,0.9,0.1,1.8,0.4,2.7c0.2,0.8,0.7,1.5,1.2,2c0.6,0.5,1.3,0.8,2.1,0.7c0.5,0,1-0.1,1.5-0.2
	c0.4-0.1,0.7-0.3,1.1-0.5V136l-2-0.2v-0.9h4.7v0.9l-0.9,0.1v4.3c-0.4,0-0.8,0.1-1.2,0.3c-0.5,0.2-1,0.3-1.6,0.4
	c-0.5,0.1-1.1,0.2-1.6,0.1C344.8,141.1,343.7,140.9,342.8,140.4z"/>
<path d="M353.7,140.7c0.5-0.4,0.9-0.9,1.3-1.5c0.3-0.4,0.5-0.9,0.5-1.5c0-0.3-0.1-0.7-0.4-0.9s-0.6-0.4-1-0.4s-0.7,0.1-1,0.2
	c-0.3,0.2-0.6,0.4-0.8,0.6l-0.3-0.5c0.3-0.3,0.7-0.6,1.1-0.8c0.5-0.2,1-0.4,1.5-0.4c0.4,0,0.9,0.1,1.3,0.3c0.3,0.2,0.6,0.4,0.8,0.7
	c0.2,0.3,0.2,0.7,0.2,1c0,0.8-0.4,1.6-1,2.2c-0.7,0.8-1.6,1.5-2.5,2l3.3-0.2l0.4-0.9l0.5,0.1l-0.3,1.7h-5.1L352,142
	C352.5,141.6,353.1,141.2,353.7,140.7z"/>
<path d="M360.9,134.4h1.1l2.6,7.4l0.7,0.1v0.5h-2.8v-0.5l0.9-0.1l-0.5-1.6h-3.1l-0.5,1.6l0.9,0.1v0.5h-2.5v-0.5l0.7-0.1L360.9,134.4
	z M361.5,136.1l-0.3-0.9l-0.3,1l-1.1,3.4h2.7L361.5,136.1z"/>
<path d="M342.8,189.4c-0.8-0.5-1.5-1.2-1.9-2.1c-0.9-2.1-0.9-4.4,0.1-6.4c0.5-0.9,1.2-1.7,2.2-2.1c1-0.5,2-0.7,3.1-0.7
	c1.3,0,2.5,0.2,3.7,0.5l-0.1,2.8h-1.1l-0.4-1.9c-0.2-0.2-0.5-0.3-0.8-0.3c-0.5-0.1-1-0.2-1.4-0.2c-1.5,0-2.9,0.9-3.5,2.3
	c-0.4,0.9-0.5,1.8-0.5,2.8c0,0.9,0.1,1.8,0.4,2.7c0.2,0.8,0.7,1.5,1.2,2c0.6,0.5,1.3,0.8,2.1,0.7c0.5,0,1-0.1,1.5-0.2
	c0.4-0.1,0.7-0.3,1.1-0.5V185l-2-0.2v-0.9h4.7v0.9l-0.9,0.1v4.3c-0.4,0-0.8,0.1-1.2,0.3c-0.5,0.2-1,0.3-1.6,0.4
	c-0.5,0.1-1.1,0.2-1.6,0.1C344.8,190.1,343.7,189.9,342.8,189.4z"/>
<path d="M353.7,189.7c0.5-0.4,0.9-0.9,1.3-1.5c0.3-0.4,0.5-0.9,0.5-1.5c0-0.3-0.1-0.7-0.4-0.9s-0.6-0.4-1-0.4s-0.7,0.1-1,0.2
	c-0.3,0.2-0.6,0.4-0.8,0.6l-0.3-0.5c0.3-0.3,0.7-0.6,1.1-0.8c0.5-0.2,1-0.4,1.5-0.4c0.4,0,0.9,0.1,1.3,0.3c0.3,0.2,0.6,0.4,0.8,0.7
	c0.2,0.3,0.2,0.7,0.2,1c0,0.8-0.4,1.6-1,2.2c-0.7,0.8-1.6,1.5-2.5,2l3.3-0.2l0.4-0.9l0.5,0.1l-0.3,1.7h-5.1L352,191
	C352.5,190.6,353.1,190.2,353.7,189.7z"/>
<path d="M359.1,184.1l-0.9-0.1v-0.5h1.4c0.2,0,0.5,0,0.9,0s0.6,0,0.8,0c0.7-0.1,1.5,0.1,2.1,0.4c0.4,0.3,0.7,0.8,0.6,1.4
	c0,0.5-0.1,0.9-0.4,1.3c-0.3,0.4-0.7,0.6-1.2,0.7c0.6,0,1.2,0.1,1.6,0.5c0.4,0.3,0.6,0.8,0.6,1.4c0,0.7-0.3,1.3-0.8,1.8
	c-0.7,0.5-1.6,0.8-2.5,0.7c-0.2,0-0.5,0-0.7,0h-1h-1.4V191l0.9-0.1V184.1z M360.9,187h0.6c0.4,0,0.8-0.1,1.1-0.4
	c0.3-0.3,0.4-0.8,0.4-1.2s-0.1-0.8-0.4-1.1c-0.4-0.3-0.8-0.4-1.3-0.4c-0.3,0-0.5,0-0.8,0h-0.2v3L360.9,187z M361.4,190.9
	c0.6,0.1,1.1-0.1,1.6-0.4c0.3-0.3,0.5-0.8,0.5-1.3c0-0.4-0.1-0.9-0.4-1.2c-0.4-0.3-0.9-0.4-1.4-0.4c-0.7,0-1.2,0-1.4,0v3.2
	C360.6,190.9,361,190.9,361.4,190.9z"/>
<path d="M344.2,278h1.8l3.9,11l1,0.2v0.8h-4.2v-0.8l1.3-0.2l-0.8-2.4h-4.7l-0.8,2.4l1.4,0.2v0.8h-3.8v-0.8l1-0.2L344.2,278z
	 M345.2,280.6l-0.4-1.4l-0.4,1.4l-1.6,5.1h4.1L345.2,280.6z"/>
<path d="M352.9,289.7c0.5-0.4,0.9-0.9,1.3-1.5c0.3-0.4,0.5-0.9,0.5-1.5c0-0.3-0.1-0.7-0.4-0.9c-0.3-0.2-0.6-0.4-1-0.4
	c-0.3,0-0.7,0.1-1,0.2c-0.3,0.2-0.6,0.4-0.8,0.6l-0.4-0.5c0.3-0.3,0.7-0.6,1.1-0.8c0.5-0.2,1-0.4,1.5-0.4c0.4,0,0.9,0.1,1.3,0.3
	c0.3,0.2,0.6,0.4,0.8,0.7c0.2,0.3,0.3,0.7,0.2,1c-0.1,0.8-0.4,1.6-1,2.2c-0.7,0.8-1.6,1.5-2.5,2l3.3-0.2l0.4-0.9l0.5,0.1l-0.3,1.7
	h-5.1l-0.2-0.5C351.8,290.6,352.4,290.2,352.9,289.7z"/>
<path d="M344.2,327h1.8l3.9,11l1,0.2v0.8h-4.2v-0.8l1.3-0.2l-0.8-2.4h-4.7l-0.8,2.4l1.4,0.2v0.8h-3.8v-0.8l1-0.2L344.2,327z
	 M345.2,329.6l-0.4-1.4l-0.4,1.4l-1.6,5.1h4.1L345.2,329.6z"/>
<path d="M352.6,334.9c-0.2,0.1-0.5,0.2-0.7,0.2c-0.3,0.1-0.5,0.1-0.8,0.2l-0.1-0.6c0.4-0.1,0.8-0.2,1.1-0.4c0.4-0.2,0.7-0.4,1-0.6
	l0,0l0.6,0.1v6l1.3,0.1v0.5h-3.8v-0.5l1.4-0.1V334.9z"/>
<path d="M344.2,376h1.8l3.9,11l1,0.2v0.8h-4.2v-0.8l1.3-0.2l-0.8-2.4h-4.7l-0.8,2.4l1.4,0.2v0.8h-3.8v-0.8l1-0.2L344.2,376z
	 M345.2,378.6l-0.4-1.4l-0.4,1.4l-1.6,5.1h4.1L345.2,378.6z"/>
<path d="M352,388.5c-0.5-0.7-0.7-1.6-0.7-2.4c0-0.6,0.1-1.3,0.4-1.8c0.2-0.5,0.6-0.9,1-1.2c0.4-0.3,0.9-0.4,1.5-0.4
	c0.8-0.1,1.5,0.3,2,0.9c0.5,0.7,0.7,1.6,0.6,2.4c0,0.6-0.1,1.3-0.4,1.8c-0.2,0.5-0.6,0.9-1,1.2c-0.4,0.3-0.9,0.4-1.5,0.4
	C353.2,389.5,352.5,389.2,352,388.5z M355.7,386.1c0-0.7-0.1-1.5-0.4-2.1c-0.2-0.5-0.7-0.8-1.2-0.8s-1,0.3-1.2,0.7
	c-0.3,0.6-0.4,1.3-0.4,2s0.1,1.5,0.4,2.2c0.2,0.5,0.7,0.8,1.2,0.8C355.1,389,355.6,388,355.7,386.1L355.7,386.1z"/>
<line class="st2" x1="280.2" y1="84.1" x2="333.6" y2="84.5"/>
<line class="st2" x1="280.2" y1="134.4" x2="333.6" y2="134.8"/>
<polyline class="st2" points="288.3,209.4 289.1,209.4 306.6,209.4 306.6,184.4 333.5,184.4 "/>
<circle class="st3" cx="284.6" cy="209.4" r="3.4"/>
<line class="st2" x1="186.4" y1="283.8" x2="333.9" y2="284.3"/>
<line class="st2" x1="186.1" y1="332.7" x2="333.6" y2="333.2"/>
<line class="st2" x1="186.1" y1="381.6" x2="333.6" y2="382.1"/>
<path d="M413.8,333.5l-3.6-6.3l-1-0.2v-0.8h4.2v0.8l-1.3,0.2l2.2,4.3l0.5,1.2l0.6-1.2l2.1-4.3l-1.3-0.2v-0.8h3.7v0.8l-1,0.2
	l-3.4,6.3v3.7l1.8,0.2v0.8H412v-0.8l1.8-0.2L413.8,333.5z"/>
<path d="M414.3,383.1l-3.6-6.3l-1-0.2v-0.8h4.3v0.8l-1.3,0.2l2.3,4.3l0.5,1.2l0.6-1.2l2.1-4.3l-1.3-0.2v-0.8h3.6v0.8l-1,0.2
	l-3.3,6.2v3.7l1.8,0.2v0.8h-5.3V387l1.7-0.2L414.3,383.1z"/>
<path d="M703.8,85.7h1.9l0.3-3.3h-1.9v-0.9h2l0.3-3.4h1.3l-0.4,3.4h2.7l0.3-3.4h1.3l-0.3,3.4h1.9v0.9h-2l-0.3,3.3h1.9v1h-2l-0.3,3.3
	h-1.3l0.3-3.3H707l-0.3,3.3h-1.3l0.3-3.3h-1.8L703.8,85.7z M707.4,82.4l-0.3,3.3h2.7l0.3-3.3H707.4z"/>
<path d="M715.2,89.2l1.3-0.2V79l-1.2-0.2V78h2.1c0.3,0,0.7,0,1.2-0.1s1-0.1,1.2-0.1c1.2-0.1,2.3,0.2,3.3,0.8c0.7,0.6,1.1,1.5,1,2.4
	c0,0.7-0.2,1.5-0.6,2.1c-0.4,0.6-1,1.1-1.7,1.3c0.4,0.2,0.8,0.5,1,0.9c0.4,0.6,0.8,1.2,1.1,1.8c0.3,0.6,0.6,1,0.8,1.3
	c0.1,0.2,0.3,0.4,0.5,0.5l0.6,0.2v0.8h-2.2c-0.2,0-0.4-0.2-0.6-0.6s-0.5-0.9-0.8-1.7s-0.7-1.5-1-2c-0.2-0.4-0.5-0.8-0.8-1h-2V89
	l1.6,0.2V90h-4.6L715.2,89.2z M721.8,83.2c0.4-0.6,0.6-1.3,0.6-2s-0.2-1.3-0.6-1.8c-0.6-0.5-1.3-0.7-2.1-0.6c-0.3,0-0.7,0-1,0.1
	h-0.4v5c0.2,0,0.5,0,1,0h0.9C720.8,83.8,721.3,83.6,721.8,83.2L721.8,83.2z"/>
<path d="M727.8,79l-1.2-0.2V78h2.1c0.3,0,0.8,0,1.4-0.1s1.1-0.1,1.4-0.1c1.6-0.1,3.2,0.4,4.4,1.5c1,1.2,1.5,2.7,1.5,4.2
	c0,1.2-0.2,2.3-0.8,3.3c-0.5,0.9-1.2,1.7-2.1,2.3c-0.9,0.6-2,0.8-3.1,0.8c-0.3,0-0.7,0-1.3-0.1s-1.1-0.1-1.4-0.1h-2.2v-0.8l1.3-0.2
	L727.8,79z M730.9,89.1h0.5c0.8,0,1.5-0.2,2.1-0.6c0.7-0.4,1.2-1,1.5-1.7c0.4-0.9,0.5-1.9,0.5-2.9c0.1-1.4-0.3-2.7-1.1-3.8
	c-0.8-0.9-2.1-1.4-3.3-1.3c-0.3,0-0.7,0-1.1,0.1c-0.2,0-0.3,0-0.5,0.1v10C730,89.1,730.5,89.2,730.9,89.1L730.9,89.1z"/>
<path d="M703.8,135.7h1.9l0.3-3.3h-1.9v-0.9h2l0.3-3.4h1.3l-0.4,3.4h2.7l0.3-3.4h1.3l-0.3,3.4h1.9v0.9h-2l-0.3,3.3h1.9v1h-2
	l-0.3,3.3h-1.3l0.3-3.3H707l-0.3,3.3h-1.3l0.3-3.3h-1.8L703.8,135.7z M707.4,132.4l-0.3,3.3h2.7l0.3-3.3H707.4z"/>
<path d="M714.2,128.1h4.3v0.8L717,129l2.2,7.5l0.5,2.2l0.5-2.2l1.8-6.1l-0.4-1.4l-1.1-0.2V128h4.5v0.8l-1.6,0.2l2.2,7.5l0.5,2.4
	l0.5-2.4l2-7.5l-1.6-0.2V128h3.8v0.8l-1.1,0.2l-3.2,11H725l-2.5-8l-2.4,8h-1.5l-3.4-11l-1-0.2L714.2,128.1z"/>
<path d="M731.2,139.2l1.3-0.2v-10l-1.2-0.2V128h2.1c0.3,0,0.7,0,1.2-0.1s1-0.1,1.2-0.1c1.2-0.1,2.3,0.2,3.3,0.8
	c0.7,0.6,1.1,1.5,1,2.4c0,0.7-0.2,1.5-0.6,2.1c-0.4,0.6-1,1.1-1.7,1.3c0.4,0.2,0.8,0.5,1,0.9c0.4,0.6,0.8,1.2,1.1,1.9
	c0.3,0.6,0.6,1,0.8,1.3c0.1,0.2,0.3,0.4,0.5,0.5l0.6,0.2v0.8h-2.2c-0.2,0-0.4-0.2-0.6-0.6s-0.5-0.9-0.8-1.7s-0.7-1.5-1-2
	c-0.2-0.4-0.5-0.8-0.8-1h-2v4.4l1.6,0.2v0.8h-4.6L731.2,139.2z M737.8,133.2c0.4-0.6,0.6-1.3,0.6-2s-0.2-1.3-0.6-1.8
	c-0.6-0.5-1.3-0.7-2.1-0.6c-0.3,0-0.7,0-1,0.1h-0.4v5c0.2,0,0.5,0,1,0h0.9C736.8,133.8,737.3,133.6,737.8,133.2L737.8,133.2z"/>
<path d="M703.8,185.7h1.9l0.3-3.3h-1.9v-0.9h2l0.3-3.4h1.3l-0.4,3.4h2.7l0.3-3.4h1.3l-0.3,3.4h1.9v0.9h-2l-0.3,3.3h1.9v1h-2
	l-0.3,3.3h-1.3l0.3-3.3H707l-0.3,3.3h-1.3l0.3-3.3h-1.8L703.8,185.7z M707.4,182.4l-0.3,3.3h2.7l0.3-3.3H707.4z"/>
<path d="M717.5,189.4c-0.8-0.5-1.5-1.3-1.9-2.1c-0.4-1-0.7-2.1-0.6-3.2c0-1.1,0.2-2.2,0.8-3.2c0.5-0.9,1.2-1.6,2.1-2.1
	c0.9-0.5,1.9-0.8,2.9-0.8s2,0.2,3,0.4l0.5,0.1l-0.2,2.9H723l-0.4-2c-0.2-0.2-0.5-0.3-0.8-0.3c-0.4-0.1-0.9-0.1-1.3-0.1
	c-0.7,0-1.3,0.2-1.8,0.6c-0.6,0.4-1,1-1.2,1.7c-0.3,0.9-0.5,1.8-0.5,2.7s0.1,1.9,0.4,2.7c0.2,0.8,0.6,1.5,1.2,2
	c0.6,0.5,1.3,0.7,2,0.7c0.4,0,0.9,0,1.3-0.1c0.3-0.1,0.5-0.2,0.8-0.4l0.7-1.6l1,0.1l-0.4,2.3c-0.3,0-0.7,0.1-1,0.2
	c-0.4,0.1-0.7,0.2-1.1,0.3c-0.4,0.1-0.9,0.1-1.3,0.1C719.4,190.2,718.4,189.9,717.5,189.4z"/>
<path d="M728,190c-0.4-0.1-0.9-0.2-1.4-0.4c-0.2-0.1-0.5-0.2-0.7-0.2l0.1-2.9h1l0.3,2.1c0.3,0.2,0.6,0.4,0.9,0.5
	c0.4,0.1,0.9,0.2,1.4,0.2c0.7,0,1.3-0.1,1.8-0.6c0.4-0.4,0.7-0.9,0.6-1.5c0-0.4-0.1-0.8-0.3-1.1s-0.6-0.6-0.9-0.8
	c-0.5-0.3-1-0.5-1.6-0.8c-0.5-0.2-1.1-0.5-1.6-0.8s-0.8-0.7-1.2-1.1c-0.3-0.5-0.5-1.1-0.5-1.7c0-0.6,0.2-1.1,0.5-1.6
	s0.8-0.9,1.4-1.1c0.7-0.3,1.4-0.4,2.1-0.4c0.4,0,0.9,0,1.3,0.1c0.4,0.1,0.8,0.2,1.3,0.3c0.2,0.1,0.4,0.1,0.5,0.1l-0.1,2.7h-1l-0.3-2
	c-0.2-0.1-0.4-0.2-0.7-0.3c-0.4-0.1-0.7-0.1-1.1-0.1c-0.6,0-1.2,0.1-1.7,0.5c-0.4,0.3-0.6,0.8-0.6,1.3c0,0.4,0.1,0.8,0.3,1.1
	s0.5,0.5,0.9,0.7c0.3,0.2,0.9,0.5,1.6,0.8c0.6,0.3,1.1,0.6,1.7,0.9c0.4,0.3,0.8,0.6,1.1,1.1c0.3,0.4,0.5,1,0.5,1.5
	c0,0.6-0.2,1.1-0.5,1.6c-0.3,0.6-0.8,1-1.4,1.3c-0.7,0.4-1.5,0.5-2.3,0.5C729,190.1,728.5,190.1,728,190z"/>
<path d="M707.2,227h1.8l3.9,11l1,0.2v0.8h-4.2v-0.8l1.3-0.2l-0.8-2.4h-4.7l-0.8,2.4l1.4,0.2v0.8h-3.8v-0.8l1-0.2L707.2,227z
	 M708.2,229.6l-0.4-1.4l-0.4,1.4l-1.6,5.1h4.1L708.2,229.6z"/>
<path d="M715.6,234.9c-0.2,0.1-0.5,0.2-0.7,0.2c-0.3,0.1-0.5,0.1-0.8,0.2l-0.1-0.6c0.4-0.1,0.8-0.2,1.1-0.4c0.4-0.2,0.7-0.4,1-0.6
	l0,0l0.7,0.1v6l1.3,0.1v0.5h-3.8v-0.5l1.4-0.1L715.6,234.9z"/>
<path d="M707.2,276h1.8l3.9,11l1,0.2v0.8h-4.2v-0.8l1.3-0.2l-0.8-2.4h-4.7l-0.8,2.4l1.4,0.2v0.8h-3.8v-0.8l1-0.2L707.2,276z
	 M708.2,278.6l-0.4-1.4l-0.4,1.4l-1.6,5.1h4.1L708.2,278.6z"/>
<path d="M715,288.5c-0.5-0.7-0.7-1.6-0.7-2.4c0-0.6,0.1-1.3,0.4-1.8c0.2-0.5,0.6-0.9,1-1.2c0.4-0.3,0.9-0.4,1.5-0.4
	c0.8-0.1,1.5,0.3,2,0.9c0.5,0.7,0.7,1.6,0.6,2.4c0,0.6-0.1,1.3-0.4,1.8c-0.2,0.5-0.6,0.9-1,1.2c-0.4,0.3-0.9,0.4-1.5,0.4
	C716.2,289.5,715.5,289.2,715,288.5z M718.7,286.1c0-0.7-0.1-1.5-0.3-2.1c-0.2-0.5-0.7-0.8-1.2-0.8s-1,0.3-1.2,0.7
	c-0.3,0.6-0.4,1.3-0.4,2s0.1,1.5,0.4,2.2c0.2,0.5,0.7,0.8,1.2,0.8C718.1,289,718.6,288,718.7,286.1L718.7,286.1z"/>
<polyline class="st2" points="440.7,332.4 441.5,332.4 461.5,332.4 461.5,184.4 692.5,184.4 "/>
<circle class="st3" cx="437" cy="332.4" r="3.4"/>
<path d="M611.9,85.3h1.9l0.3-3.3h-1.9v-0.9h2l0.3-3.4h1.3l-0.4,3.4h2.7l0.4-3.4h1.3l-0.3,3.4h1.9V82h-2l-0.3,3.3h1.9v1h-2l-0.3,3.3
	h-1.3l0.3-3.3H615l-0.3,3.3h-1.3l0.3-3.3h-1.8V85.3z M615.4,82l-0.3,3.3h2.7l0.3-3.3H615.4z"/>
<path d="M624.8,78.7l-1.5-0.2v-0.8h4.7v0.8l-1.5,0.2v9.9l1.5,0.2v0.8h-4.7v-0.8l1.5-0.2V78.7z"/>
<path d="M631.8,89c-0.8-0.5-1.4-1.3-1.8-2.1c-0.4-1-0.6-2.1-0.6-3.2s0.2-2.2,0.7-3.2c0.4-0.9,1.1-1.6,1.9-2.2
	c0.8-0.5,1.8-0.8,2.7-0.8c1.4-0.1,2.9,0.5,3.8,1.6c1,1.2,1.5,2.8,1.4,4.4c0,1.1-0.2,2.3-0.7,3.3c-0.5,0.9-1.1,1.7-2,2.2
	c-0.8,0.5-1.8,0.8-2.8,0.8C633.5,89.8,632.6,89.5,631.8,89z M632.3,79.7c-1.2,2.5-1.2,5.3,0,7.8c0.8,1.3,2.5,1.8,3.9,1
	c0.4-0.2,0.8-0.6,1-1c0.7-1.2,1-2.6,0.9-4c0.1-1.3-0.2-2.6-0.9-3.8c-0.5-0.9-1.4-1.4-2.4-1.3C633.7,78.3,632.8,78.9,632.3,79.7z"/>
<path d="M640.2,77.7h4.3v0.8l-1.5,0.2l2.2,7.4l0.5,2.2l0.5-2.2L648,80l-0.4-1.4l-1.1-0.2v-0.8h4.6v0.8l-1.6,0.2l2.2,7.4l0.5,2.4
	l0.5-2.4l2-7.4l-1.6-0.2v-0.8h3.8v0.8l-1.1,0.2l-3.2,11H651l-2.5-8l-2.4,8h-1.5l-3.4-11l-1.1-0.2L640.2,77.7z"/>
<path d="M616.6,135.6h1.9l0.3-3.3h-1.9v-0.9h2l0.4-3.4h1.3l-0.4,3.4h2.7l0.3-3.4h1.3l-0.3,3.4h1.9v0.9h-2l-0.3,3.3h1.9v1h-2.1
	l-0.3,3.3H622l0.3-3.3h-2.7l-0.3,3.3H618l0.3-3.3h-1.8L616.6,135.6L616.6,135.6z M620.1,132.3l-0.3,3.3h2.7l0.3-3.3H620.1z"/>
<path d="M629.6,128.9l-1.5-0.2V128h4.7v0.8l-1.5,0.2v9.9l1.5,0.2v0.8h-4.7v-0.8l1.5-0.2V128.9z"/>
<path d="M636.5,139.3c-0.8-0.5-1.4-1.3-1.7-2.1c-0.4-1-0.6-2.1-0.6-3.2c0-1.1,0.2-2.2,0.7-3.2c0.4-0.9,1.1-1.6,1.9-2.2
	c0.8-0.5,1.8-0.8,2.7-0.8c1.4-0.1,2.9,0.5,3.8,1.6c0.9,1.2,1.4,2.8,1.3,4.4c0,1.1-0.2,2.3-0.7,3.3c-0.4,0.9-1.1,1.7-2,2.2
	c-0.8,0.5-1.8,0.8-2.8,0.8C638.2,140,637.3,139.8,636.5,139.3z M637,130c-0.7,1.2-1,2.6-0.9,4c-0.1,1.3,0.2,2.6,0.9,3.8
	c0.5,0.9,1.4,1.4,2.4,1.4s1.9-0.5,2.4-1.4c0.7-1.2,1-2.6,0.9-4c0.1-1.3-0.2-2.6-0.9-3.8c-0.5-0.9-1.4-1.4-2.5-1.4
	C638.5,128.7,637.5,129.2,637,130z"/>
<path d="M646,139.1l1.3-0.2V129l-1.2-0.2V128h2.1c0.3,0,0.7,0,1.2-0.1s1-0.1,1.2-0.1c1.2-0.1,2.3,0.2,3.3,0.8c0.7,0.6,1.1,1.5,1,2.4
	c0,0.7-0.2,1.5-0.6,2.1c-0.4,0.6-1,1.1-1.7,1.3c0.4,0.2,0.7,0.6,1,0.9c0.4,0.6,0.8,1.2,1.1,1.9c0.3,0.6,0.6,1,0.8,1.3
	s0.3,0.4,0.5,0.5l0.6,0.2v0.8h-2.2c-0.2,0-0.4-0.2-0.6-0.6s-0.5-0.9-0.8-1.7s-0.7-1.5-1-2c-0.2-0.4-0.5-0.8-0.8-1h-2v4.3l1.6,0.2
	v0.8H646V139.1z M652.6,133.1c0.4-0.6,0.6-1.3,0.6-2s-0.2-1.3-0.6-1.8c-0.6-0.5-1.3-0.7-2.1-0.6c-0.3,0-0.7,0-1,0.1h-0.4v5
	c0.2,0,0.5,0,1,0h0.9C651.6,133.7,652.1,133.5,652.6,133.1L652.6,133.1z"/>
<path class="st2" d="M666.5,83.9h26.1"/>
<path class="st2" d="M666.5,134.2h26.1"/>
<polyline class="st2" points="186.1,430.2 487.4,430.2 487.4,233.3 692.5,233.3 "/>
<polyline class="st2" points="186.1,479.1 512.2,479.1 512.2,282.2 692.5,282.2 "/>
<path d="M705.6,366l-1.2-0.2V365h2.1c0.3,0,0.8,0,1.4-0.1s1.1-0.1,1.4-0.1c1.6-0.1,3.2,0.4,4.4,1.5c1,1.2,1.5,2.7,1.5,4.2
	c0,1.2-0.2,2.3-0.8,3.4c-0.5,0.9-1.2,1.7-2.1,2.3c-0.9,0.6-2,0.8-3.1,0.8c-0.3,0-0.7,0-1.3-0.1s-1.1-0.1-1.4-0.1h-2.2V376l1.3-0.2
	L705.6,366z M708.8,376.1h0.5c1.6,0,3-0.9,3.5-2.4c0.4-0.9,0.5-1.9,0.5-2.9c0.1-1.4-0.3-2.7-1.1-3.8c-0.8-0.9-2.1-1.4-3.3-1.3
	c-0.3,0-0.7,0-1.1,0.1c-0.2,0-0.3,0-0.5,0V376C707.8,376.1,708.3,376.2,708.8,376.1L708.8,376.1z"/>
<path d="M717,377.5c-0.5-0.7-0.7-1.6-0.7-2.4c0-0.6,0.1-1.3,0.4-1.8c0.2-0.5,0.6-0.9,1-1.2c0.4-0.3,0.9-0.4,1.5-0.4
	c0.8-0.1,1.5,0.3,2,0.9c0.5,0.7,0.7,1.6,0.6,2.4c0,0.6-0.1,1.3-0.4,1.8c-0.2,0.5-0.6,0.9-1,1.2c-0.4,0.3-0.9,0.4-1.4,0.4
	C718.2,378.5,717.5,378.2,717,377.5z M720.7,375.1c0-0.7-0.1-1.5-0.4-2.1c-0.2-0.5-0.7-0.8-1.2-0.8s-1,0.3-1.2,0.7
	c-0.3,0.6-0.4,1.3-0.4,2s0.1,1.5,0.4,2.2c0.2,0.5,0.7,0.8,1.2,0.8C720.2,378,720.7,377,720.7,375.1L720.7,375.1z"/>
<path d="M725.2,371.3c0.4-0.3,0.9-0.4,1.5-0.4c0.3,0,0.6,0.1,0.9,0.2c0.3,0.2,0.6,0.3,0.9,0.6c0.2,0.2,0.4,0.3,0.6,0.4
	c0.2,0.1,0.4,0.1,0.6,0.1c0.7,0,1.3-0.4,1.6-0.9l0.6,0.7c-0.2,0.4-0.6,0.8-1,1c-0.4,0.3-0.9,0.4-1.4,0.4c-0.3,0-0.6-0.1-0.9-0.2
	c-0.3-0.2-0.6-0.3-0.8-0.5s-0.4-0.3-0.6-0.5c-0.2-0.1-0.4-0.2-0.6-0.1c-0.7,0-1.3,0.4-1.7,0.9l-0.6-0.7
	C724.5,371.9,724.8,371.6,725.2,371.3z"/>
<path d="M735.7,366l-1.2-0.2V365h2.1c0.3,0,0.8,0,1.4-0.1s1.1-0.1,1.4-0.1c1.6-0.1,3.2,0.4,4.4,1.5c1,1.2,1.5,2.7,1.5,4.2
	c0,1.2-0.2,2.3-0.8,3.4c-0.5,0.9-1.2,1.7-2.1,2.3c-0.9,0.6-2,0.8-3.1,0.8c-0.3,0-0.7,0-1.3-0.1s-1.1-0.1-1.4-0.1h-2.2V376l1.3-0.2
	L735.7,366z M738.8,376.1h0.5c0.8,0,1.5-0.2,2.1-0.6s1.1-1,1.4-1.8c0.4-0.9,0.5-1.9,0.5-2.9c0.1-1.4-0.3-2.7-1.1-3.8
	c-0.8-0.9-2.1-1.4-3.3-1.3c-0.3,0-0.7,0-1.1,0.1c-0.2,0-0.3,0-0.5,0V376C737.8,376.1,738.3,376.2,738.8,376.1L738.8,376.1z"/>
<path d="M747.5,379.9c0.4-0.8,0.8-1.7,1.1-2.5l1.5-3.6l0.5-1.3h-3.2l-0.5,1.4l-0.7-0.1l0.2-2.1h4.9l0.2,0.3c-0.3,1-0.8,2.3-1.5,4.1
	s-1.1,3.1-1.5,4.1L747.5,379.9z"/>
<path d="M704.8,423.7h1.9l0.3-3.3h-1.9v-0.9h2l0.3-3.4h1.3l-0.4,3.4h2.7l0.3-3.4h1.3l-0.3,3.4h1.9v0.9h-2l-0.3,3.3h1.9v1h-2
	l-0.3,3.3h-1.3l0.3-3.3H708l-0.3,3.3h-1.3l0.3-3.3h-1.8L704.8,423.7z M708.4,420.4l-0.3,3.3h2.7l0.3-3.3H708.4z"/>
<path d="M716.2,427.2l1.3-0.2v-10l-1.2-0.2V416h2.1c0.3,0,0.7,0,1.2-0.1s1-0.1,1.2-0.1c1.2-0.1,2.3,0.2,3.3,0.8
	c0.7,0.6,1.1,1.5,1,2.4c0,0.7-0.2,1.5-0.6,2.1c-0.4,0.6-1,1.1-1.7,1.3c0.4,0.2,0.8,0.5,1,0.9c0.4,0.6,0.8,1.2,1.1,1.9
	c0.3,0.6,0.6,1,0.8,1.3c0.1,0.2,0.3,0.4,0.5,0.5l0.6,0.2v0.8h-2.2c-0.2,0-0.4-0.2-0.6-0.5s-0.5-0.9-0.8-1.7s-0.7-1.5-1-2
	c-0.2-0.4-0.5-0.8-0.8-1h-2v4.4l1.6,0.2v0.8h-4.6L716.2,427.2z M722.8,421.2c0.4-0.6,0.6-1.3,0.6-2s-0.2-1.3-0.6-1.8
	c-0.6-0.5-1.3-0.7-2.1-0.6c-0.3,0-0.7,0-1,0.1h-0.4v5c0.2,0,0.5,0,1,0h0.9C721.8,421.8,722.3,421.6,722.8,421.2L722.8,421.2z"/>
<path d="M728.8,417l-1.2-0.2V416h2.1c0.3,0,0.8,0,1.4-0.1s1.1-0.1,1.4-0.1c1.6-0.1,3.2,0.4,4.4,1.5c1,1.2,1.5,2.7,1.5,4.2
	c0,1.2-0.2,2.3-0.8,3.4c-0.5,0.9-1.2,1.7-2.1,2.3c-0.9,0.6-2,0.8-3.1,0.8c-0.3,0-0.7,0-1.3-0.1s-1.1-0.1-1.4-0.1h-2.2V427l1.3-0.2
	L728.8,417z M731.9,427.1h0.5c0.8,0,1.5-0.2,2.1-0.6c0.7-0.4,1.2-1,1.5-1.7c0.4-0.9,0.5-1.9,0.5-2.9c0.1-1.4-0.3-2.7-1.1-3.8
	c-0.8-0.9-2.1-1.4-3.3-1.3c-0.3,0-0.7,0-1.1,0.1c-0.2,0-0.3,0-0.5,0V427C731,427.1,731.5,427.2,731.9,427.1L731.9,427.1z"/>
<path d="M704.8,473.7h1.9l0.3-3.3h-1.9v-0.9h2l0.3-3.4h1.3l-0.4,3.4h2.7l0.3-3.4h1.3l-0.3,3.4h1.9v0.9h-2l-0.3,3.3h1.9v1h-2
	l-0.3,3.3h-1.3l0.3-3.3H708l-0.3,3.3h-1.3l0.3-3.3h-1.8L704.8,473.7z M708.4,470.4l-0.3,3.3h2.7l0.3-3.3H708.4z"/>
<path d="M715.2,466h4.3v0.8L718,467l2.2,7.5l0.5,2.2l0.5-2.2l1.8-6.1l-0.4-1.4l-1.1-0.2V466h4.5v0.8l-1.6,0.2l2.2,7.5l0.5,2.4
	l0.5-2.4l2-7.5l-1.6-0.2V466h3.8v0.8l-1.1,0.2l-3.2,11H726l-2.5-8l-2.4,8h-1.5l-3.4-11l-1-0.2L715.2,466z"/>
<path d="M732.2,477.2l1.3-0.2v-10l-1.2-0.2V466h2.1c0.3,0,0.7,0,1.2-0.1s1-0.1,1.2-0.1c1.2-0.1,2.3,0.2,3.3,0.8
	c0.7,0.6,1.1,1.5,1,2.4c0,0.7-0.2,1.5-0.6,2.1c-0.4,0.6-1,1.1-1.7,1.3c0.4,0.2,0.8,0.5,1,0.9c0.4,0.6,0.8,1.2,1.1,1.9
	c0.3,0.6,0.6,1,0.8,1.3c0.1,0.2,0.3,0.4,0.5,0.5l0.6,0.2v0.8h-2.2c-0.2,0-0.4-0.2-0.6-0.5s-0.5-0.9-0.8-1.7s-0.7-1.5-1-2
	c-0.2-0.4-0.5-0.8-0.8-1h-2v4.4l1.6,0.2v0.8h-4.6L732.2,477.2z M738.8,471.2c0.4-0.6,0.6-1.3,0.6-2s-0.2-1.3-0.6-1.8
	c-0.6-0.5-1.3-0.7-2.1-0.6c-0.3,0-0.7,0-1,0.1h-0.4v5c0.2,0,0.5,0,1,0h0.9C737.8,471.8,738.3,471.6,738.8,471.2L738.8,471.2z"/>
<path d="M704.8,523.7h1.9l0.3-3.3h-1.9v-0.9h2l0.3-3.4h1.3l-0.4,3.4h2.7l0.3-3.4h1.3l-0.3,3.4h1.9v0.9h-2l-0.3,3.3h1.9v1h-2
	l-0.3,3.3h-1.3l0.3-3.3H708l-0.3,3.3h-1.3l0.3-3.3h-1.8L704.8,523.7z M708.4,520.4l-0.3,3.3h2.7l0.3-3.3H708.4z"/>
<path d="M718.5,527.4c-0.8-0.5-1.5-1.3-1.9-2.1c-0.4-1-0.7-2.1-0.6-3.2c0-1.1,0.2-2.2,0.8-3.2c0.5-0.9,1.2-1.6,2.1-2.1
	c0.9-0.5,1.9-0.8,2.9-0.8s2,0.2,3,0.4l0.5,0.1l-0.2,2.9H724l-0.4-2c-0.2-0.2-0.5-0.3-0.8-0.3c-0.4-0.1-0.9-0.1-1.3-0.1
	c-0.7,0-1.3,0.2-1.8,0.6c-0.6,0.4-1,1-1.2,1.7c-0.3,0.9-0.5,1.8-0.5,2.7s0.1,1.9,0.4,2.7c0.2,0.8,0.6,1.5,1.2,2
	c0.6,0.5,1.3,0.7,2,0.7c0.4,0,0.9,0,1.3-0.2c0.3-0.1,0.5-0.2,0.8-0.4l0.7-1.6l1,0.1l-0.4,2.3c-0.3,0-0.7,0.1-1,0.2
	c-0.4,0.1-0.7,0.2-1.1,0.3c-0.4,0.1-0.9,0.1-1.3,0.1C720.4,528.2,719.4,527.9,718.5,527.4z"/>
<path d="M729,528c-0.4-0.1-0.9-0.2-1.4-0.4c-0.2-0.1-0.5-0.2-0.7-0.2l0.1-2.9h1l0.3,2.1c0.3,0.2,0.6,0.4,0.9,0.5
	c0.4,0.1,0.9,0.2,1.4,0.2c0.7,0,1.3-0.1,1.8-0.5c0.4-0.4,0.7-0.9,0.6-1.5c0-0.4-0.1-0.8-0.3-1.1s-0.6-0.6-0.9-0.8
	c-0.5-0.3-1-0.5-1.6-0.8c-0.5-0.2-1.1-0.5-1.6-0.8s-0.8-0.7-1.2-1.1c-0.3-0.5-0.5-1.1-0.5-1.7c0-0.6,0.2-1.1,0.5-1.6
	s0.8-0.9,1.4-1.1c0.7-0.3,1.4-0.4,2.1-0.4c0.4,0,0.9,0,1.3,0.1c0.4,0.1,0.8,0.2,1.3,0.3c0.2,0.1,0.4,0.1,0.5,0.1l-0.1,2.7h-1l-0.3-2
	c-0.2-0.1-0.4-0.2-0.7-0.3c-0.4-0.1-0.7-0.1-1.1-0.1c-0.6,0-1.2,0.1-1.7,0.5c-0.4,0.3-0.6,0.8-0.6,1.3c0,0.4,0.1,0.8,0.3,1.1
	s0.5,0.5,0.9,0.7c0.3,0.2,0.9,0.5,1.6,0.8c0.6,0.3,1.1,0.6,1.7,0.9c0.4,0.3,0.8,0.6,1.1,1s0.5,1,0.5,1.5c0,0.6-0.2,1.1-0.5,1.6
	c-0.3,0.6-0.8,1-1.4,1.3c-0.7,0.4-1.5,0.5-2.3,0.5C730,528.1,729.5,528.1,729,528z"/>
<path d="M708.2,565h1.8l3.9,11l1,0.2v0.8h-4.2v-0.8l1.3-0.2l-0.8-2.4h-4.7l-0.8,2.4l1.4,0.2v0.8h-3.8v-0.8l1-0.2L708.2,565z
	 M709.2,567.6l-0.4-1.4l-0.4,1.4l-1.6,5.1h4.1L709.2,567.6z"/>
<path d="M716.6,572.9c-0.2,0.1-0.5,0.2-0.7,0.2c-0.3,0.1-0.5,0.1-0.8,0.2l-0.1-0.6c0.4-0.1,0.8-0.2,1.1-0.4c0.4-0.2,0.7-0.4,1-0.6
	l0,0l0.7,0.1v6l1.3,0.1v0.5h-3.8v-0.5l1.4-0.1L716.6,572.9z"/>
<path d="M708.2,614h1.8l3.9,11l1,0.2v0.8h-4.2v-0.8l1.3-0.2l-0.8-2.4h-4.7l-0.8,2.4l1.4,0.2v0.8h-3.8v-0.8l1-0.2L708.2,614z
	 M709.2,616.6l-0.4-1.4l-0.4,1.4l-1.6,5.1h4.1L709.2,616.6z"/>
<path d="M716,626.5c-0.5-0.7-0.7-1.6-0.7-2.4c0-0.6,0.1-1.3,0.4-1.8c0.2-0.5,0.6-0.9,1-1.2s0.9-0.4,1.5-0.4c0.8-0.1,1.5,0.3,2,0.9
	c0.5,0.7,0.7,1.6,0.6,2.4c0,0.6-0.1,1.3-0.4,1.8c-0.2,0.5-0.6,0.9-1,1.2s-0.9,0.4-1.5,0.4C717.2,627.5,716.5,627.2,716,626.5z
	 M719.7,624.1c0-0.7-0.1-1.5-0.3-2.1c-0.2-0.5-0.7-0.8-1.2-0.8s-1,0.3-1.2,0.7c-0.3,0.6-0.4,1.3-0.4,2s0.1,1.5,0.4,2.2
	c0.2,0.5,0.7,0.8,1.2,0.8C719.1,627,719.6,626,719.7,624.1L719.7,624.1z"/>
<path d="M612.9,423.3h1.9l0.3-3.3h-1.9v-1h2l0.3-3.4h1.3l-0.4,3.4h2.7l0.3-3.4h1.3l-0.3,3.4h1.9v1h-2l-0.3,3.3h1.9v1H620l-0.3,3.3
	h-1.3l0.3-3.3H616l-0.3,3.3h-1.4l0.4-3.3h-1.8V423.3z M616.4,420l-0.3,3.3h2.7l0.3-3.3H616.4z"/>
<path d="M625.8,416.7l-1.5-0.2v-0.8h4.7v0.8l-1.5,0.2v10l1.5,0.2v0.8h-4.7v-0.8l1.5-0.2V416.7z"/>
<path d="M632.8,427c-0.8-0.5-1.4-1.3-1.7-2.1c-0.4-1-0.6-2.1-0.6-3.2s0.2-2.2,0.7-3.2c0.4-0.9,1.1-1.6,1.9-2.1
	c0.8-0.5,1.8-0.8,2.7-0.8c1.4-0.1,2.9,0.5,3.8,1.6c0.9,1.2,1.4,2.8,1.3,4.4c0,1.1-0.2,2.3-0.7,3.3c-0.4,0.9-1.1,1.7-2,2.2
	c-0.8,0.5-1.8,0.8-2.8,0.8C634.5,427.8,633.6,427.5,632.8,427z M633.3,417.7c-1.2,2.5-1.2,5.3,0,7.8c0.5,0.9,1.4,1.4,2.4,1.4
	s1.9-0.5,2.5-1.4c0.7-1.2,1-2.6,0.9-4c0.1-1.3-0.2-2.6-0.9-3.8c-0.5-0.9-1.4-1.4-2.5-1.4C634.8,416.4,633.8,416.9,633.3,417.7
	L633.3,417.7z"/>
<path d="M641.2,415.7h4.3v0.8l-1.5,0.2l2.2,7.5l0.5,2.2l0.5-2.2l1.8-6.1l-0.4-1.4l-1.1-0.2v-0.8h4.6v0.8l-1.6,0.2l2.2,7.5l0.5,2.4
	l0.5-2.4l2-7.5l-1.6-0.2v-0.8h3.8v0.8l-1.1,0.2l-3.2,11H652l-2.5-8l-2.4,8h-1.5l-3.4-11l-1.1-0.2L641.2,415.7z"/>
<path d="M617.6,473.6h1.9l0.3-3.3H618v-0.9h2l0.3-3.4h1.3l-0.4,3.4h2.7l0.3-3.4h1.3l-0.4,3.4h1.9v0.9h-2l-0.3,3.3h1.9v1h-2.1
	l-0.3,3.3h-1.4l0.3-3.3h-2.7l-0.3,3.3H619l0.3-3.3h-1.8L617.6,473.6z M621.1,470.3l-0.3,3.3h2.7l0.3-3.3H621.1z"/>
<path d="M630.6,466.9l-1.5-0.2V466h4.7v0.8l-1.5,0.2v10l1.5,0.2v0.8h-4.7v-0.8l1.5-0.2V466.9z"/>
<path d="M637.5,477.3c-0.8-0.5-1.4-1.3-1.7-2.1c-0.4-1-0.6-2.1-0.6-3.2s0.2-2.2,0.7-3.2c0.4-0.9,1.1-1.6,1.9-2.1
	c0.8-0.5,1.8-0.8,2.7-0.8c1.4-0.1,2.9,0.5,3.8,1.6c0.9,1.3,1.4,2.8,1.3,4.4c0,1.1-0.2,2.2-0.7,3.2c-0.4,0.9-1.1,1.7-2,2.2
	c-0.8,0.5-1.8,0.8-2.8,0.8C639.3,478,638.3,477.8,637.5,477.3z M638,468c-1.2,2.5-1.2,5.3,0,7.8c0.8,1.3,2.5,1.8,3.9,1
	c0.4-0.2,0.8-0.6,1-1c0.7-1.2,1-2.6,0.9-4c0.1-1.3-0.2-2.6-0.9-3.8c-0.5-0.9-1.4-1.4-2.5-1.4C639.5,466.6,638.5,467.1,638,468z"/>
<path d="M647,477l1.3-0.2v-10l-1.2-0.2V466h2.1c0.3,0,0.7,0,1.2-0.1s1-0.1,1.2-0.1c1.2-0.1,2.3,0.2,3.3,0.8c0.7,0.6,1.1,1.5,1,2.4
	c0,0.7-0.2,1.5-0.6,2.1c-0.4,0.6-1,1.1-1.7,1.3c0.4,0.2,0.7,0.5,1,0.9c0.3,0.5,0.7,1.1,1.1,1.9c0.3,0.6,0.6,1,0.8,1.3
	s0.3,0.4,0.5,0.5l0.6,0.2v0.8h-2.2c-0.2,0-0.4-0.2-0.6-0.5s-0.5-0.9-0.8-1.7s-0.7-1.5-1-2c-0.2-0.4-0.5-0.7-0.8-1c-1.1,0-1.8,0-2,0
	v4.3l1.6,0.2v0.8H647V477z M653.6,471c0.4-0.6,0.6-1.3,0.6-2c0-0.6-0.2-1.3-0.6-1.8c-0.6-0.5-1.3-0.7-2.1-0.6c-0.3,0-0.7,0-1,0.1
	h-0.4v5h1.9C652.6,471.7,653.1,471.5,653.6,471L653.6,471z"/>
<path class="st2" d="M667.5,421.9h26.1"/>
<path class="st2" d="M667.5,472.2h26.1"/>
<polyline class="st2" points="186.1,33.6 572.5,33.6 572.5,371.6 693.5,371.6 "/>
<polyline class="st2" points="186.1,430.2 487.2,430.2 487.2,571.3 693.5,571.3 "/>
<polyline class="st2" points="186.1,479.1 512.2,479.1 512.2,620.2 693.5,620.2 "/>
<polyline class="st2" points="440.7,382 441.5,382 543.5,382 543.5,522.4 693.5,522.4 "/>
<circle class="st3" cx="437" cy="382" r="3.4"/>
<path class="st4" d="M25.7,17.9c-0.4-0.6-1.1-1.1-1.8-1.3c-0.7-0.3-1.4-0.4-2.1-0.4c-0.8,0-1.6,0.2-2.4,0.5
	c-0.7,0.3-1.3,0.8-1.9,1.3c-0.5,0.6-0.9,1.3-1.2,2c-0.3,0.8-0.4,1.6-0.4,2.5s0.1,1.7,0.4,2.5c0.2,0.7,0.6,1.4,1.2,2
	c0.5,0.5,1.1,1,1.8,1.3c0.8,0.3,1.6,0.5,2.4,0.5s1.7-0.2,2.4-0.5c0.7-0.3,1.3-0.8,1.7-1.4l2.4,1.7c-0.7,0.9-1.7,1.7-2.8,2.2
	c-1.2,0.5-2.5,0.8-3.8,0.8s-2.5-0.3-3.7-0.7c-2.2-0.8-3.9-2.5-4.7-4.7c-0.5-1.2-0.7-2.4-0.7-3.6c0-1.3,0.2-2.5,0.7-3.7
	c0.4-1.1,1.1-2,1.9-2.8c0.8-0.8,1.8-1.4,2.9-1.8c1.2-0.4,2.4-0.6,3.6-0.6c0.6,0,1.1,0.1,1.7,0.1c0.6,0.1,1.2,0.3,1.7,0.5
	s1,0.5,1.5,0.8s0.9,0.7,1.2,1.2L25.7,17.9z"/>
<path class="st4" d="M30.1,14h5.5c0.9,0,1.8,0.1,2.6,0.3c0.7,0.2,1.4,0.5,2,0.9s1,0.9,1.3,1.5c0.3,0.7,0.5,1.5,0.5,2.3
	s-0.2,1.6-0.5,2.4c-0.3,0.6-0.8,1.2-1.4,1.5c-0.6,0.4-1.4,0.7-2.1,0.9c-0.8,0.2-1.7,0.3-2.5,0.3h-2.3v7h-3L30.1,14z M35.3,21.4
	c0.5,0,0.9,0,1.4-0.1c0.4-0.1,0.8-0.2,1.2-0.4c0.3-0.2,0.6-0.4,0.8-0.8s0.3-0.8,0.3-1.3c0.1-0.8-0.4-1.6-1.1-2
	c-0.4-0.2-0.8-0.3-1.2-0.3c-0.4-0.1-0.9-0.1-1.3-0.1h-2.2v4.9L35.3,21.4z"/>
<path class="st4" d="M58.3,24.7c0,0.9-0.2,1.9-0.5,2.8c-0.3,0.8-0.8,1.5-1.4,2.1c-0.6,0.6-1.4,1-2.2,1.3c-1.8,0.6-3.7,0.6-5.4,0
	c-0.8-0.3-1.5-0.7-2.2-1.3c-0.6-0.6-1.1-1.3-1.4-2.1c-0.4-0.9-0.5-1.8-0.5-2.8V14h3v10.6c0,0.5,0.1,1,0.2,1.5
	c0.1,0.5,0.3,0.9,0.6,1.3s0.7,0.7,1.2,0.9c1.2,0.5,2.5,0.5,3.6,0c0.5-0.2,0.9-0.5,1.2-0.9s0.5-0.8,0.6-1.3s0.2-1,0.2-1.5V14h3
	L58.3,24.7z"/>
<path class="st4" d="M406.6,147.7v-11.6h2.6l14.3,6.8v3.4l-14.4-7.1v8.5L406.6,147.7z"/>
<path class="st4" d="M420,126v7.9h-2.5l-10.9-7.2v-3.4h11v-2.4h2.5v2.4h3.5v2.8L420,126L420,126z M409.9,126L409.9,126l7.6,4.8V126
	H409.9z"/>
<path class="st4" d="M410.1,113l2.8,3.4l-2,1.7l-4.3-5.3v-2.6h17v2.9L410.1,113L410.1,113z"/>
<path class="st4" d="M413.5,99.9v-0.8c0-0.4,0-0.9-0.1-1.3s-0.2-0.8-0.4-1.2c-0.2-0.3-0.5-0.6-0.8-0.8c-0.4-0.2-0.8-0.4-1.3-0.3
	c-0.3,0-0.7,0.1-1,0.2s-0.6,0.3-0.8,0.6c-0.2,0.3-0.4,0.5-0.5,0.9c-0.1,0.3-0.2,0.7-0.2,1c0,0.6,0.2,1.3,0.6,1.8s1,0.8,1.6,1
	l-0.7,2.7c-0.6-0.1-1.1-0.4-1.6-0.7c-0.5-0.3-0.9-0.8-1.2-1.2c-0.4-0.5-0.6-1.1-0.8-1.6c-0.2-0.6-0.3-1.3-0.3-1.9
	c0-0.7,0.1-1.4,0.3-2.1c0.2-0.6,0.5-1.2,0.9-1.7s0.9-0.9,1.5-1.2c0.6-0.3,1.3-0.4,2-0.4c0.9,0,1.7,0.3,2.4,0.8
	c0.7,0.6,1.2,1.3,1.4,2.2l0,0c0.2-1,0.7-1.9,1.4-2.5c0.7-0.7,1.7-1,2.7-1c0.8,0,1.6,0.2,2.3,0.5c0.6,0.3,1.2,0.8,1.6,1.3
	c0.4,0.6,0.8,1.2,1,1.9c0.2,0.7,0.3,1.4,0.3,2.1s-0.1,1.3-0.2,2c-0.1,0.6-0.4,1.2-0.7,1.8c-0.3,0.5-0.7,1-1.2,1.4s-1.2,0.8-1.8,1
	l-0.8-2.7c0.7-0.2,1.3-0.6,1.7-1.2c0.5-0.6,0.7-1.4,0.7-2.2c0-0.4-0.1-0.8-0.1-1.1c-0.1-0.4-0.3-0.7-0.5-1s-0.5-0.5-0.9-0.7
	s-0.9-0.3-1.3-0.3c-0.5,0-1,0.1-1.4,0.4s-0.7,0.6-0.9,1c-0.2,0.4-0.4,0.9-0.5,1.3c-0.1,0.5-0.1,0.9-0.1,1.4v0.7L413.5,99.9z"/>
<path class="st4" d="M406.1,83.1c0-0.7,0.1-1.4,0.3-2.1c0.2-0.6,0.5-1.2,0.9-1.7c0.8-1,2.1-1.6,3.4-1.6c0.9,0,1.8,0.2,2.5,0.7
	c0.6,0.5,1.1,1.1,1.4,1.9l0,0c0.1-0.4,0.3-0.9,0.5-1.2c0.5-0.8,1.3-1.4,2.1-1.7c0.5-0.2,1-0.3,1.5-0.3c0.8,0,1.5,0.1,2.2,0.5
	c0.6,0.3,1.2,0.7,1.6,1.3c0.5,0.6,0.8,1.2,1,1.9c0.5,1.5,0.5,3.1,0,4.6c-0.2,0.7-0.5,1.3-1,1.9c-0.4,0.5-1,1-1.6,1.3
	c-0.7,0.3-1.5,0.5-2.2,0.5c-0.5,0-1-0.1-1.5-0.3c-0.5-0.2-0.9-0.4-1.2-0.7c-0.3-0.3-0.6-0.6-0.9-1c-0.2-0.4-0.4-0.8-0.5-1.2l0,0
	c-0.3,0.7-0.7,1.4-1.3,1.9c-0.7,0.5-1.5,0.8-2.4,0.8c-0.7,0-1.4-0.1-2-0.4s-1.1-0.7-1.5-1.2s-0.8-1.1-1-1.7
	C406.2,84.5,406.1,83.8,406.1,83.1z M408.5,83.1c0,0.7,0.2,1.3,0.6,1.8c0.5,0.5,1.1,0.7,1.7,0.7s1.3-0.2,1.8-0.7s0.7-1.1,0.7-1.8
	c0-0.3-0.1-0.7-0.2-1s-0.3-0.6-0.5-0.8c-0.2-0.2-0.5-0.4-0.8-0.5s-0.7-0.2-1-0.2s-0.7,0.1-1,0.2s-0.5,0.3-0.8,0.6
	c-0.2,0.2-0.4,0.5-0.5,0.8C408.5,82.4,408.5,82.7,408.5,83.1L408.5,83.1z M415.8,83.1c0,0.4,0.1,0.8,0.2,1.2
	c0.1,0.3,0.3,0.7,0.6,0.9c0.3,0.3,0.6,0.5,0.9,0.6c0.4,0.2,0.8,0.2,1.2,0.2c0.8,0,1.6-0.3,2.1-0.8c1-1.2,1-3,0-4.2
	c-0.5-0.6-1.3-0.9-2.1-0.8c-0.4,0-0.8,0.1-1.2,0.2c-0.4,0.1-0.7,0.4-0.9,0.6c-0.3,0.3-0.5,0.6-0.6,0.9
	C415.9,82.3,415.8,82.7,415.8,83.1L415.8,83.1z"/>
<path class="st4" d="M833.9,269.5c0.7,0,1.4,0.1,2.1,0.3c0.6,0.2,1.2,0.5,1.7,0.9c1,0.8,1.6,2.1,1.6,3.4c0,0.9-0.2,1.8-0.7,2.5
	s-1.1,1.1-1.9,1.4l0,0c0.4,0.1,0.9,0.3,1.2,0.5c0.8,0.5,1.4,1.3,1.7,2.1c0.2,0.5,0.3,1,0.3,1.5c0,0.8-0.1,1.5-0.5,2.2
	c-0.3,0.6-0.7,1.2-1.3,1.6c-0.6,0.5-1.2,0.8-1.9,1c-1.5,0.4-3.1,0.4-4.6,0c-0.7-0.2-1.3-0.5-1.9-1c-0.5-0.5-1-1-1.3-1.6
	c-0.3-0.7-0.5-1.5-0.5-2.2c0-0.5,0.1-1,0.3-1.5c0.2-0.4,0.4-0.9,0.7-1.2c0.3-0.3,0.6-0.6,1-0.9c0.4-0.2,0.8-0.4,1.2-0.5l0,0
	c-0.7-0.3-1.4-0.7-1.9-1.3c-0.5-0.7-0.8-1.5-0.8-2.4c0-0.7,0.1-1.3,0.4-2c0.3-0.6,0.7-1.1,1.2-1.5s1.1-0.7,1.7-1
	C832.4,269.6,833.1,269.5,833.9,269.5z M833.9,279.2c-0.4,0-0.8,0.1-1.2,0.2c-0.3,0.1-0.7,0.3-0.9,0.6c-0.3,0.3-0.5,0.6-0.6,0.9
	c-0.2,0.4-0.2,0.8-0.2,1.2c0,0.8,0.3,1.6,0.8,2.1c1.2,1,3,1,4.2,0c0.6-0.5,0.9-1.3,0.8-2.1c0-0.4-0.1-0.8-0.2-1.2
	c-0.1-0.4-0.4-0.7-0.6-0.9c-0.3-0.3-0.6-0.5-0.9-0.6C834.6,279.3,834.3,279.2,833.9,279.2L833.9,279.2z M833.9,271.9
	c-0.6,0-1.3,0.2-1.8,0.6c-0.5,0.5-0.7,1.1-0.7,1.7s0.2,1.3,0.7,1.8s1.1,0.7,1.8,0.7c0.3,0,0.7-0.1,1-0.2s0.6-0.3,0.8-0.5
	s0.4-0.5,0.5-0.8s0.2-0.7,0.2-1s-0.1-0.7-0.2-1c-0.1-0.3-0.3-0.5-0.6-0.8c-0.2-0.2-0.5-0.4-0.8-0.5
	C834.5,271.9,834.2,271.9,833.9,271.9L833.9,271.9z"/>
<path class="st4" d="M842.8,284.3l6.6-6.4c0.5-0.5,0.9-1,1.3-1.5c0.3-0.5,0.5-1.2,0.5-1.8c0-0.7-0.3-1.4-0.8-1.9s-1.2-0.7-1.9-0.7
	c-0.8,0-1.5,0.3-2,0.8c-0.5,0.6-0.8,1.3-0.9,2.1l-2.8-0.4c0.1-1.4,0.8-2.6,1.8-3.5c0.5-0.4,1.1-0.8,1.7-1c0.7-0.3,1.4-0.4,2.2-0.4
	c0.7,0,1.4,0.1,2.1,0.3c0.7,0.2,1.3,0.5,1.8,1c0.5,0.4,1,1,1.3,1.6c0.3,0.7,0.5,1.4,0.5,2.1c0,0.5-0.1,1-0.2,1.5
	c-0.1,0.5-0.3,0.9-0.6,1.3s-0.5,0.8-0.9,1.2c-0.3,0.4-0.7,0.7-1.1,1.1l-4.9,4.7h7.7v2.6h-11.3L842.8,284.3L842.8,284.3z"/>
<path class="st4" d="M868,272.5h-7l-0.2,3.7c0.3-0.1,0.7-0.1,1-0.2c0.4,0,0.7,0,1,0c0.8,0,1.6,0.1,2.3,0.4c0.7,0.2,1.3,0.5,1.9,1
	c0.5,0.5,1,1,1.2,1.7c0.3,0.7,0.5,1.5,0.4,2.3c0,0.9-0.1,1.7-0.5,2.5c-0.3,0.7-0.8,1.4-1.3,1.9c-0.6,0.5-1.3,0.9-2,1.2
	c-0.8,0.3-1.6,0.4-2.4,0.4c-1.3,0-2.5-0.3-3.6-1c-1-0.7-1.7-1.6-2.1-2.7l2.6-1c0.2,0.6,0.6,1.2,1.2,1.6c0.6,0.4,1.3,0.6,2,0.6
	c0.4,0,0.8-0.1,1.2-0.2c0.8-0.3,1.4-0.9,1.7-1.6c0.2-0.4,0.3-0.9,0.2-1.4c0-0.6-0.1-1.1-0.3-1.6c-0.2-0.4-0.5-0.7-0.9-1
	s-0.8-0.5-1.2-0.5c-0.4-0.1-0.9-0.2-1.4-0.2c-0.3,0-0.7,0-1,0.1c-0.4,0-0.7,0.1-1.1,0.2c-0.3,0.1-0.7,0.2-1,0.3
	c-0.3,0.1-0.6,0.2-0.9,0.4l0.3-9.3h9.7v2.4H868z"/>
<path class="st4" d="M882.6,272.5h-6.9l-0.2,3.7c0.3-0.1,0.7-0.1,1-0.2c0.4,0,0.7,0,1,0c0.8,0,1.6,0.1,2.3,0.4
	c0.7,0.2,1.3,0.5,1.9,1c0.5,0.5,1,1,1.2,1.7c0.3,0.7,0.5,1.5,0.4,2.3c0,0.9-0.1,1.7-0.5,2.5c-0.3,0.7-0.8,1.4-1.3,1.9
	c-0.6,0.5-1.3,0.9-2,1.2c-0.8,0.3-1.6,0.4-2.4,0.4c-1.3,0-2.5-0.3-3.6-1c-1-0.7-1.7-1.6-2.1-2.7l2.6-1c0.2,0.6,0.6,1.2,1.2,1.6
	c0.6,0.4,1.3,0.6,2,0.6c0.4,0,0.8-0.1,1.2-0.2c0.8-0.3,1.4-0.9,1.7-1.6c0.2-0.4,0.3-0.9,0.2-1.4c0-0.6-0.1-1.1-0.3-1.6
	c-0.2-0.4-0.5-0.7-0.9-1s-0.8-0.5-1.2-0.5c-0.4-0.1-0.9-0.2-1.4-0.2c-0.3,0-0.7,0-1,0.1c-0.4,0-0.7,0.1-1.1,0.2
	c-0.3,0.1-0.7,0.2-1,0.3c-0.3,0.1-0.6,0.2-0.9,0.4l0.3-9.3h9.7L882.6,272.5z"/>
<path class="st4" d="M833.9,606.5c0.7,0,1.4,0.1,2.1,0.3c0.6,0.2,1.2,0.5,1.7,0.9c1,0.8,1.6,2.1,1.6,3.4c0,0.9-0.2,1.8-0.7,2.5
	s-1.1,1.1-1.9,1.4l0,0c0.4,0.1,0.9,0.3,1.2,0.5c0.8,0.5,1.4,1.3,1.7,2.1c0.2,0.5,0.3,1,0.3,1.5c0,0.8-0.1,1.5-0.5,2.2
	c-0.3,0.6-0.7,1.2-1.3,1.7s-1.2,0.8-1.9,1c-1.5,0.4-3.1,0.4-4.6,0c-0.7-0.2-1.3-0.5-1.9-1c-0.5-0.5-1-1-1.3-1.7s-0.5-1.5-0.5-2.2
	c0-0.5,0.1-1,0.3-1.5c0.2-0.4,0.4-0.9,0.7-1.2s0.6-0.6,1-0.9c0.4-0.2,0.8-0.4,1.2-0.5l0,0c-0.7-0.3-1.4-0.7-1.9-1.3
	c-0.5-0.7-0.8-1.5-0.8-2.4c0-0.7,0.1-1.4,0.4-2c0.3-0.6,0.7-1.1,1.2-1.5s1.1-0.7,1.7-1C832.4,606.6,833.1,606.5,833.9,606.5z
	 M833.9,616.2c-0.4,0-0.8,0.1-1.2,0.2c-0.3,0.1-0.7,0.3-0.9,0.6c-0.3,0.3-0.5,0.6-0.6,0.9c-0.2,0.4-0.2,0.8-0.2,1.2
	c0,0.8,0.3,1.6,0.8,2.1c1.2,1,3,1,4.2,0c0.6-0.5,0.9-1.3,0.8-2.1c0-0.4-0.1-0.8-0.2-1.2c-0.1-0.4-0.4-0.7-0.6-0.9
	c-0.3-0.3-0.6-0.5-0.9-0.6C834.6,616.3,834.3,616.2,833.9,616.2L833.9,616.2z M833.9,608.9c-0.6,0-1.3,0.2-1.8,0.6
	c-0.5,0.5-0.7,1.1-0.7,1.7c0,0.6,0.2,1.3,0.7,1.8s1.1,0.7,1.8,0.7c0.3,0,0.7-0.1,1-0.2c0.3-0.1,0.6-0.3,0.8-0.5s0.4-0.5,0.5-0.8
	s0.2-0.7,0.2-1s-0.1-0.7-0.2-1c-0.1-0.3-0.3-0.5-0.6-0.8c-0.2-0.2-0.5-0.4-0.8-0.5C834.5,608.9,834.2,608.9,833.9,608.9L833.9,608.9
	z"/>
<path class="st4" d="M842.8,621.3l6.6-6.4c0.5-0.5,0.9-1,1.3-1.5c0.3-0.5,0.5-1.2,0.5-1.8c0-0.7-0.3-1.4-0.8-1.9s-1.2-0.7-1.9-0.7
	c-0.8,0-1.5,0.3-2,0.8c-0.5,0.6-0.8,1.3-0.9,2.1l-2.8-0.4c0.1-1.4,0.8-2.6,1.8-3.5c0.5-0.4,1.1-0.8,1.7-1c0.7-0.3,1.4-0.4,2.2-0.4
	c0.7,0,1.4,0.1,2.1,0.3c0.7,0.2,1.3,0.5,1.8,1c0.5,0.4,1,1,1.3,1.6c0.3,0.7,0.5,1.4,0.5,2.1c0,0.5-0.1,1-0.2,1.5
	c-0.1,0.5-0.3,0.9-0.6,1.3c-0.3,0.4-0.5,0.8-0.9,1.2c-0.3,0.4-0.7,0.7-1.1,1.1l-4.9,4.7h7.7v2.6h-11.3L842.8,621.3L842.8,621.3z"/>
<path class="st4" d="M868,609.5h-7l-0.2,3.7c0.3-0.1,0.7-0.1,1-0.2c0.4,0,0.7,0,1,0c0.8,0,1.6,0.1,2.3,0.4c0.7,0.2,1.3,0.5,1.9,1
	c0.5,0.5,1,1,1.2,1.7c0.3,0.7,0.5,1.5,0.4,2.3c0,0.9-0.1,1.7-0.5,2.5c-0.3,0.7-0.8,1.4-1.3,1.9c-0.6,0.5-1.3,0.9-2,1.2
	c-0.8,0.3-1.6,0.4-2.4,0.4c-1.3,0-2.5-0.3-3.6-1c-1-0.7-1.7-1.6-2.1-2.7l2.6-1c0.2,0.6,0.6,1.2,1.2,1.6c0.6,0.4,1.3,0.6,2,0.6
	c0.4,0,0.8-0.1,1.2-0.2c0.8-0.3,1.4-0.9,1.7-1.7c0.2-0.4,0.3-0.9,0.2-1.4c0-0.6-0.1-1.1-0.3-1.6c-0.2-0.4-0.5-0.7-0.9-1
	s-0.8-0.5-1.2-0.5c-0.4-0.1-0.9-0.2-1.4-0.2c-0.3,0-0.7,0-1,0.1c-0.4,0-0.7,0.1-1.1,0.2c-0.3,0.1-0.7,0.2-1,0.3s-0.6,0.2-0.9,0.4
	l0.3-9.3h9.7v2.5H868z"/>
<path class="st4" d="M875.6,613.9h0.8c0.4,0,0.9,0,1.3-0.1c0.4-0.1,0.8-0.2,1.2-0.4c0.8-0.4,1.2-1.2,1.2-2.1c0-0.3-0.1-0.7-0.2-1
	c-0.1-0.3-0.3-0.6-0.6-0.8s-0.5-0.4-0.9-0.5c-0.3-0.1-0.7-0.2-1-0.2c-0.6,0-1.3,0.2-1.8,0.6c-0.5,0.4-0.8,1-1,1.6l-2.7-0.7
	c0.1-0.6,0.4-1.1,0.7-1.6s0.8-0.9,1.2-1.2c0.5-0.4,1.1-0.6,1.6-0.8c0.6-0.2,1.3-0.3,1.9-0.3c0.7,0,1.4,0.1,2.1,0.3
	c0.6,0.2,1.2,0.5,1.7,0.9s0.9,0.9,1.2,1.5s0.4,1.3,0.4,2c0,0.9-0.3,1.7-0.8,2.4c-0.6,0.7-1.3,1.2-2.2,1.4l0,0c1,0.2,1.9,0.7,2.5,1.4
	c0.7,0.7,1,1.7,1,2.7c0,1.5-0.6,3-1.9,3.9c-0.6,0.4-1.2,0.8-1.9,1s-1.4,0.3-2.1,0.3c-0.7,0-1.3-0.1-2-0.2c-0.6-0.1-1.2-0.4-1.8-0.7
	c-0.5-0.3-1-0.8-1.4-1.2c-0.4-0.5-0.7-1.2-1-1.8l2.7-0.8c0.2,0.7,0.6,1.3,1.2,1.7c0.6,0.5,1.4,0.7,2.2,0.7c0.4,0,0.8-0.1,1.1-0.2
	c0.4-0.1,0.7-0.3,1-0.5c0.7-0.5,1-1.3,1-2.2c0-0.5-0.1-1-0.4-1.4c-0.3-0.4-0.6-0.7-1-0.9s-0.9-0.4-1.3-0.5c-0.5-0.1-0.9-0.1-1.4-0.1
	h-0.7L875.6,613.9z"/>
<path d="M934.6,427.4c-0.8-0.5-1.5-1.3-1.9-2.1c-0.4-1-0.7-2.1-0.6-3.2c0-1.1,0.2-2.2,0.8-3.2c0.5-0.9,1.2-1.6,2.1-2.1
	c0.9-0.5,1.9-0.8,3-0.8c1,0,2,0.2,3,0.4l0.5,0.1l-0.2,2.9h-1.1l-0.4-2c-0.2-0.2-0.5-0.3-0.8-0.3c-0.4-0.1-0.9-0.1-1.4-0.1
	c-0.7,0-1.3,0.2-1.8,0.6c-0.6,0.4-1,1-1.3,1.7c-0.3,0.9-0.5,1.8-0.5,2.7c0,0.9,0.1,1.9,0.4,2.7c0.2,0.8,0.6,1.5,1.2,2
	c0.6,0.5,1.3,0.7,2,0.7c0.4,0,0.9,0,1.3-0.1c0.3-0.1,0.6-0.2,0.8-0.4l0.7-1.6l1,0.1l-0.4,2.3c-0.3,0-0.7,0.1-1,0.2
	c-0.4,0.1-0.7,0.2-1.1,0.3c-0.4,0.1-0.9,0.1-1.3,0.1C936.6,428.2,935.5,427.9,934.6,427.4z"/>
<path d="M944.1,417l-1.3-0.2V416h4.6v0.8l-1.6,0.2v10l4.1-0.1l1-2.7l1,0.1l-0.6,3.6h-8.5v-0.8l1.3-0.2V417z"/>
<path d="M960.8,427.3c-0.3-0.4-0.7-1.1-1.2-2c-0.1-0.1-0.2-0.4-0.5-1s-0.6-1-0.8-1.3s-0.4-0.6-0.7-0.9l-1.6,1.8v3.1l1.5,0.2v0.8H953
	v-0.8l1.3-0.2v-10l-1.3-0.2V416h4.4v0.8L956,417v5.6l4.7-5.6l-1.3-0.2V416h4v0.8L962,417l-3.5,3.9c0.5,0.4,0.9,0.9,1.2,1.4
	c0.4,0.6,0.9,1.4,1.5,2.4s0.9,1.4,1.1,1.8s0.4,0.5,0.6,0.6l0.8,0.2v0.8h-2.3C961.3,427.9,961.1,427.7,960.8,427.3z"/>
<path d="M969.4,418.8c0.4-1,1-1.9,1.7-2.7c0.4-0.5,1-1,1.5-1.4l0.7,0.5c-0.5,0.4-0.9,0.8-1.2,1.3c-0.6,0.8-1,1.6-1.3,2.5
	c-0.4,1.2-0.6,2.4-0.6,3.7c0,1.3,0.2,2.5,0.6,3.8c0.3,0.9,0.7,1.8,1.3,2.6c0.3,0.5,0.8,1,1.2,1.4l-0.7,0.5c-0.6-0.4-1.1-0.8-1.6-1.3
	c-0.7-0.8-1.3-1.7-1.7-2.7c-0.5-1.3-0.8-2.8-0.8-4.2C968.6,421.3,968.9,420,969.4,418.8z"/>
<path d="M977.9,425.4c0.8-0.6,1.4-1.4,2-2.2c0.4-0.6,0.7-1.4,0.7-2.2c0-0.5-0.2-1-0.5-1.4c-0.4-0.4-0.9-0.6-1.5-0.5
	c-0.5,0-1.1,0.1-1.6,0.4c-0.4,0.2-0.8,0.5-1.2,0.9l-0.5-0.7c0.5-0.5,1-0.9,1.6-1.2c0.7-0.4,1.5-0.5,2.2-0.5s1.3,0.1,1.9,0.4
	c0.5,0.2,0.9,0.6,1.1,1.1c0.2,0.4,0.4,0.9,0.4,1.4c-0.1,1.2-0.6,2.4-1.5,3.3c-1.1,1.2-2.4,2.2-3.8,3l5-0.4l0.6-1.4l0.8,0.2l-0.4,2.5
	h-7.6l-0.2-0.7C976.2,426.7,977.1,426.1,977.9,425.4z"/>
<path d="M986.6,417l-1.7-0.2V416h4.2l2.2,7.2l0.5,2l0.5-2l2.2-7.2h4.2v0.8l-1.8,0.2l1.3,9.9l1.4,0.2v0.8H995v-0.8l1.5-0.2l-0.7-7.2
	l-0.3-3.1l-0.7,2.3l-2.7,8.4h-1l-2.6-7.7l-1-3l-0.3,3.1l-0.6,7.2l1.6,0.2v0.8H984v-0.8l1.4-0.2L986.6,417z"/>
<path d="M1001.9,417l-1.3-0.2V416h4.3v0.8l-1.4,0.2v4.3h5.6V417l-1.3-0.2V416h4.3v0.8l-1.2,0.2v10l1.3,0.2v0.8h-4.3v-0.8l1.3-0.2
	v-4.7h-5.6v4.7l1.4,0.2v0.8h-4.4v-0.8l1.3-0.2L1001.9,417z"/>
<path d="M1015.4,420.1l-0.3,1.5h-1v-2.5h6.8l0.3,0.7l-4.7,6.3l-1.1,1l4.3-0.1l0.7-1.8l0.9,0.1l-0.3,2.7h-7.2l-0.3-0.7l4.8-6.2l1-1
	H1015.4z"/>
<path d="M1027,426.8c-0.4,1-1,1.9-1.7,2.7c-0.4,0.5-1,1-1.5,1.4l-0.7-0.5c0.5-0.4,0.9-0.8,1.2-1.3c0.5-0.8,1-1.6,1.3-2.5
	c0.4-1.2,0.6-2.4,0.6-3.7c0-1.3-0.2-2.5-0.6-3.8c-0.3-0.9-0.7-1.8-1.3-2.6c-0.3-0.5-0.8-1-1.2-1.4l0.7-0.5c0.6,0.4,1.1,0.8,1.5,1.3
	c0.7,0.8,1.3,1.7,1.7,2.7c0.5,1.3,0.8,2.8,0.8,4.2C1027.8,424.3,1027.5,425.6,1027,426.8z"/>
<path class="st2" d="M894.6,421.9h27.2"/>
<path d="M932.6,28l-1.2-0.2V27h2.1c0.3,0,0.8,0,1.4-0.1s1.1-0.1,1.4-0.1c1.6-0.1,3.2,0.4,4.4,1.5c1,1.2,1.5,2.7,1.5,4.2
	c0,1.2-0.2,2.4-0.7,3.4c-0.5,0.9-1.2,1.7-2.1,2.3c-0.9,0.6-2,0.8-3.1,0.8c-0.3,0-0.7,0-1.3-0.1s-1.1-0.1-1.4-0.1h-2.2V38l1.3-0.2V28
	H932.6z M935.8,38.1h0.5c1.6,0,3-0.9,3.5-2.4c0.4-0.9,0.5-1.9,0.5-2.9c0.1-1.4-0.3-2.7-1.1-3.8c-0.8-0.9-2.1-1.4-3.3-1.3
	c-0.3,0-0.7,0-1.1,0.1c-0.2,0-0.3,0-0.5,0V38C934.8,38.1,935.3,38.2,935.8,38.1L935.8,38.1z"/>
<path d="M944.4,37.8c-0.7-1-1.1-2.2-1-3.4c0-0.8,0.2-1.7,0.5-2.5c0.3-0.7,0.8-1.2,1.5-1.6s1.4-0.6,2.2-0.6c0.8-0.1,1.7,0.2,2.3,0.8
	c0.6,0.6,0.9,1.5,0.9,2.4c0,0.5,0,1-0.1,1.5h-5.5c0,0.9,0.2,1.8,0.7,2.5s1.2,1,2,1c0.5,0,0.9-0.1,1.3-0.2c0.4-0.1,0.8-0.3,1.1-0.5
	l0.3,0.7c-0.4,0.4-0.9,0.7-1.4,0.8c-0.6,0.2-1.2,0.4-1.9,0.4C946.2,39.2,945.1,38.7,944.4,37.8z M949,33.6c0-0.2,0-0.5,0-0.7
	c0-0.6-0.1-1.2-0.4-1.6c-0.3-0.4-0.8-0.6-1.3-0.6c-0.6,0-1.1,0.2-1.5,0.7c-0.4,0.7-0.7,1.5-0.6,2.2H949z"/>
<path d="M953.5,38.7c-0.3-0.4-0.5-0.9-0.5-1.4v-6.1h-1.2v-0.7l0.4-0.1c0.2,0,0.3-0.1,0.5-0.2s0.3-0.3,0.4-0.6c0.1-0.3,0.2-0.7,0.3-1
	l0.2-0.8h1V30h2.7v1.1h-2.7V36c0,0.4,0,0.9,0,1.3c0,0.2,0.1,0.4,0.2,0.5c0.2,0.1,0.4,0.1,0.6,0.1c0.3,0,0.7,0,1-0.1s0.5-0.1,0.8-0.2
	l0.2,0.7c-0.4,0.2-0.8,0.4-1.2,0.6c-0.5,0.2-1,0.3-1.6,0.3C954.3,39.1,953.9,39,953.5,38.7z"/>
<path d="M959.6,37.8c-0.7-1-1.1-2.2-1-3.4c0-0.8,0.2-1.7,0.5-2.5c0.3-0.7,0.8-1.2,1.5-1.6s1.4-0.6,2.2-0.6c0.8-0.1,1.7,0.2,2.3,0.8
	c0.6,0.6,0.9,1.5,0.9,2.4c0,0.5,0,1-0.1,1.5h-5.5c0,0.9,0.2,1.8,0.7,2.5s1.2,1,2,1c0.5,0,0.9-0.1,1.3-0.2c0.4-0.1,0.8-0.3,1.1-0.5
	l0.3,0.7c-0.4,0.4-0.9,0.7-1.4,0.8c-0.6,0.2-1.2,0.4-1.8,0.4C961.4,39.2,960.3,38.7,959.6,37.8z M964.2,33.6c0-0.2,0-0.5,0-0.7
	c0-0.6-0.1-1.1-0.4-1.6c-0.3-0.4-0.8-0.6-1.3-0.6c-0.6,0-1.1,0.2-1.5,0.7c-0.4,0.7-0.7,1.5-0.6,2.2H964.2z"/>
<path d="M967.6,32.2c0.3-0.7,0.9-1.3,1.5-1.7c1.1-0.6,2.4-0.8,3.6-0.5c0.3,0.1,0.7,0.2,1.2,0.4l-0.1,2.5h-1l-0.3-1.6
	c-0.1-0.3-0.5-0.5-1.2-0.5s-1.4,0.3-1.8,0.9c-0.5,0.8-0.7,1.7-0.7,2.6c-0.1,1,0.2,2,0.7,2.9c0.4,0.6,1.1,1,1.9,1
	c0.4,0,0.9-0.1,1.3-0.2c0.4-0.1,0.7-0.3,1-0.5l0.3,0.6c-0.4,0.4-0.8,0.6-1.3,0.8s-1.1,0.4-1.7,0.4c-0.8,0-1.6-0.2-2.2-0.6
	c-0.6-0.4-1.1-1-1.4-1.6c-0.3-0.7-0.5-1.5-0.5-2.3C967.1,33.7,967.3,32.9,967.6,32.2z"/>
<path d="M976.9,38.7c-0.3-0.4-0.5-0.9-0.5-1.4v-6.1h-1.2v-0.7l0.5-0.1c0.2,0,0.3-0.1,0.5-0.2s0.3-0.3,0.4-0.6c0.1-0.3,0.2-0.7,0.3-1
	c0.1-0.5,0.2-0.7,0.2-0.8h0.9V30h2.7v1.1H978V36c0,0.4,0,0.9,0.1,1.3c0,0.2,0.1,0.4,0.2,0.5c0.2,0.1,0.4,0.1,0.6,0.1
	c0.3,0,0.7,0,1-0.1s0.5-0.1,0.8-0.2l0.2,0.7c-0.4,0.2-0.8,0.4-1.2,0.6c-0.5,0.2-1,0.3-1.6,0.3C977.8,39.1,977.3,39,976.9,38.7z"/>
<path d="M982.6,32c0.7-1.3,2.1-2.2,3.6-2.2c1.1-0.1,2.3,0.4,3,1.3c0.7,1,1.1,2.2,1,3.4c0,0.9-0.2,1.7-0.6,2.5
	c-0.4,0.7-0.9,1.2-1.6,1.6c-0.6,0.4-1.4,0.6-2.1,0.5c-1.1,0.1-2.3-0.4-3-1.3c-0.7-1-1.1-2.2-1-3.4C982,33.6,982.2,32.8,982.6,32z
	 M987.9,37.3c0.4-0.8,0.6-1.8,0.6-2.7c0-1-0.1-1.9-0.5-2.8c-0.3-0.6-1-1-1.7-1s-1.3,0.3-1.7,0.9c-0.5,0.8-0.7,1.8-0.6,2.7
	c0,1,0.1,1.9,0.6,2.8c0.3,0.6,1,1,1.7,1C986.9,38.2,987.5,37.9,987.9,37.3L987.9,37.3z"/>
<path d="M991.8,38.2l1.2-0.1v-6.8l-1.2-0.3v-0.9l2.2-0.3l0,0l0.4,0.3v0.3v1.2l0,0c0.2-0.3,0.4-0.5,0.6-0.7c0.3-0.3,0.7-0.6,1.1-0.8
	c0.4-0.2,0.9-0.4,1.4-0.4c0.2,0,0.4,0,0.5,0.1v1.8c-0.1-0.1-0.2-0.1-0.4-0.1s-0.4-0.1-0.6-0.1c-0.9,0-1.7,0.3-2.5,0.8V38l2,0.1v0.8
	h-4.9v-0.7H991.8z"/>
<path d="M1000.2,29.8c0.4-1,1-1.9,1.7-2.7c0.4-0.5,1-1,1.5-1.4l0.7,0.5c-0.5,0.4-0.9,0.8-1.2,1.3c-0.5,0.8-1,1.6-1.3,2.5
	c-0.4,1.2-0.6,2.4-0.6,3.7s0.2,2.5,0.6,3.8c0.3,0.9,0.7,1.8,1.3,2.6c0.3,0.5,0.8,1,1.2,1.3l-0.7,0.5c-0.6-0.4-1.1-0.8-1.5-1.3
	c-0.7-0.8-1.3-1.7-1.7-2.7c-0.5-1.3-0.8-2.8-0.8-4.2C999.4,32.3,999.7,31,1000.2,29.8z"/>
<path d="M1007.3,37.7c-0.7-1.1-1.1-2.4-1-3.7c0-0.9,0.2-1.9,0.6-2.7c0.3-0.7,0.9-1.4,1.6-1.8c0.6-0.4,1.4-0.6,2.2-0.6
	c1.2-0.1,2.3,0.4,3,1.3c0.7,1.1,1.1,2.4,1,3.7c0,0.9-0.2,1.9-0.5,2.7c-0.3,0.7-0.9,1.4-1.5,1.8c-0.6,0.4-1.4,0.7-2.2,0.7
	C1009.1,39.2,1008,38.6,1007.3,37.7z M1012.8,34c0.1-1.1-0.1-2.2-0.5-3.2c-0.3-0.7-1-1.2-1.8-1.1c-0.8,0-1.5,0.4-1.8,1.1
	c-0.4,1-0.6,2-0.6,3c0,1.1,0.1,2.2,0.6,3.2c0.3,0.8,1,1.2,1.8,1.2C1012,38.3,1012.8,36.8,1012.8,34z"/>
<path d="M1018.2,33.3c0.4-0.3,0.9-0.4,1.5-0.4c0.3,0,0.6,0.1,0.9,0.2c0.3,0.2,0.6,0.3,0.9,0.6c0.2,0.2,0.4,0.3,0.6,0.4
	c0.2,0.1,0.4,0.1,0.6,0.1c0.7,0,1.3-0.4,1.6-0.9l0.6,0.7c-0.2,0.4-0.6,0.8-1,1c-0.4,0.3-0.9,0.4-1.4,0.4c-0.3,0-0.6-0.1-0.9-0.2
	c-0.3-0.2-0.6-0.3-0.8-0.5s-0.4-0.3-0.6-0.5c-0.2-0.1-0.4-0.2-0.6-0.2c-0.7,0-1.3,0.4-1.7,0.9l-0.6-0.7
	C1017.5,33.9,1017.8,33.6,1018.2,33.3z"/>
<path d="M1029.2,41.2c0.6-1.3,1.1-2.5,1.7-3.8s1.3-3.1,2.2-5.4l0.8-1.9l-4.7,0.1l-0.7,2.1l-1-0.2l0.3-3.2h7.3l0.3,0.4
	c-0.5,1.5-1.3,3.5-2.2,6.2c-0.9,2.6-1.6,4.7-2.2,6.2L1029.2,41.2z"/>
<path d="M1041.1,37.8c-0.4,1-1,1.9-1.7,2.7c-0.4,0.5-1,1-1.6,1.4l-0.7-0.5c0.5-0.4,0.9-0.8,1.2-1.3c0.5-0.8,1-1.6,1.3-2.5
	c0.4-1.2,0.6-2.4,0.6-3.7s-0.2-2.5-0.6-3.8c-0.3-0.9-0.7-1.8-1.3-2.6c-0.3-0.5-0.8-1-1.2-1.4l0.7-0.5c0.6,0.4,1.1,0.8,1.6,1.3
	c0.7,0.8,1.3,1.7,1.7,2.7c0.5,1.3,0.8,2.8,0.8,4.2C1041.9,35.3,1041.6,36.6,1041.1,37.8z"/>
<path d="M933.6,79l-1.3-0.2V78h2.2c0.4,0,0.8,0,1.4-0.1c0.5,0,0.9-0.1,1.1-0.1c1.1-0.1,2.2,0.1,3.2,0.7c0.7,0.5,1,1.2,1,2
	c0,0.7-0.2,1.4-0.7,2c-0.5,0.5-1.1,0.9-1.8,1c0.9-0.1,1.7,0.2,2.4,0.7c0.6,0.5,0.9,1.3,0.9,2.1c0,1-0.4,2-1.2,2.7
	c-1.1,0.8-2.4,1.1-3.8,1c-0.4,0-0.8,0-1.1-0.1h-1.5h-2.1v-0.8l1.3-0.2L933.6,79z M936.2,83.3h0.9c0.6,0,1.3-0.2,1.7-0.6
	c0.4-0.5,0.6-1.1,0.6-1.8c0.1-0.6-0.2-1.2-0.6-1.6c-0.6-0.4-1.3-0.6-2-0.5c-0.4,0-0.8,0-1.2,0.1h-0.3v4.5
	C935.5,83.3,935.8,83.3,936.2,83.3L936.2,83.3z M937,89.1c0.8,0.1,1.7-0.2,2.3-0.7c0.5-0.5,0.7-1.2,0.7-1.9c0.1-0.7-0.2-1.3-0.6-1.8
	c-0.6-0.4-1.3-0.6-2-0.6c-1.1,0-1.8,0-2.1,0V89C935.9,89.1,936.4,89.2,937,89.1L937,89.1z"/>
<path d="M949.8,89.9c-0.2-0.2-0.2-0.4-0.2-0.6v-0.5c-0.4,0.4-0.8,0.7-1.3,0.9c-0.5,0.3-1,0.4-1.6,0.4c-0.8,0.1-1.6-0.2-2.1-0.8
	c-0.5-0.8-0.7-1.7-0.6-2.6V82l-0.9-0.3V81l2.2-0.2l0,0l0.3,0.2v5.5c0,0.5,0,1,0.1,1.4c0.1,0.3,0.2,0.6,0.5,0.8
	c0.3,0.2,0.6,0.3,1,0.2c0.4,0,0.8-0.1,1.2-0.3c0.4-0.2,0.7-0.4,1-0.6v-6l-1.2-0.3V81l2.4-0.2l0,0L951,81v8.1h1v0.7
	c-0.3,0.1-0.5,0.1-0.8,0.2c-0.3,0-0.5,0.1-0.8,0.1C950.3,90.1,950.1,90,949.8,89.9z"/>
<path d="M954.7,89.7c-0.3-0.4-0.5-0.9-0.5-1.4v-6.1H953v-0.7l0.4-0.1c0.2,0,0.3-0.1,0.5-0.2s0.3-0.3,0.4-0.6c0.1-0.3,0.2-0.7,0.3-1
	l0.2-0.8h1V81h2.7v1.1H956V87c0,0.4,0,0.9,0,1.3c0,0.2,0.1,0.4,0.2,0.5c0.2,0.1,0.4,0.1,0.6,0.1c0.3,0,0.7,0,1-0.1s0.5-0.1,0.8-0.2
	l0.2,0.7c-0.4,0.2-0.8,0.4-1.2,0.6c-0.5,0.2-1,0.3-1.6,0.3C955.6,90.1,955.1,90,954.7,89.7z"/>
<path d="M961.2,89.7c-0.3-0.4-0.5-0.9-0.5-1.4v-6.1h-1.2v-0.7l0.5-0.1c0.2,0,0.3-0.1,0.5-0.2s0.3-0.3,0.4-0.6c0.1-0.3,0.2-0.7,0.3-1
	c0.1-0.4,0.2-0.7,0.2-0.8h1V81h2.7v1.1h-2.7V87c0,0.4,0,0.9,0.1,1.3c0,0.2,0.1,0.4,0.2,0.5c0.2,0.1,0.4,0.1,0.6,0.1
	c0.3,0,0.7,0,1-0.1s0.5-0.1,0.8-0.2l0.2,0.7c-0.4,0.2-0.8,0.4-1.2,0.6c-0.5,0.2-1,0.3-1.6,0.3C962.1,90.1,961.6,90,961.2,89.7z"/>
<path d="M967,83c0.7-1.3,2.1-2.2,3.6-2.2c1.1-0.1,2.3,0.4,3,1.3c0.7,1,1.1,2.2,1,3.4c0,0.9-0.2,1.8-0.6,2.5
	c-0.4,0.7-0.9,1.2-1.6,1.6c-0.6,0.4-1.3,0.6-2.1,0.6c-1.1,0.1-2.3-0.4-3-1.3c-0.7-1-1.1-2.2-1-3.4C966.4,84.6,966.6,83.8,967,83z
	 M972.2,88.3c0.4-0.8,0.7-1.8,0.6-2.7c0-1-0.1-1.9-0.5-2.8c-0.3-0.6-1-1-1.7-1s-1.3,0.3-1.7,0.9c-0.5,0.8-0.7,1.8-0.6,2.7
	c0,1,0.1,1.9,0.6,2.8c0.3,0.6,1,1,1.8,1C971.2,89.2,971.9,88.9,972.2,88.3L972.2,88.3z"/>
<path d="M977,82.3l-1.1-0.3v-0.9l2.3-0.3l0,0l0.3,0.3v1.1c0.5-0.4,1-0.7,1.5-0.9c0.6-0.3,1.2-0.4,1.8-0.4c0.5,0,1.1,0.1,1.6,0.4
	c0.4,0.3,0.7,0.7,0.8,1.2c0.2,0.7,0.2,1.4,0.2,2.1V89l1.1,0.1v0.8h-3.8v-0.8l1-0.1v-4.5c0-0.5,0-1-0.1-1.5c-0.1-0.3-0.2-0.6-0.5-0.8
	c-0.3-0.2-0.6-0.3-1-0.3s-0.8,0.1-1.2,0.3c-0.4,0.2-0.8,0.4-1.2,0.7V89l1.1,0.2V90H976v-0.8l1-0.2V82.3z"/>
<path d="M934.7,129l-1.3-0.2V128h4.6v0.8l-1.6,0.2v10l4.1-0.1l1-2.7l1,0.1l-0.6,3.6h-8.5v-0.8l1.3-0.2V129z"/>
<path d="M945,129l-1.5-0.2V128h4.7v0.8l-1.5,0.2v10l1.5,0.2v0.8h-4.7v-0.8l1.5-0.2V129z"/>
<path d="M952.4,139.4c-0.8-0.5-1.5-1.2-1.9-2.1c-0.9-2.1-0.9-4.4,0.1-6.4c0.5-0.9,1.2-1.7,2.2-2.1c1-0.5,2-0.7,3.1-0.7
	c1.3,0,2.5,0.2,3.7,0.5l-0.1,2.8h-1.1l-0.4-1.9c-0.2-0.2-0.5-0.3-0.8-0.3c-0.5-0.1-1-0.2-1.4-0.2c-0.7,0-1.4,0.2-2.1,0.6
	c-0.6,0.4-1.1,1-1.4,1.7c-0.4,0.9-0.5,1.8-0.5,2.8c0,0.9,0.1,1.8,0.4,2.7c0.2,0.8,0.7,1.5,1.2,2c0.6,0.5,1.3,0.8,2.1,0.7
	c0.5,0,1-0.1,1.5-0.2c0.4-0.1,0.7-0.3,1.1-0.5V135l-2-0.2v-0.9h4.7v0.9l-0.9,0.1v4.3c-0.4,0-0.8,0.1-1.2,0.3c-0.5,0.2-1,0.3-1.6,0.4
	c-0.5,0.1-1.1,0.2-1.6,0.1C954.3,140.1,953.3,139.9,952.4,139.4z"/>
<path d="M963.1,129l-1.3-0.2V128h4.3v0.8l-1.4,0.2v4.3h5.6V129l-1.3-0.2V128h4.3v0.8L972,129v10l1.3,0.2v0.8H969v-0.8l1.3-0.2v-4.7
	h-5.6v4.7l1.4,0.2v0.8h-4.4v-0.8l1.3-0.2L963.1,129z"/>
<path d="M978.9,128.9l-2.8,0.1l-0.6,3.3h-1.1l0.3-4.3h10l0.2,4.3h-1l-0.6-3.3l-2.8-0.1V139l2.3,0.2v0.8h-6.1v-0.8l2.1-0.2
	L978.9,128.9z"/>
<path d="M935.7,478c-0.4-0.1-0.9-0.2-1.4-0.4c-0.2-0.1-0.5-0.2-0.7-0.2l0.1-2.9h1l0.3,2.1c0.3,0.2,0.6,0.4,0.9,0.5
	c0.4,0.1,0.9,0.2,1.3,0.2c0.7,0,1.3-0.1,1.8-0.5c0.4-0.4,0.7-0.9,0.6-1.5c0-0.4-0.1-0.8-0.3-1.1c-0.2-0.3-0.6-0.6-0.9-0.8
	c-0.5-0.3-1-0.5-1.6-0.8c-0.5-0.2-1.1-0.5-1.6-0.8s-0.8-0.7-1.2-1.1c-0.3-0.5-0.5-1.1-0.5-1.7s0.2-1.1,0.5-1.6s0.8-0.9,1.4-1.1
	c0.7-0.3,1.4-0.4,2.1-0.4c0.4,0,0.9,0,1.3,0.1c0.4,0.1,0.8,0.2,1.3,0.3c0.2,0.1,0.4,0.1,0.5,0.1l-0.1,2.7h-1l-0.3-2
	c-0.2-0.1-0.4-0.2-0.7-0.3c-0.4-0.1-0.7-0.1-1.1-0.1c-0.6,0-1.2,0.1-1.7,0.5c-0.4,0.3-0.6,0.8-0.6,1.3c0,0.4,0.1,0.8,0.3,1.1
	c0.2,0.3,0.5,0.5,0.9,0.7c0.3,0.2,0.9,0.5,1.6,0.8c0.6,0.3,1.1,0.6,1.7,0.9c0.4,0.3,0.8,0.6,1.1,1s0.5,1,0.5,1.5
	c0,0.6-0.2,1.1-0.5,1.6c-0.3,0.6-0.8,1-1.4,1.3c-0.7,0.4-1.5,0.5-2.3,0.5C936.7,478.1,936.2,478.1,935.7,478z"/>
<path d="M944.2,467l-1.2-0.2V466h2.1c0.4,0,0.8,0,1.1,0c0.6,0,1.1-0.1,1.6-0.1c1.2-0.1,2.3,0.2,3.3,0.9c0.7,0.7,1.1,1.6,1,2.6
	c0,0.8-0.2,1.6-0.6,2.2c-0.4,0.6-1,1.1-1.7,1.4c-0.8,0.3-1.6,0.5-2.4,0.5c-0.3,0-0.6,0-1,0h-0.6v3.5l2.2,0.2v0.8h-5.2v-0.8l1.3-0.2
	L944.2,467z M947.4,472.6c0.8,0,1.5-0.2,2-0.8c0.6-0.7,0.9-1.6,0.8-2.5c0.1-0.7-0.2-1.5-0.7-2c-0.6-0.4-1.4-0.7-2.2-0.6
	c-0.4,0-0.7,0-1.1,0.1h-0.5v5.7C946.4,472.6,946.9,472.6,947.4,472.6L947.4,472.6z"/>
<path d="M954.5,467l-1.3-0.2V466h8.1l0.2,2.5h-0.9l-0.5-1.5l-4-0.1v4.5h2.7l0.2-1.3h0.9v3.7H959l-0.2-1.4h-2.7v4.7l4.5-0.2l0.8-2
	l1,0.3l-0.5,2.8H953v-0.8l1.3-0.2L954.5,467z"/>
<path d="M967.5,466h1.8l3.9,11l1,0.2v0.8H970v-0.8l1.3-0.2l-0.8-2.4h-4.7L965,477l1.4,0.2v0.8h-3.8v-0.8l1-0.2L967.5,466z
	 M968.5,468.6l-0.4-1.4l-0.4,1.4l-1.6,5.1h4.1L968.5,468.6z"/>
<path d="M982.6,477.3c-0.3-0.4-0.7-1.1-1.2-2c-0.1-0.1-0.2-0.4-0.5-1s-0.6-1-0.8-1.3s-0.4-0.6-0.7-0.9l-1.6,1.8v3.1l1.5,0.2v0.8
	h-4.5v-0.8l1.3-0.2v-10l-1.3-0.2V466h4.3v0.8l-1.3,0.2v5.6l4.7-5.6l-1.3-0.2V466h3.9v0.8l-1.2,0.2l-3.5,3.9c0.5,0.4,0.9,0.9,1.2,1.4
	c0.4,0.6,0.9,1.4,1.5,2.4s0.9,1.4,1.2,1.8s0.4,0.5,0.6,0.6l0.8,0.2v0.8h-2.3C983.1,477.9,982.8,477.7,982.6,477.3z"/>
<path d="M987.6,467l-1.3-0.2V466h8.2l0.2,2.5h-0.9l-0.5-1.5l-4-0.1v4.5h2.7l0.2-1.3h0.9v3.7h-0.9l-0.2-1.4h-2.7v4.7l4.5-0.2l0.8-2
	l0.9,0.3L995,478h-8.9v-0.8l1.3-0.2L987.6,467z"/>
<path d="M996.7,477.2l1.3-0.2v-10l-1.2-0.2V466h2.1c0.3,0,0.7,0,1.2-0.1s1-0.1,1.2-0.1c1.2-0.1,2.3,0.2,3.3,0.8
	c0.7,0.6,1.1,1.5,1,2.4c0,0.7-0.2,1.5-0.6,2.1c-0.4,0.6-1,1.1-1.7,1.3c0.4,0.2,0.7,0.5,1,0.9s0.7,1.1,1.1,1.9c0.3,0.6,0.6,1,0.8,1.3
	c0.1,0.2,0.3,0.4,0.5,0.5l0.6,0.2v0.8h-2.2c-0.2,0-0.4-0.2-0.6-0.5s-0.5-0.9-0.8-1.7c-0.3-0.7-0.6-1.4-1-2c-0.2-0.4-0.5-0.8-0.8-1
	h-2v4.4l1.6,0.2v0.8h-4.6v-1H996.7z M1003.2,471.2c0.4-0.6,0.6-1.3,0.6-2s-0.2-1.3-0.6-1.8c-0.6-0.5-1.3-0.7-2.1-0.6
	c-0.3,0-0.7,0-1,0.1h-0.4v5c0.2,0,0.5,0,1,0h0.9C1002.3,471.9,1002.8,471.6,1003.2,471.2L1003.2,471.2z"/>
<path class="st2" d="M893.6,33.7h27.2"/>
<line class="st2" x1="893.6" y1="84.4" x2="921.8" y2="84.3"/>
<line class="st2" x1="893.6" y1="135.1" x2="922.1" y2="134.8"/>
<line class="st2" x1="894.6" y1="473.4" x2="922.1" y2="473"/>
<path d="M857.8,178.6l-1.2-0.2v-0.8h2.1c0.4,0,0.8,0,1.1,0c0.6,0,1.1-0.1,1.6-0.1c1.2-0.1,2.3,0.2,3.3,0.9c0.7,0.7,1.1,1.6,1,2.6
	c0,0.8-0.2,1.6-0.6,2.2c-0.4,0.6-1,1.1-1.6,1.4c-0.8,0.3-1.6,0.5-2.4,0.5h-0.9c-0.2,0-0.4,0-0.6,0v3.5l2.2,0.2v0.8h-5.2v-0.8
	l1.3-0.2L857.8,178.6z M861,184.3c0.8,0,1.5-0.2,2.1-0.8c0.6-0.7,0.9-1.6,0.8-2.5c0.1-0.7-0.2-1.5-0.7-2c-0.6-0.4-1.4-0.7-2.1-0.6
	c-0.4,0-0.7,0-1.1,0.1h-0.5v5.7C860,184.2,860.5,184.3,861,184.3L861,184.3z"/>
<path d="M869.1,189c-0.8-0.5-1.5-1.2-1.9-2.1c-0.4-1-0.7-2.1-0.6-3.2c0-1.1,0.2-2.2,0.8-3.2c0.5-0.9,1.2-1.6,2.1-2.1
	c0.9-0.5,1.9-0.8,3-0.8c1,0,2,0.1,3,0.4l0.5,0.1l-0.2,2.9h-1.1l-0.4-2c-0.2-0.2-0.5-0.3-0.8-0.3c-0.4-0.1-0.9-0.1-1.3-0.1
	c-0.7,0-1.3,0.2-1.8,0.6c-0.6,0.4-1.1,1-1.3,1.6c-0.3,0.9-0.5,1.8-0.5,2.7s0.1,1.8,0.4,2.7c0.2,0.8,0.6,1.5,1.2,2
	c0.5,0.5,1.3,0.8,2,0.7c0.4,0,0.9,0,1.3-0.1c0.3-0.1,0.5-0.2,0.8-0.4l0.7-1.6l1,0.1l-0.4,2.3c-0.3,0-0.7,0.1-1,0.2
	c-0.4,0.1-0.8,0.2-1.1,0.3c-0.4,0.1-0.9,0.1-1.3,0.1C871,189.8,870,189.5,869.1,189z"/>
<path d="M878.6,190.7c-0.4-0.3-0.8-0.7-1-1.2s-0.3-1.1-0.3-1.6c0-0.9,0.2-1.7,0.7-2.5c0.4-0.7,1-1.4,1.7-1.9
	c0.6-0.5,1.3-0.8,2.1-0.9l0.2,0.5c-0.8,0.2-1.5,0.7-2.1,1.3s-1,1.3-1.2,2.1c0.2-0.2,0.5-0.4,0.7-0.5c0.3-0.1,0.7-0.2,1.1-0.2
	c0.6,0,1.3,0.2,1.7,0.6c0.4,0.5,0.6,1.2,0.6,1.8c0,0.5-0.1,1-0.3,1.4c-0.7,1.3-2.3,1.9-3.7,1.2C878.7,190.8,878.6,190.7,878.6,190.7
	L878.6,190.7z M879.2,186.7c-0.3,0.1-0.5,0.3-0.6,0.6c0,0.1,0,0.3,0,0.4c-0.1,0.7,0.1,1.4,0.3,2.1c0.2,0.5,0.7,0.8,1.3,0.8
	c0.3,0,0.6-0.1,0.8-0.3s0.4-0.5,0.5-0.8s0.2-0.7,0.2-1c0-0.5-0.1-1.1-0.4-1.6c-0.2-0.3-0.6-0.5-1-0.5
	C879.9,186.4,879.5,186.5,879.2,186.7L879.2,186.7z"/>
<polyline class="st2" points="893.5,183.8 941.2,183.8 941.2,372.1 894.5,372.1 "/>
<path d="M422,336.1c-0.2,0.1-0.5,0.2-0.7,0.2c-0.3,0.1-0.5,0.1-0.8,0.2l-0.1-0.6c0.4-0.1,0.8-0.2,1.1-0.4c0.4-0.2,0.7-0.4,1-0.6l0,0
	l0.6,0.1v6l1.3,0.1v0.5h-3.8V341l1.4-0.1V336.1z"/>
<path d="M421.3,389.7c-0.5-0.7-0.7-1.6-0.7-2.4c0-0.6,0.1-1.3,0.4-1.8c0.2-0.5,0.6-0.9,1-1.2c0.4-0.3,0.9-0.4,1.5-0.4
	c0.8-0.1,1.5,0.3,2,0.9c0.5,0.7,0.7,1.6,0.6,2.4c0,0.6-0.1,1.3-0.4,1.8c-0.2,0.5-0.6,0.9-1,1.2c-0.4,0.3-0.9,0.4-1.5,0.4
	C422.5,390.7,421.8,390.4,421.3,389.7z M425,387.3c0-0.7-0.1-1.5-0.4-2.1c-0.2-0.5-0.7-0.8-1.2-0.8s-1,0.3-1.2,0.7
	c-0.3,0.6-0.4,1.3-0.4,2s0.1,1.5,0.4,2.2c0.2,0.5,0.7,0.8,1.2,0.8C424.4,390.2,425,389.2,425,387.3L425,387.3z"/>
<path d="M142.4,92.7l-0.5-0.1V92c0.3,0.1,0.6,0.1,0.9,0.1c0.5,0,1-0.1,1.4-0.3c0.4-0.2,0.7-0.4,0.9-0.7c0.2-0.3,0.3-0.6,0.3-1
	s-0.1-0.8-0.4-1.1c-0.4-0.3-0.9-0.4-1.4-0.4l-0.3,0.1l-0.3,0.1l-0.2-0.6c0.3-0.1,0.6-0.1,0.8-0.3c0.4-0.2,0.8-0.4,1.1-0.7
	c0.3-0.3,0.4-0.6,0.4-1c0-0.3-0.1-0.7-0.4-0.9c-0.3-0.2-0.6-0.3-0.9-0.3c-0.3,0-0.6,0.1-0.9,0.2c-0.3,0.1-0.5,0.2-0.8,0.4l-0.3-0.5
	c0.3-0.3,0.6-0.5,1-0.6c0.4-0.2,0.9-0.3,1.3-0.3c0.6,0,1.1,0.1,1.6,0.4c0.4,0.3,0.6,0.8,0.6,1.3s-0.2,1-0.6,1.4
	c-0.4,0.4-0.9,0.7-1.4,0.9h0.3c0.4,0,0.8,0.1,1.1,0.2s0.6,0.4,0.7,0.6c0.2,0.3,0.3,0.6,0.3,0.9c0,0.5-0.2,1-0.5,1.4s-0.8,0.8-1.3,1
	c-0.6,0.2-1.3,0.4-2,0.3L142.4,92.7z"/>
<path d="M171.6,85.5c-0.2,0.1-0.5,0.2-0.7,0.2c-0.3,0.1-0.6,0.1-0.8,0.2l-0.1-0.6c0.4-0.1,0.8-0.2,1.1-0.4c0.4-0.2,0.7-0.4,1-0.6
	l0,0l0.6,0.1v6l1.3,0.1V91h-3.8v-0.5l1.4-0.1V85.5z"/>
<path d="M176.3,85.5c-0.2,0.1-0.5,0.2-0.7,0.2c-0.3,0.1-0.6,0.1-0.8,0.2l-0.1-0.6c0.4-0.1,0.8-0.2,1.1-0.4c0.3-0.2,0.7-0.4,0.9-0.6
	l0,0l0.6,0.1v6l1.3,0.1V91h-3.8v-0.5l1.4-0.1L176.3,85.5z"/>
<path d="M139,140.4c-0.5-0.7-0.7-1.6-0.7-2.4c0-0.6,0.1-1.3,0.4-1.8c0.2-0.5,0.6-0.9,1-1.2s0.9-0.4,1.4-0.4c0.8-0.1,1.5,0.3,2,0.9
	c0.5,0.7,0.7,1.6,0.6,2.4c0,0.6-0.1,1.3-0.4,1.8c-0.2,0.5-0.6,0.9-1,1.2s-0.9,0.4-1.4,0.4C140.2,141.4,139.5,141,139,140.4z
	 M142.7,137.9c0-0.7-0.1-1.5-0.4-2.1c-0.2-0.5-0.7-0.8-1.2-0.7c-0.5,0-1,0.2-1.2,0.7c-0.3,0.6-0.4,1.3-0.4,2c0,0.8,0.1,1.5,0.4,2.2
	c0.2,0.5,0.7,0.8,1.2,0.8C142.2,140.8,142.7,139.8,142.7,137.9z"/>
<path d="M168.1,142.9l-0.5-0.1v-0.6c0.3,0.1,0.6,0.1,0.9,0.1c0.5,0,1-0.1,1.4-0.3s0.7-0.4,0.9-0.7s0.3-0.6,0.3-1s-0.1-0.8-0.4-1.1
	c-0.4-0.3-0.9-0.4-1.4-0.4l-0.3,0.1l-0.3,0.1l-0.2-0.6c0.3-0.1,0.6-0.1,0.8-0.3c0.4-0.2,0.8-0.4,1.1-0.7s0.4-0.6,0.4-1
	c0-0.3-0.1-0.7-0.4-0.9c-0.3-0.2-0.6-0.3-0.9-0.3c-0.3,0-0.6,0.1-0.9,0.2c-0.3,0.1-0.5,0.2-0.8,0.4l-0.3-0.5c0.3-0.3,0.6-0.5,1-0.6
	c0.4-0.2,0.9-0.3,1.3-0.3c0.6,0,1.1,0.1,1.6,0.4c0.4,0.3,0.6,0.8,0.6,1.3s-0.2,1-0.6,1.4c-0.4,0.4-0.9,0.7-1.4,0.9h0.3
	c0.4,0,0.8,0.1,1.1,0.2c0.3,0.1,0.6,0.4,0.7,0.6c0.2,0.3,0.3,0.6,0.3,0.9c0,0.5-0.2,1-0.5,1.4s-0.8,0.8-1.3,1
	c-0.6,0.2-1.3,0.4-2,0.3L168.1,142.9z"/>
<path d="M73.1,127.8h1.8l3.9,11l1,0.2v0.8h-4.2V139l1.3-0.2l-0.8-2.4h-4.7l-0.8,2.4L72,139v0.8h-3.8V139l1-0.2L73.1,127.8z
	 M74.1,130.4l-0.4-1.4l-0.4,1.4l-1.6,5.1h4.1L74.1,130.4z"/>
<path d="M81.4,135.8c-0.2,0.1-0.5,0.2-0.7,0.2c-0.3,0.1-0.6,0.1-0.8,0.2l-0.1-0.6c0.4-0.1,0.8-0.2,1.1-0.4c0.3-0.2,0.7-0.4,0.9-0.6
	l0,0l0.6,0.1v6l1.3,0.1v0.5H80v-0.5l1.4-0.1V135.8z"/>
<path d="M99.6,127.8h1.8l3.9,11l1,0.2v0.8H102V139l1.3-0.2l-0.8-2.4H98l-0.8,2.4l1.4,0.2v0.8h-3.8V139l1-0.2L99.6,127.8z
	 M100.6,130.3l-0.4-1.4l-0.4,1.4l-1.6,5.1h4.1L100.6,130.3z"/>
<path d="M108,135.7c-0.2,0.1-0.5,0.2-0.7,0.2c-0.3,0.1-0.6,0.1-0.8,0.2l-0.1-0.6c0.4-0.1,0.8-0.2,1.1-0.4c0.3-0.2,0.7-0.4,0.9-0.6
	l0,0l0.6,0.1v6l1.3,0.1v0.5h-3.8v-0.5l1.4-0.1L108,135.7z"/>
<path d="M115.1,141.5h-3.5l-0.3-0.5c0.4-0.8,0.9-1.9,1.5-3.2s1.2-2.5,1.6-3.6h0.3l0.9,0.5l-2.9,5.5l-0.4,0.6l2.8-0.1v-2.1l0.9-0.1
	v2.1l1.5-0.1v0.9H116v1.7h-0.9V141.5z"/>
<g>
	<path d="M91.2,142c0.3-0.7,0.6-2,0.7-2.9l1.2-0.1c-0.3,1-0.8,2.4-1.1,2.9L91.2,142z"/>
</g>
<g>
	<path d="M119.2,142c0.3-0.7,0.6-2,0.7-2.9l1.2-0.1c-0.3,1-0.8,2.4-1.1,2.9L119.2,142z"/>
</g>
<g>
	<path d="M85.2,142.4c0.5,0,1-0.1,1.4-0.3s0.8-0.5,1-0.9s0.4-0.8,0.4-1.3c0-1.2-0.5-1.8-1.6-1.8c-0.2,0-0.5,0-0.8,0.1
		s-0.6,0.2-0.8,0.2l-0.3-0.2l0.5-4h3.1l0.1-0.2H89l-0.2,1.1h-2.9l-0.5,2.6c0.2-0.1,0.5-0.2,0.8-0.3s0.6-0.1,0.9-0.1
		c0.7,0,1.3,0.2,1.7,0.6s0.6,1,0.6,1.7c0,0.6-0.2,1.1-0.5,1.6s-0.8,0.9-1.4,1.2s-1.3,0.4-2.1,0.4c-0.3,0-0.6,0-0.8-0.1v-0.5
		C84.8,142.4,85,142.4,85.2,142.4z"/>
</g>
</svg>
