<svg xmlns="http://www.w3.org/2000/svg" viewBox="0 0 1041.83 640.52"><defs><style>.cls-1{fill:#ebebeb;}.cls-2,.cls-3,.cls-4{fill:none;}.cls-2{stroke:#929292;stroke-width:2px;}.cls-3,.cls-4{stroke:#000;}.cls-3{stroke-width:1.6px;}.cls-4{stroke-miterlimit:10;stroke-width:1.6px;}.cls-5{fill:#004d80;}</style></defs><title>Asset 1</title><g id="Layer_2" data-name="Layer 2"><g id="Layer_1-2" data-name="Layer 1"><rect class="cls-1" x="239.23" y="63.94" width="40" height="40"/><rect class="cls-2" x="239.23" y="63.94" width="40" height="40"/><path d="M265.37,84.31l-1.29.17a6.15,6.15,0,0,1-.32,2.07,4.53,4.53,0,0,1-.93,1.6,4.76,4.76,0,0,0,1,.73,2.72,2.72,0,0,0,1.07.28v.7a1.66,1.66,0,0,1-.52.13,5.6,5.6,0,0,1-.63.05,2.38,2.38,0,0,1-1-.21,5.24,5.24,0,0,1-1.05-.71,3.86,3.86,0,0,1-1.39.73,5.25,5.25,0,0,1-1.55.23,5.15,5.15,0,0,1-3.1-.83,2.68,2.68,0,0,1-1.14-2.3,2.55,2.55,0,0,1,.66-1.76A4.84,4.84,0,0,1,256.91,84a5.42,5.42,0,0,1-1.39-3.29,2.54,2.54,0,0,1,.41-1.39,3,3,0,0,1,1.15-1,3.46,3.46,0,0,1,1.62-.38,3.62,3.62,0,0,1,1.58.32,2.26,2.26,0,0,1,1,.83,1.9,1.9,0,0,1,.32,1.06,3.38,3.38,0,0,1-.33,1.55,3.74,3.74,0,0,1-.88,1.09,15.7,15.7,0,0,1-1.54,1.08c.38.45.86,1,1.47,1.68s1.09,1.21,1.48,1.6l.4.39a3.21,3.21,0,0,0,.57-1.19,5.47,5.47,0,0,0,.18-1.39c0-.2,0-.35,0-.45l-1.29-.17v-.88h3.77ZM260,89a3.06,3.06,0,0,0,1-.49,18.71,18.71,0,0,1-1.4-1.41c-.51-.56-1.14-1.29-1.9-2.17l-.27-.32a2.88,2.88,0,0,0-1.36,2.21,2.16,2.16,0,0,0,.74,1.68,3,3,0,0,0,2.08.67A4,4,0,0,0,260,89ZM257.44,82a6.87,6.87,0,0,0,.89,1.28,6.45,6.45,0,0,0,1.39-1.44,3,3,0,0,0,.41-1.6,1.86,1.86,0,0,0-.33-1.08,1.21,1.21,0,0,0-1.11-.49,1.41,1.41,0,0,0-1.13.53,2,2,0,0,0-.46,1.34A3.17,3.17,0,0,0,257.44,82Z"/><rect class="cls-1" x="239.23" y="114.21" width="40" height="40"/><rect class="cls-2" x="239.23" y="114.21" width="40" height="40"/><path d="M252.32,136.16v-1.31l5.64-2.41-5.64-2.37v-1.35l7.65,3.44v.55Zm0,2.64v-1.15h7.58v1.15Z"/><path d="M264.26,131.68a8.64,8.64,0,0,1-1.05.31c-.48.11-.87.2-1.17.24l-.16-.9a7.44,7.44,0,0,0,1.67-.59,6.65,6.65,0,0,0,1.43-.91h0l1,.16v9l2,.15v.78H262.2v-.78l2.06-.15Z"/><rect class="cls-1" x="239.23" y="164.47" width="40" height="90"/><rect class="cls-2" x="239.23" y="164.47" width="40" height="90"/><path d="M265.37,209.31l-1.29.17a6.15,6.15,0,0,1-.32,2.07,4.53,4.53,0,0,1-.93,1.6,4.76,4.76,0,0,0,1,.73,2.72,2.72,0,0,0,1.07.28v.7a1.66,1.66,0,0,1-.52.13,5.6,5.6,0,0,1-.63,0,2.38,2.38,0,0,1-1-.21,5.24,5.24,0,0,1-1.05-.71,3.86,3.86,0,0,1-1.39.73,5.25,5.25,0,0,1-1.55.23,5.15,5.15,0,0,1-3.1-.83,2.68,2.68,0,0,1-1.14-2.3,2.55,2.55,0,0,1,.66-1.76,4.84,4.84,0,0,1,1.74-1.19,5.42,5.42,0,0,1-1.39-3.29,2.54,2.54,0,0,1,.41-1.39,3,3,0,0,1,1.15-1,3.46,3.46,0,0,1,1.62-.38,3.62,3.62,0,0,1,1.58.32,2.26,2.26,0,0,1,1,.83,1.9,1.9,0,0,1,.32,1.06,3.38,3.38,0,0,1-.33,1.55,3.74,3.74,0,0,1-.88,1.09,15.7,15.7,0,0,1-1.54,1.08c.38.45.86,1,1.47,1.68s1.09,1.21,1.48,1.6l.4.39a3.21,3.21,0,0,0,.57-1.19,5.47,5.47,0,0,0,.18-1.39c0-.2,0-.35,0-.45l-1.29-.17v-.88h3.77ZM260,214a3.06,3.06,0,0,0,1-.49,18.71,18.71,0,0,1-1.4-1.41c-.51-.56-1.14-1.29-1.9-2.17l-.27-.32a2.88,2.88,0,0,0-1.36,2.21,2.16,2.16,0,0,0,.74,1.68,3,3,0,0,0,2.08.67A4,4,0,0,0,260,214ZM257.44,207a6.87,6.87,0,0,0,.89,1.28,6.45,6.45,0,0,0,1.39-1.44,3,3,0,0,0,.41-1.6,1.86,1.86,0,0,0-.33-1.08,1.21,1.21,0,0,0-1.11-.49,1.41,1.41,0,0,0-1.13.53,2,2,0,0,0-.46,1.34A3.17,3.17,0,0,0,257.44,207Z"/><rect class="cls-1" x="333.85" y="64.94" width="98.5" height="336.87"/><rect class="cls-2" x="333.85" y="64.94" width="98.5" height="336.87"/><rect class="cls-1" x="1" y="1" width="185.6" height="509.53"/><rect class="cls-2" x="1" y="1" width="185.6" height="509.53"/><rect class="cls-1" x="693.35" y="13.04" width="200.58" height="288.48"/><rect class="cls-2" x="693.35" y="13.04" width="200.58" height="288.48"/><rect class="cls-1" x="694.36" y="351.03" width="200.58" height="288.48"/><rect class="cls-2" x="694.36" y="351.03" width="200.58" height="288.48"/><path d="M858.59,130.31l-1.24-.19v-.8h2.12c.39,0,.77,0,1.14,0,.58,0,1.12-.06,1.63-.06a5,5,0,0,1,3.28.86,3.25,3.25,0,0,1,1,2.56,4.13,4.13,0,0,1-.59,2.22,3.83,3.83,0,0,1-1.64,1.44,5.58,5.58,0,0,1-2.41.5l-.94,0-.59,0v3.52l2.19.17v.79h-5.23v-.79l1.32-.16Zm3.25,5.62a2.86,2.86,0,0,0,2.06-.77,3.37,3.37,0,0,0,.79-2.51,2.5,2.5,0,0,0-.69-2,3.2,3.2,0,0,0-2.14-.6,10.52,10.52,0,0,0-1.09.06l-.46,0v5.68A10.35,10.35,0,0,0,861.84,135.93Z"/><path d="M869.93,140.62a4.82,4.82,0,0,1-1.88-2.13,7.58,7.58,0,0,1-.64-3.24,6.47,6.47,0,0,1,.75-3.16,5.4,5.4,0,0,1,2.07-2.14,5.7,5.7,0,0,1,2.94-.76,14.34,14.34,0,0,1,3,.38l.53.1-.16,2.88h-1.08l-.4-2a1.81,1.81,0,0,0-.77-.33,5.77,5.77,0,0,0-1.35-.14,3,3,0,0,0-1.83.59,3.8,3.8,0,0,0-1.25,1.72,7.17,7.17,0,0,0-.46,2.72,8.7,8.7,0,0,0,.4,2.73,4.27,4.27,0,0,0,1.22,2,2.88,2.88,0,0,0,2,.73,4.86,4.86,0,0,0,1.31-.14,2.28,2.28,0,0,0,.77-.42l.67-1.57,1,.13-.38,2.27a4.83,4.83,0,0,0-1,.23,10.78,10.78,0,0,1-1.12.28,7.07,7.07,0,0,1-1.33.1A5.62,5.62,0,0,1,869.93,140.62Z"/><path d="M879.05,144.19c.38-.84.75-1.69,1.1-2.54l1.48-3.61.5-1.25-3.16,0-.45,1.42-.68-.13.22-2.11h4.87l.22.28c-.35,1-.83,2.35-1.46,4.11s-1.11,3.13-1.45,4.11Z"/><path d="M864.24,28.41,863,28.22v-.8h2.13c.38,0,.76,0,1.14-.05.57,0,1.12-.06,1.63-.06a5,5,0,0,1,3.28.86,3.23,3.23,0,0,1,1,2.56,4.13,4.13,0,0,1-.59,2.22,3.83,3.83,0,0,1-1.64,1.44,5.58,5.58,0,0,1-2.41.5l-1,0a4.19,4.19,0,0,1-.59,0v3.53l2.2.17v.79h-5.24v-.79l1.33-.16ZM867.49,34a2.81,2.81,0,0,0,2-.76,3.37,3.37,0,0,0,.8-2.51,2.5,2.5,0,0,0-.69-2,3.21,3.21,0,0,0-2.15-.6,10.34,10.34,0,0,0-1.08.06l-.47,0v5.67A9.24,9.24,0,0,0,867.49,34Z"/><path d="M877.17,27.32h1.76l3.89,11,1,.16v.79h-4.23v-.79l1.33-.16L880.16,36h-4.67l-.75,2.37,1.37.16v.79h-3.79v-.79l1-.16Zm1,2.56-.4-1.41-.39,1.44-1.61,5.14h4.08Z"/><path d="M858,79.36l-1.25-.19v-.8h2.13c.38,0,.76,0,1.13-.05.58,0,1.12-.06,1.63-.06a5,5,0,0,1,3.28.86,3.25,3.25,0,0,1,1,2.56,4,4,0,0,1-.59,2.22,3.77,3.77,0,0,1-1.64,1.44,5.58,5.58,0,0,1-2.41.5l-.94,0-.59,0V89.3l2.19.17v.79h-5.23v-.79l1.33-.16ZM861.25,85a2.84,2.84,0,0,0,2.06-.77,3.37,3.37,0,0,0,.79-2.51,2.5,2.5,0,0,0-.69-2,3.18,3.18,0,0,0-2.14-.6,10.67,10.67,0,0,0-1.09.06l-.46,0V84.9A10.45,10.45,0,0,0,861.25,85Z"/><path d="M869.34,89.67a4.88,4.88,0,0,1-1.88-2.13,7.74,7.74,0,0,1-.64-3.24,6.47,6.47,0,0,1,.75-3.16A5.47,5.47,0,0,1,869.64,79a5.7,5.7,0,0,1,2.94-.76,14.34,14.34,0,0,1,3,.38l.53.1-.16,2.88h-1.07l-.4-2a1.92,1.92,0,0,0-.78-.33,5.77,5.77,0,0,0-1.35-.14,3,3,0,0,0-1.82.59,3.74,3.74,0,0,0-1.26,1.72,7.37,7.37,0,0,0-.46,2.72,9,9,0,0,0,.4,2.73,4.36,4.36,0,0,0,1.22,2,2.9,2.9,0,0,0,2,.73,4.78,4.78,0,0,0,1.3-.14,2.43,2.43,0,0,0,.78-.42l.67-1.57,1,.13-.39,2.27a4.35,4.35,0,0,0-1,.23,10,10,0,0,1-1.11.28,7.18,7.18,0,0,1-1.34.1A5.62,5.62,0,0,1,869.34,89.67Z"/><path d="M878.08,90.86a4.6,4.6,0,0,1-.29-4.26,2.73,2.73,0,0,1,1-1.2,2.66,2.66,0,0,1,1.45-.42,2.34,2.34,0,0,1,2,.89,4.11,4.11,0,0,1,.64,2.44,4.24,4.24,0,0,1-.37,1.83,2.88,2.88,0,0,1-1,1.23,2.53,2.53,0,0,1-1.45.44A2.34,2.34,0,0,1,878.08,90.86Zm3.68-2.44a5.07,5.07,0,0,0-.36-2.14,1.24,1.24,0,0,0-1.2-.74,1.3,1.3,0,0,0-1.22.71,4.28,4.28,0,0,0-.39,2,5.12,5.12,0,0,0,.38,2.17,1.25,1.25,0,0,0,1.2.81C881.23,91.26,881.76,90.31,881.76,88.42Z"/><path d="M846.1,479.06a4.61,4.61,0,0,1-1.7-2.12,8,8,0,0,1-.58-3.18,7.08,7.08,0,0,1,.7-3.23,5.2,5.2,0,0,1,1.91-2.15,5,5,0,0,1,2.74-.76A4.69,4.69,0,0,1,853,469.2a6.58,6.58,0,0,1,1.32,4.36,7.27,7.27,0,0,1-.71,3.28,5.37,5.37,0,0,1-2,2.2,5.19,5.19,0,0,1-2.78.77A4.86,4.86,0,0,1,846.1,479.06Zm.52-9.26a9,9,0,0,0,0,7.76A2.71,2.71,0,0,0,849,479a2.78,2.78,0,0,0,2.44-1.39,7.38,7.38,0,0,0,.9-4,7.06,7.06,0,0,0-.86-3.77,2.75,2.75,0,0,0-2.45-1.35A2.81,2.81,0,0,0,846.62,469.8Z"/><path d="M857.46,478.51a5.78,5.78,0,0,1-1.11-3.9v-5.87l-1.14-.19v-.8h4.28v.8l-1.36.21v6a5,5,0,0,0,.77,3.13,2.7,2.7,0,0,0,2.23,1,2.52,2.52,0,0,0,2.19-1,5.14,5.14,0,0,0,.73-3v-6.12l-1.35-.21v-.8h3.73v.8l-1.17.19v6.06a5.19,5.19,0,0,1-1.18,3.73,4.17,4.17,0,0,1-3.15,1.23A4.39,4.39,0,0,1,857.46,478.51Z"/><path d="M871.31,468.6l-2.75.09L868,472h-1.06l.27-4.29h10l.19,4.29h-1l-.53-3.35-2.77-.09v10.09l2.27.16v.79h-6.11v-.79l2.08-.16Z"/><path d="M879.08,480.24a4.6,4.6,0,0,1-.29-4.26,2.79,2.79,0,0,1,1-1.2,2.66,2.66,0,0,1,1.45-.42,2.34,2.34,0,0,1,2,.89,4.11,4.11,0,0,1,.64,2.44,4.24,4.24,0,0,1-.37,1.83,2.88,2.88,0,0,1-1,1.23,2.53,2.53,0,0,1-1.45.44A2.34,2.34,0,0,1,879.08,480.24Zm3.68-2.44a5.07,5.07,0,0,0-.36-2.14,1.24,1.24,0,0,0-1.2-.74,1.3,1.3,0,0,0-1.22.71,4.28,4.28,0,0,0-.39,2,5.12,5.12,0,0,0,.38,2.17,1.25,1.25,0,0,0,1.2.81C882.23,480.64,882.76,479.69,882.76,477.8Z"/><path d="M848.58,377.28a4.9,4.9,0,0,1-1.88-2.14,7.69,7.69,0,0,1-.64-3.23,6.51,6.51,0,0,1,.75-3.17,5.47,5.47,0,0,1,2.07-2.14,5.8,5.8,0,0,1,2.94-.76,13.77,13.77,0,0,1,3,.39l.53.09-.16,2.88h-1.07l-.4-2a2.07,2.07,0,0,0-.78-.33,5.82,5.82,0,0,0-1.35-.13,3,3,0,0,0-1.82.58,3.74,3.74,0,0,0-1.26,1.72,7.41,7.41,0,0,0-.46,2.72,9.06,9.06,0,0,0,.4,2.74,4.47,4.47,0,0,0,1.22,2,3,3,0,0,0,2,.73A4.36,4.36,0,0,0,853,377a2.23,2.23,0,0,0,.78-.41l.67-1.57,1,.13-.39,2.27a4.21,4.21,0,0,0-1,.22,10,10,0,0,1-1.11.28,7.08,7.08,0,0,1-1.34.11A5.71,5.71,0,0,1,848.58,377.28Z"/><path d="M858.08,367l-1.3-.19V366h4.59v.8l-1.58.19v10l4.13-.15.94-2.69,1,.15-.56,3.63h-8.53v-.78l1.33-.16Z"/><path d="M874.77,377.21q-.42-.65-1.2-2l-.54-.95c-.29-.52-.57-1-.82-1.34a9.5,9.5,0,0,0-.66-.88l-1.62,1.83v3.09l1.46.16v.78h-4.5v-.78l1.33-.16V367l-1.31-.19V366h4.35v.8l-1.33.19v5.6l4.71-5.6-1.35-.19V366h4v.8L876,367l-3.45,3.88a7.36,7.36,0,0,1,1.19,1.39c.42.61.94,1.39,1.54,2.35s.91,1.41,1.15,1.75.43.54.57.57l.75.18v.78h-2.29C875.29,377.86,875.06,377.64,874.77,377.21Z"/><path d="M879.08,378.47a4.1,4.1,0,0,1-.68-2.44,4,4,0,0,1,.39-1.83,2.85,2.85,0,0,1,1-1.2,2.65,2.65,0,0,1,1.45-.41,2.31,2.31,0,0,1,2,.89,4.05,4.05,0,0,1,.64,2.43,4.24,4.24,0,0,1-.37,1.83,2.88,2.88,0,0,1-1,1.23,2.46,2.46,0,0,1-1.45.44A2.34,2.34,0,0,1,879.08,378.47Zm3.68-2.45a5,5,0,0,0-.36-2.13,1.24,1.24,0,0,0-1.2-.75,1.32,1.32,0,0,0-1.22.71,4.28,4.28,0,0,0-.39,2,5.09,5.09,0,0,0,.38,2.17,1.25,1.25,0,0,0,1.2.82Q882.76,378.87,882.76,376Z"/><path d="M836.6,427a4.85,4.85,0,0,1-1.91-2.12,7.57,7.57,0,0,1,.12-6.44,5.13,5.13,0,0,1,2.15-2.13,6.54,6.54,0,0,1,3.13-.73,16.63,16.63,0,0,1,3.73.5l-.14,2.76h-1.14l-.38-1.92a2.41,2.41,0,0,0-.76-.33,5.08,5.08,0,0,0-1.43-.16,3.79,3.79,0,0,0-2.07.57,3.84,3.84,0,0,0-1.4,1.72,6.83,6.83,0,0,0-.5,2.75,8.39,8.39,0,0,0,.41,2.72,4.36,4.36,0,0,0,1.24,2,3,3,0,0,0,2.06.75,5.36,5.36,0,0,0,1.46-.19,2.71,2.71,0,0,0,1.05-.48v-3.57l-2-.16v-1h4.67v1l-.93.14v4.31a5.47,5.47,0,0,0-1.17.27c-.55.17-1.08.3-1.57.4a9,9,0,0,1-1.63.14A5.53,5.53,0,0,1,836.6,427Z"/><path d="M849.82,415.58h1.76l3.89,11,1,.16v.79h-4.22v-.79l1.33-.16-.76-2.37h-4.67l-.75,2.37,1.38.16v.79H845v-.79l1-.16Zm1,2.56-.4-1.41-.38,1.44-1.62,5.14h4.08Z"/><path d="M860.89,416.53l-2.75.09-.56,3.35h-1.05l.27-4.29h10L867,420h-1l-.53-3.35-2.77-.09v10.09l2.28.16v.79h-6.12v-.79l2.08-.16Z"/><path d="M869.39,416.67l-1.31-.19v-.8h8.14l.23,2.48h-.92l-.46-1.55-4-.1V421l2.67,0,.23-1.32h.88v3.68H874l-.23-1.38-2.67-.05v4.77l4.51-.16.85-2,.95.29-.47,2.79h-8.88v-.79l1.33-.16Z"/><path d="M879.08,428.17a4.6,4.6,0,0,1-.29-4.26,2.73,2.73,0,0,1,1-1.2,2.66,2.66,0,0,1,1.45-.42,2.34,2.34,0,0,1,2,.89,4.11,4.11,0,0,1,.64,2.44,4.24,4.24,0,0,1-.37,1.83,2.88,2.88,0,0,1-1,1.23,2.53,2.53,0,0,1-1.45.44A2.34,2.34,0,0,1,879.08,428.17Zm3.68-2.44a5.07,5.07,0,0,0-.36-2.14,1.24,1.24,0,0,0-1.2-.74,1.3,1.3,0,0,0-1.22.71,4.28,4.28,0,0,0-.39,2,5.12,5.12,0,0,0,.38,2.17,1.25,1.25,0,0,0,1.2.81C882.23,428.57,882.76,427.62,882.76,425.73Z"/><path d="M129.72,28.41l-1.24-.19v-.8h2.09c.33,0,.81,0,1.43-.07s1.08-.06,1.39-.06a5.88,5.88,0,0,1,4.42,1.5A5.74,5.74,0,0,1,139.26,33a7.42,7.42,0,0,1-.74,3.36,5.69,5.69,0,0,1-2.09,2.28,5.89,5.89,0,0,1-3.09.81c-.26,0-.69,0-1.31-.06s-1.12-.06-1.44-.06H128.4v-.79l1.32-.16Zm3.14,10.13h.48a3.72,3.72,0,0,0,3.55-2.38,7.12,7.12,0,0,0,.51-2.85,5.84,5.84,0,0,0-1.09-3.84A4,4,0,0,0,133,28.15a9.52,9.52,0,0,0-1.1.07,3,3,0,0,1-.48.05V38.41A6.94,6.94,0,0,0,132.86,38.54Z"/><path d="M141.13,39.91a4,4,0,0,1-.68-2.43,4.18,4.18,0,0,1,.38-1.83,2.82,2.82,0,0,1,1-1.2,2.64,2.64,0,0,1,1.45-.42,2.35,2.35,0,0,1,2,.89,4.18,4.18,0,0,1,.64,2.44,4.39,4.39,0,0,1-.37,1.83,3,3,0,0,1-1,1.23,2.52,2.52,0,0,1-1.44.44A2.34,2.34,0,0,1,141.13,39.91Zm3.67-2.44a5.07,5.07,0,0,0-.36-2.14,1.23,1.23,0,0,0-1.2-.74,1.29,1.29,0,0,0-1.21.7,4.19,4.19,0,0,0-.4,2A5.28,5.28,0,0,0,142,39.5a1.25,1.25,0,0,0,1.2.81C144.27,40.31,144.8,39.36,144.8,37.47Z"/><path d="M149.32,33.69a2.6,2.6,0,0,1,1.47-.45,2.13,2.13,0,0,1,.9.19,6.46,6.46,0,0,1,.86.56,5.39,5.39,0,0,0,.62.44,1.19,1.19,0,0,0,.56.14,2,2,0,0,0,1.64-.91l.62.67a3.07,3.07,0,0,1-1,1.05,2.57,2.57,0,0,1-1.44.44,2,2,0,0,1-.87-.19,5.55,5.55,0,0,1-.81-.55,4.86,4.86,0,0,0-.64-.45,1.16,1.16,0,0,0-.61-.16,2.12,2.12,0,0,0-1.66.92l-.61-.69A2.69,2.69,0,0,1,149.32,33.69Z"/><path d="M159.78,28.41l-1.25-.19v-.8h2.1c.33,0,.81,0,1.42-.07s1.09-.06,1.4-.06a5.9,5.9,0,0,1,4.42,1.5A5.78,5.78,0,0,1,169.32,33a7.29,7.29,0,0,1-.75,3.36,5.6,5.6,0,0,1-2.08,2.28,5.89,5.89,0,0,1-3.09.81c-.26,0-.7,0-1.31-.06s-1.12-.06-1.44-.06h-2.2v-.79l1.33-.16Zm3.14,10.13h.48a4,4,0,0,0,2.12-.61A3.92,3.92,0,0,0,167,36.16a7.12,7.12,0,0,0,.51-2.85,5.84,5.84,0,0,0-1.09-3.84,4.06,4.06,0,0,0-3.31-1.32,9.39,9.39,0,0,0-1.1.07,3,3,0,0,1-.48.05V38.41A6.94,6.94,0,0,0,162.92,38.54Z"/><path d="M171.56,42.29c.39-.84.75-1.69,1.11-2.54s.84-2,1.47-3.61l.51-1.26-3.16,0L171,36.35l-.68-.13.22-2.12h4.87l.22.29c-.35,1-.84,2.34-1.46,4.1s-1.11,3.14-1.45,4.12Z"/><path d="M704.61,28l-1.25-.19v-.8h2.1c.33,0,.81,0,1.42-.06s1.09-.07,1.4-.07a5.88,5.88,0,0,1,4.42,1.5,5.78,5.78,0,0,1,1.45,4.2A7.22,7.22,0,0,1,713.4,36a5.47,5.47,0,0,1-2.08,2.28,5.8,5.8,0,0,1-3.09.82c-.26,0-.69,0-1.31-.07s-1.12-.06-1.44-.06h-2.2v-.78l1.33-.16Zm3.14,10.13h.48a3.73,3.73,0,0,0,3.55-2.37,7.21,7.21,0,0,0,.51-2.86,5.86,5.86,0,0,0-1.09-3.84,4.09,4.09,0,0,0-3.31-1.31c-.31,0-.67,0-1.1.06a3,3,0,0,1-.48,0V38A6.31,6.31,0,0,0,707.75,38.17Z"/><path d="M716,39.55a4,4,0,0,1-.68-2.44,4.18,4.18,0,0,1,.38-1.83,2.94,2.94,0,0,1,1-1.2,2.63,2.63,0,0,1,1.45-.41,2.29,2.29,0,0,1,2,.89,4.05,4.05,0,0,1,.64,2.43,4.39,4.39,0,0,1-.36,1.83,3,3,0,0,1-1,1.23,2.45,2.45,0,0,1-1.44.44A2.34,2.34,0,0,1,716,39.55Zm3.67-2.45a5,5,0,0,0-.36-2.13,1.24,1.24,0,0,0-1.2-.75,1.29,1.29,0,0,0-1.21.71,4.15,4.15,0,0,0-.4,2,5.25,5.25,0,0,0,.38,2.17,1.25,1.25,0,0,0,1.2.82Q719.69,40,719.69,37.1Z"/><path d="M724.21,33.32a2.67,2.67,0,0,1,1.47-.44,2,2,0,0,1,.9.19,5.59,5.59,0,0,1,.86.56,6.61,6.61,0,0,0,.62.43,1.08,1.08,0,0,0,.56.14,2,2,0,0,0,1.64-.91l.62.67a3,3,0,0,1-1,1,2.49,2.49,0,0,1-1.44.44,1.86,1.86,0,0,1-.87-.19,6.3,6.3,0,0,1-.81-.54,4.22,4.22,0,0,0-.64-.46,1.25,1.25,0,0,0-.61-.15,2.1,2.1,0,0,0-1.66.91l-.61-.69A2.77,2.77,0,0,1,724.21,33.32Z"/><path d="M734.67,28l-1.25-.19v-.8h2.1c.33,0,.8,0,1.42-.06s1.09-.07,1.4-.07a5.9,5.9,0,0,1,4.42,1.5,5.82,5.82,0,0,1,1.45,4.2,7.22,7.22,0,0,1-.75,3.35,5.47,5.47,0,0,1-2.08,2.28,5.8,5.8,0,0,1-3.09.82c-.26,0-.7,0-1.31-.07s-1.12-.06-1.44-.06h-2.2v-.78l1.33-.16Zm3.14,10.13h.48a3.9,3.9,0,0,0,2.12-.61,3.84,3.84,0,0,0,1.43-1.76,7.21,7.21,0,0,0,.51-2.86,5.86,5.86,0,0,0-1.09-3.84A4.1,4.1,0,0,0,738,27.79c-.31,0-.68,0-1.1.06a3,3,0,0,1-.48,0V38A6.31,6.31,0,0,0,737.81,38.17Z"/><path d="M746.45,41.92c.39-.84.75-1.68,1.11-2.53L749,35.78l.51-1.26-3.16,0L745.93,36l-.68-.13.22-2.11h4.87l.22.29c-.35,1-.84,2.34-1.46,4.1s-1.11,3.13-1.45,4.11Z"/><path class="cls-3" d="M186.12,33.67H692.6"/><path d="M129.65,77.59h1.76l3.89,11,1,.16v.78h-4.22v-.78l1.33-.16-.75-2.37H128l-.75,2.37,1.38.16v.78h-3.79v-.78l1-.16Zm1,2.56-.4-1.41-.38,1.44-1.62,5.14h4.08Z"/><path d="M138.09,85.52a5.82,5.82,0,0,1-.7.21c-.32.08-.58.13-.78.16l-.11-.6a4.88,4.88,0,0,0,1.12-.4,4.08,4.08,0,0,0,.95-.6h0l.65.1v6l1.33.1V91h-3.84v-.52l1.37-.1Z"/><path d="M142.12,90.18a4.1,4.1,0,0,1-.68-2.44,4.24,4.24,0,0,1,.38-1.83,2.94,2.94,0,0,1,1.05-1.2,2.72,2.72,0,0,1,1.45-.41,2.31,2.31,0,0,1,2,.89,4.14,4.14,0,0,1,.64,2.44,4.35,4.35,0,0,1-.37,1.82,3,3,0,0,1-1,1.24,2.55,2.55,0,0,1-1.45.43A2.34,2.34,0,0,1,142.12,90.18Zm3.67-2.45a5.23,5.23,0,0,0-.35-2.13,1.24,1.24,0,0,0-1.2-.75,1.31,1.31,0,0,0-1.22.71,4.26,4.26,0,0,0-.4,2,5.21,5.21,0,0,0,.38,2.17,1.26,1.26,0,0,0,1.2.82Q145.79,90.58,145.79,87.73Z"/><path d="M150.31,84a2.6,2.6,0,0,1,1.47-.45,2,2,0,0,1,.9.19,5.59,5.59,0,0,1,.86.56,5.1,5.1,0,0,0,.63.43,1.07,1.07,0,0,0,.56.15,2,2,0,0,0,1.63-.92l.62.68a3,3,0,0,1-1,1,2.49,2.49,0,0,1-1.44.44,1.79,1.79,0,0,1-.86-.19,5.72,5.72,0,0,1-.82-.54,5.08,5.08,0,0,0-.64-.46,1.23,1.23,0,0,0-.61-.15,2.1,2.1,0,0,0-1.66.91l-.61-.69A2.67,2.67,0,0,1,150.31,84Z"/><path d="M163.35,77.59h1.76l3.89,11,1,.16v.78h-4.22v-.78l1.32-.16-.75-2.37h-4.67l-.75,2.37,1.37.16v.78H158.5v-.78l1-.16Zm1,2.56-.4-1.41-.39,1.44L162,85.32H166Z"/><path d="M171.42,92.19a3.05,3.05,0,0,0,1.39-.31,2.42,2.42,0,0,0,1-.85,2.13,2.13,0,0,0,.37-1.24c0-1.14-.53-1.72-1.59-1.72a4,4,0,0,0-.79.1,4.75,4.75,0,0,0-.75.24l-.29-.2.53-3.84h3l.1-.2h.66l-.19,1.1h-2.83l-.49,2.48a3.33,3.33,0,0,1,.74-.26,3.48,3.48,0,0,1,.9-.12,2.21,2.21,0,0,1,1.61.57,2.27,2.27,0,0,1,.58,1.68,2.76,2.76,0,0,1-.48,1.56,3.53,3.53,0,0,1-1.37,1.14,4.65,4.65,0,0,1-2,.43,3.13,3.13,0,0,1-.75-.08v-.51C171,92.18,171.2,92.19,171.42,92.19Z"/><path d="M127.13,127.85h1.76l3.88,11,1,.16v.79h-4.23v-.79l1.33-.16-.75-2.36h-4.67l-.76,2.36,1.38.16v.79h-3.79v-.79l1-.16Zm1,2.57-.4-1.41-.38,1.44-1.62,5.13h4.08Z"/><path d="M135.56,135.79a4.63,4.63,0,0,1-.7.2c-.32.08-.58.13-.78.16l-.11-.59a4.72,4.72,0,0,0,1.12-.4,4.09,4.09,0,0,0,.95-.61h0l.65.11v6l1.33.09v.52h-3.84v-.52l1.37-.09Z"/><path d="M139.89,142.46a3.19,3.19,0,0,0,1.39-.31,2.44,2.44,0,0,0,1-.86,2.17,2.17,0,0,0,.36-1.23c0-1.15-.52-1.72-1.58-1.72a3.35,3.35,0,0,0-.79.1,4.75,4.75,0,0,0-.75.24l-.29-.2.52-3.84h3l.11-.2h.66l-.19,1.1h-2.83L140,138a3.64,3.64,0,0,1,.74-.27,3.94,3.94,0,0,1,.89-.11,2,2,0,0,1,2.2,2.25,2.7,2.7,0,0,1-.48,1.55,3.47,3.47,0,0,1-1.37,1.15,4.68,4.68,0,0,1-2,.42,3.13,3.13,0,0,1-.75-.07v-.51C139.45,142.45,139.67,142.46,139.89,142.46Z"/><path d="M147.26,134.22a2.6,2.6,0,0,1,1.47-.45,2,2,0,0,1,.9.2,4.93,4.93,0,0,1,.86.56,5.5,5.5,0,0,0,.63.43,1.16,1.16,0,0,0,.56.14,2,2,0,0,0,1.63-.91l.62.67a2.91,2.91,0,0,1-1,1,2.57,2.57,0,0,1-1.44.44,1.79,1.79,0,0,1-.86-.19,5.72,5.72,0,0,1-.82-.54,4.22,4.22,0,0,0-.64-.46,1.23,1.23,0,0,0-.61-.15,2.1,2.1,0,0,0-1.66.91l-.61-.69A2.77,2.77,0,0,1,147.26,134.22Z"/><path d="M160.3,127.85h1.76l3.89,11,1,.16v.79h-4.22v-.79l1.32-.16-.75-2.36h-4.67l-.75,2.36,1.37.16v.79h-3.79v-.79l1-.16Zm1,2.57-.4-1.41-.39,1.44-1.61,5.13H163Z"/><path d="M168.74,135.79a4.84,4.84,0,0,1-.71.2c-.32.08-.58.13-.78.16l-.1-.59a4.81,4.81,0,0,0,1.11-.4,4.4,4.4,0,0,0,1-.61h0l.65.11v6l1.32.09v.52h-3.84v-.52l1.38-.09Z"/><path d="M173.43,135.79a4.63,4.63,0,0,1-.7.2c-.32.08-.58.13-.78.16l-.11-.59a5.05,5.05,0,0,0,1.12-.4,4.32,4.32,0,0,0,.95-.61h0l.65.11v6l1.32.09v.52h-3.84v-.52l1.38-.09Z"/><path d="M131.51,185.85h1.9l.31-3.31h-1.87v-.95h2l.35-3.37h1.33l-.37,3.37h2.71l.35-3.37h1.31l-.35,3.37h1.89v.95h-2l-.29,3.31h1.93l0,1h-2.08l-.32,3.3H137l.32-3.3h-2.71l-.35,3.3h-1.33l.36-3.3h-1.78Zm3.52-3.31-.3,3.31h2.67l.33-3.31Z"/><path d="M144.47,179.21,143,179v-.8h4.71v.8l-1.49.19v9.95l1.49.18v.77H143v-.79l1.47-.16Z"/><path d="M151.39,189.53a4.61,4.61,0,0,1-1.7-2.12,8,8,0,0,1-.58-3.18,7.08,7.08,0,0,1,.7-3.23,5.2,5.2,0,0,1,1.91-2.15,5,5,0,0,1,2.73-.76,4.7,4.7,0,0,1,3.82,1.58,6.58,6.58,0,0,1,1.32,4.36,7.27,7.27,0,0,1-.71,3.28,5.44,5.44,0,0,1-1.95,2.2,5.22,5.22,0,0,1-2.78.77A4.86,4.86,0,0,1,151.39,189.53Zm.52-9.26a7.21,7.21,0,0,0-.9,4,7.06,7.06,0,0,0,.88,3.8,2.71,2.71,0,0,0,2.44,1.4,2.79,2.79,0,0,0,2.44-1.39,7.38,7.38,0,0,0,.9-4,7.06,7.06,0,0,0-.86-3.77,2.76,2.76,0,0,0-2.45-1.35A2.79,2.79,0,0,0,151.91,180.27Z"/><path d="M159.81,178.22h4.34v.8l-1.5.19,2.19,7.46.46,2.22.53-2.22,1.84-6.1-.43-1.36L166.1,179v-.8h4.5v.8l-1.57.19,2.16,7.46.54,2.4.45-2.4,2-7.46-1.59-.19v-.8h3.81v.8l-1,.19-3.19,11h-1.57l-2.44-8-2.37,8h-1.52l-3.41-11-1.06-.21Z"/><line class="cls-3" x1="186.05" y1="83.94" x2="238.15" y2="83.94"/><line class="cls-3" x1="186.05" y1="134.14" x2="238.15" y2="134.14"/><path d="M136.25,236.12h1.9l.3-3.32h-1.87v-.94h2l.35-3.38h1.33l-.37,3.38h2.7l.35-3.38h1.32l-.36,3.38h1.89v.94h-2l-.29,3.32h1.94l0,1h-2.08l-.32,3.29h-1.32l.32-3.29h-2.7l-.35,3.29h-1.33l.35-3.29h-1.77Zm3.52-3.32-.31,3.32h2.67l.34-3.32Z"/><path d="M149.21,229.48l-1.49-.2v-.8h4.7v.8l-1.49.2v10l1.49.17v.77h-4.69v-.78l1.48-.16Z"/><path d="M156.13,239.8a4.69,4.69,0,0,1-1.71-2.12,8.24,8.24,0,0,1-.57-3.18,7.18,7.18,0,0,1,.69-3.23,5.21,5.21,0,0,1,1.91-2.15,5,5,0,0,1,2.74-.76,4.71,4.71,0,0,1,3.82,1.57,6.6,6.6,0,0,1,1.32,4.36,7.15,7.15,0,0,1-.72,3.29,5.33,5.33,0,0,1-2,2.19,5.1,5.1,0,0,1-2.77.78A4.86,4.86,0,0,1,156.13,239.8Zm.52-9.26a8.95,8.95,0,0,0,0,7.76,2.83,2.83,0,0,0,4.88,0,7.38,7.38,0,0,0,.91-4,6.94,6.94,0,0,0-.87-3.77,2.74,2.74,0,0,0-2.45-1.35A2.78,2.78,0,0,0,156.65,230.54Z"/><path d="M165.59,239.59l1.33-.16v-10l-1.25-.21v-.79h2.1c.29,0,.7,0,1.21-.06s1-.06,1.25-.06a5.63,5.63,0,0,1,3.35.76,2.79,2.79,0,0,1,1,2.39,3.66,3.66,0,0,1-.63,2.08,3.13,3.13,0,0,1-1.74,1.28,2.8,2.8,0,0,1,1,.93c.29.45.65,1.06,1.08,1.85.33.6.58,1,.76,1.31s.34.44.5.47l.62.16v.78h-2.2c-.18,0-.37-.18-.58-.55s-.5-.94-.85-1.7-.72-1.52-1-2a2.18,2.18,0,0,0-.84-1c-1.14,0-1.82,0-2,0v4.29l1.58.16v.78h-4.62Zm6.56-6a3,3,0,0,0,.59-2,2.44,2.44,0,0,0-.6-1.78,2.83,2.83,0,0,0-2.07-.62,8.72,8.72,0,0,0-1,.06l-.42,0v5h1.9A2,2,0,0,0,172.15,233.62Z"/><path d="M163.09,277.29h1.76l3.89,11,1,.16v.78h-4.22v-.78l1.33-.16-.76-2.37h-4.67l-.75,2.37,1.38.16v.78h-3.8v-.78l1-.16Zm1,2.56-.4-1.41-.38,1.44L161.7,285h4.08Z"/><path d="M173.74,290.73H170.2l-.28-.48c.42-.8.93-1.85,1.54-3.16s1.16-2.52,1.65-3.61h.27l.86.45-2.88,5.55-.43.65,2.81-.15,0-2.08.91-.07v2.1l1.5-.08v.88h-1.5v1.72h-.95Z"/><path d="M163.71,326.19h1.76l3.89,11,1,.16v.78h-4.22v-.78l1.33-.16-.76-2.37H162l-.75,2.37,1.38.16v.78h-3.8v-.78l1-.16Zm1,2.56-.4-1.41-.38,1.44-1.62,5.14h4.08Z"/><path d="M171.28,341.31l-.51-.09v-.61a3.05,3.05,0,0,0,.85.1,3.58,3.58,0,0,0,1.45-.26,2.19,2.19,0,0,0,.94-.73,1.67,1.67,0,0,0,.33-1,1.45,1.45,0,0,0-.45-1.13,2,2,0,0,0-1.36-.41l-.33.09-.34.1-.18-.57a3.74,3.74,0,0,0,.84-.26,2.8,2.8,0,0,0,1.07-.74,1.47,1.47,0,0,0,.41-1,1,1,0,0,0-.36-.89,1.42,1.42,0,0,0-.91-.29,2.69,2.69,0,0,0-.93.17,3.42,3.42,0,0,0-.76.42l-.29-.48a3.13,3.13,0,0,1,1-.58,3.29,3.29,0,0,1,1.34-.28,2.64,2.64,0,0,1,1.56.42,1.46,1.46,0,0,1,.6,1.28,1.93,1.93,0,0,1-.6,1.38,3.69,3.69,0,0,1-1.41.91l.29,0a2.45,2.45,0,0,1,1.11.24,1.85,1.85,0,0,1,.74.63,1.59,1.59,0,0,1,.27.9,2.27,2.27,0,0,1-.47,1.4,3.13,3.13,0,0,1-1.33,1,5.32,5.32,0,0,1-2,.34Z"/><line class="cls-3" x1="186.23" y1="185.8" x2="238.83" y2="185.8"/><line class="cls-3" x1="185.49" y1="233.37" x2="238.09" y2="233.37"/><path d="M163.31,375.09h1.76l3.89,11,1,.16v.78h-4.23v-.78l1.33-.16-.75-2.37h-4.67l-.75,2.37,1.37.16v.78h-3.79v-.78l1-.16Zm1,2.56-.4-1.41-.39,1.44-1.61,5.13H166Z"/><path d="M172,386.8a6.61,6.61,0,0,0,1.31-1.49,2.76,2.76,0,0,0,.49-1.45,1.23,1.23,0,0,0-.36-.93,1.37,1.37,0,0,0-1-.35,2.13,2.13,0,0,0-1,.24,3.68,3.68,0,0,0-.82.6l-.34-.48a3.6,3.6,0,0,1,1.07-.8,3.17,3.17,0,0,1,1.48-.36,2.67,2.67,0,0,1,1.26.28,1.75,1.75,0,0,1,.76.71,2,2,0,0,1,.24,1,3.29,3.29,0,0,1-1,2.17,10.66,10.66,0,0,1-2.54,2l3.31-.25.37-.92.55.11-.28,1.69H170.4l-.16-.45A10.63,10.63,0,0,0,172,386.8Z"/><path d="M165,424h1.76l3.89,11,1,.17V436h-4.22v-.78l1.33-.17-.76-2.36h-4.67l-.75,2.36,1.38.17V436h-3.8v-.78l1-.17Zm1,2.57-.4-1.41-.38,1.44-1.62,5.13h4.08Z"/><path d="M173.43,431.92a4.63,4.63,0,0,1-.7.2,6,6,0,0,1-.78.16l-.11-.59a5.05,5.05,0,0,0,1.12-.4,4.32,4.32,0,0,0,.95-.61h0l.65.11v6l1.32.09v.53h-3.84v-.53l1.38-.09Z"/><path d="M162.83,472.88h1.76l3.89,11,1,.16v.79h-4.23v-.79l1.33-.16-.75-2.36h-4.67l-.75,2.36,1.37.16v.79H158v-.79l1-.16Zm1,2.56-.4-1.4-.39,1.44-1.61,5.13h4.08Z"/><path d="M170.6,485.48a4.12,4.12,0,0,1-.68-2.44,4.18,4.18,0,0,1,.38-1.83,2.94,2.94,0,0,1,1-1.2,2.64,2.64,0,0,1,1.45-.42,2.34,2.34,0,0,1,2,.89,4.18,4.18,0,0,1,.64,2.44,4.39,4.39,0,0,1-.37,1.83,3,3,0,0,1-1,1.23,2.55,2.55,0,0,1-1.45.44A2.34,2.34,0,0,1,170.6,485.48Zm3.67-2.45a5.17,5.17,0,0,0-.35-2.13,1.24,1.24,0,0,0-1.2-.75,1.31,1.31,0,0,0-1.22.71,4.26,4.26,0,0,0-.4,2,5.25,5.25,0,0,0,.38,2.17,1.28,1.28,0,0,0,1.2.82Q174.27,485.88,174.27,483Z"/><path d="M342.8,89.35a5,5,0,0,1-1.91-2.12,7.67,7.67,0,0,1,.12-6.44,5.24,5.24,0,0,1,2.16-2.14,6.63,6.63,0,0,1,3.13-.73,16.63,16.63,0,0,1,3.73.5l-.15,2.77h-1.13l-.39-1.92a2.31,2.31,0,0,0-.75-.34,5.51,5.51,0,0,0-1.44-.16,3.62,3.62,0,0,0-3.46,2.29,6.68,6.68,0,0,0-.51,2.75,8.67,8.67,0,0,0,.41,2.72,4.47,4.47,0,0,0,1.25,2,3,3,0,0,0,2.06.74,5.7,5.7,0,0,0,1.45-.18,2.83,2.83,0,0,0,1.06-.49V85l-2-.16v-.94h4.67v.94l-.92.15v4.3a5.22,5.22,0,0,0-1.17.27,14.51,14.51,0,0,1-1.57.4,8.15,8.15,0,0,1-1.63.15A5.66,5.66,0,0,1,342.8,89.35Z"/><path d="M353.39,85.89a4.63,4.63,0,0,1-.7.2,6,6,0,0,1-.78.16l-.11-.59a4.72,4.72,0,0,0,1.12-.4,3.79,3.79,0,0,0,.95-.61h0l.66.11v6l1.32.09v.53H352v-.53l1.37-.09Z"/><path d="M342.8,140.35a5,5,0,0,1-1.91-2.12,7.67,7.67,0,0,1,.12-6.44,5.24,5.24,0,0,1,2.16-2.14,6.63,6.63,0,0,1,3.13-.73,16.63,16.63,0,0,1,3.73.5l-.15,2.77h-1.13l-.39-1.92a2.31,2.31,0,0,0-.75-.34,5.51,5.51,0,0,0-1.44-.16,3.62,3.62,0,0,0-3.46,2.29,6.68,6.68,0,0,0-.51,2.75,8.67,8.67,0,0,0,.41,2.72,4.47,4.47,0,0,0,1.25,2,3,3,0,0,0,2.06.74,5.7,5.7,0,0,0,1.45-.18,2.83,2.83,0,0,0,1.06-.49V136l-2-.16v-.94h4.67v.94l-.92.15v4.3a5.22,5.22,0,0,0-1.17.27,14.51,14.51,0,0,1-1.57.4,8.15,8.15,0,0,1-1.63.15A5.66,5.66,0,0,1,342.8,140.35Z"/><path d="M353.69,140.67a6.8,6.8,0,0,0,1.31-1.48,2.8,2.8,0,0,0,.48-1.46,1.22,1.22,0,0,0-.35-.93,1.37,1.37,0,0,0-1-.35,2.17,2.17,0,0,0-1.05.24,3.86,3.86,0,0,0-.81.6l-.34-.48A3.6,3.6,0,0,1,353,136a3.17,3.17,0,0,1,1.48-.36,2.67,2.67,0,0,1,1.26.28,1.81,1.81,0,0,1,.76.71,2,2,0,0,1,.24,1,3.29,3.29,0,0,1-1,2.17,10.66,10.66,0,0,1-2.54,2l3.31-.25.37-.92.55.11-.28,1.69h-5.09l-.16-.45A10.63,10.63,0,0,0,353.69,140.67Z"/><path d="M360.86,134.41H362l2.6,7.36.66.1v.53h-2.82v-.53l.89-.1-.5-1.58h-3.12l-.5,1.58.92.1v.53h-2.53v-.53l.66-.1Zm.67,1.7-.26-.94-.26,1-1.08,3.43h2.72Z"/><path d="M342.8,189.35a5,5,0,0,1-1.91-2.12,7.67,7.67,0,0,1,.12-6.44,5.24,5.24,0,0,1,2.16-2.14,6.63,6.63,0,0,1,3.13-.73,16.63,16.63,0,0,1,3.73.5l-.15,2.77h-1.13l-.39-1.92a2.31,2.31,0,0,0-.75-.34,5.51,5.51,0,0,0-1.44-.16,3.62,3.62,0,0,0-3.46,2.29,6.68,6.68,0,0,0-.51,2.75,8.67,8.67,0,0,0,.41,2.72,4.47,4.47,0,0,0,1.25,2,3,3,0,0,0,2.06.74,5.7,5.7,0,0,0,1.45-.18,2.83,2.83,0,0,0,1.06-.49V185l-2-.16v-.94h4.67v.94l-.92.15v4.3a5.22,5.22,0,0,0-1.17.27,14.51,14.51,0,0,1-1.57.4,8.15,8.15,0,0,1-1.63.15A5.66,5.66,0,0,1,342.8,189.35Z"/><path d="M353.69,189.67a6.8,6.8,0,0,0,1.31-1.48,2.8,2.8,0,0,0,.48-1.46,1.22,1.22,0,0,0-.35-.93,1.37,1.37,0,0,0-1-.35,2.17,2.17,0,0,0-1.05.24,3.86,3.86,0,0,0-.81.6l-.34-.48A3.6,3.6,0,0,1,353,185a3.17,3.17,0,0,1,1.48-.36,2.67,2.67,0,0,1,1.26.28,1.81,1.81,0,0,1,.76.71,2,2,0,0,1,.24,1,3.29,3.29,0,0,1-1,2.17,10.66,10.66,0,0,1-2.54,2l3.31-.25.37-.92.55.11-.28,1.69h-5.09l-.16-.45A10.63,10.63,0,0,0,353.69,189.67Z"/><path d="M359.14,184.13l-.87-.13v-.53h1.44c.24,0,.55,0,.92,0s.59,0,.75,0a3.76,3.76,0,0,1,2.11.45,1.57,1.57,0,0,1,.63,1.35,2,2,0,0,1-.43,1.3,1.91,1.91,0,0,1-1.2.68,2.35,2.35,0,0,1,1.61.48,1.72,1.72,0,0,1,.59,1.37,2.25,2.25,0,0,1-.76,1.76,3.79,3.79,0,0,1-2.53.68c-.25,0-.5,0-.73,0l-1,0h-1.42v-.53l.88-.1Zm1.74,2.85h.59a1.46,1.46,0,0,0,1.13-.42,1.64,1.64,0,0,0,.38-1.18,1.38,1.38,0,0,0-.38-1.09,2,2,0,0,0-1.31-.35,7.09,7.09,0,0,0-.79,0l-.23,0v3Zm.5,3.9a2.28,2.28,0,0,0,1.57-.44,1.64,1.64,0,0,0,.48-1.27A1.53,1.53,0,0,0,363,188a2,2,0,0,0-1.36-.37c-.73,0-1.18,0-1.38,0v3.18A4.35,4.35,0,0,0,361.38,190.88Z"/><path d="M344.19,278H346l3.89,11,1,.16v.78h-4.22v-.78l1.32-.16-.75-2.37h-4.67l-.75,2.37,1.37.16v.78h-3.79v-.78l1-.16Zm1,2.56-.4-1.41-.39,1.44-1.61,5.13h4.08Z"/><path d="M352.92,289.67a6.8,6.8,0,0,0,1.31-1.48,2.82,2.82,0,0,0,.49-1.46,1.23,1.23,0,0,0-.36-.93,1.35,1.35,0,0,0-1-.35,2.13,2.13,0,0,0-1,.24,3.41,3.41,0,0,0-.81.6l-.35-.48a3.6,3.6,0,0,1,1.07-.8,3.17,3.17,0,0,1,1.48-.36,2.67,2.67,0,0,1,1.26.28,1.75,1.75,0,0,1,.76.71,2,2,0,0,1,.25,1,3.3,3.3,0,0,1-1,2.17,10.46,10.46,0,0,1-2.54,2l3.31-.25.37-.92.55.11-.28,1.69h-5.09l-.16-.45A10.24,10.24,0,0,0,352.92,289.67Z"/><path d="M344.19,327H346l3.89,11,1,.16v.78h-4.22v-.78l1.32-.16-.75-2.37h-4.67l-.75,2.37,1.37.16v.78h-3.79v-.78l1-.16Zm1,2.56-.4-1.41-.39,1.44-1.61,5.13h4.08Z"/><path d="M352.63,334.89a4.84,4.84,0,0,1-.71.2,6,6,0,0,1-.78.16l-.1-.59a4.81,4.81,0,0,0,1.11-.4,4.06,4.06,0,0,0,1-.61h0l.65.11v6l1.32.09v.53h-3.84v-.53l1.38-.09Z"/><path d="M344.19,376H346l3.89,11,1,.16v.78h-4.22v-.78l1.32-.16-.75-2.37h-4.67l-.75,2.37,1.37.16v.78h-3.79v-.78l1-.16Zm1,2.56-.4-1.41-.39,1.44-1.61,5.13h4.08Z"/><path d="M352,388.55a4.1,4.1,0,0,1-.68-2.44,4,4,0,0,1,.39-1.83,2.85,2.85,0,0,1,1-1.2,2.65,2.65,0,0,1,1.45-.41,2.31,2.31,0,0,1,2,.89,4.05,4.05,0,0,1,.64,2.43,4.24,4.24,0,0,1-.37,1.83,2.88,2.88,0,0,1-1,1.23,2.46,2.46,0,0,1-1.45.44A2.34,2.34,0,0,1,352,388.55Zm3.67-2.45a5.2,5.2,0,0,0-.35-2.13,1.24,1.24,0,0,0-1.2-.75,1.31,1.31,0,0,0-1.22.71,4.28,4.28,0,0,0-.39,2,5.26,5.26,0,0,0,.37,2.17,1.26,1.26,0,0,0,1.2.82Q355.63,389,355.63,386.1Z"/><line class="cls-3" x1="280.23" y1="84.09" x2="333.6" y2="84.48"/><line class="cls-3" x1="280.23" y1="134.36" x2="333.6" y2="134.75"/><polyline class="cls-3" points="288.26 209.44 289.06 209.44 306.65 209.44 306.65 184.44 333.55 184.44"/><circle class="cls-4" cx="284.57" cy="209.44" r="3.4"/><line class="cls-3" x1="186.39" y1="283.8" x2="333.88" y2="284.26"/><line class="cls-3" x1="186.12" y1="332.7" x2="333.6" y2="333.16"/><line class="cls-3" x1="186.12" y1="381.59" x2="333.6" y2="382.06"/><path d="M413.8,333.55l-3.6-6.26-1-.21v-.8h4.17v.8l-1.26.19,2.25,4.29.52,1.22.57-1.22,2.13-4.29-1.31-.19v-.8H420v.8l-1,.19-3.35,6.26v3.68l1.79.18v.78h-5.31v-.78l1.75-.16Z"/><path d="M424,339.63H420.4l-.27-.48c.42-.8.93-1.85,1.54-3.17s1.16-2.51,1.65-3.61h.27l.86.46-2.88,5.55-.43.65,2.81-.15,0-2.08.91-.07v2.1l1.5-.08v.88h-1.5v1.71H424Z"/><path d="M414.33,383.13l-3.6-6.26-1-.2v-.8H414v.8l-1.27.19,2.26,4.29.51,1.21.58-1.21,2.12-4.29-1.31-.19v-.8h3.65v.8l-1,.19-3.34,6.25v3.68l1.79.18v.78h-5.31V387l1.74-.16Z"/><path d="M421.91,390.37a3.08,3.08,0,0,0,1.39-.31,2.49,2.49,0,0,0,1-.85,2.2,2.2,0,0,0,.36-1.24c0-1.14-.53-1.72-1.59-1.72a3.32,3.32,0,0,0-.78.11,3.58,3.58,0,0,0-.76.24l-.28-.21.52-3.84h3l.11-.2h.66l-.19,1.1h-2.83l-.49,2.49a3.76,3.76,0,0,1,.73-.27,3.48,3.48,0,0,1,.9-.12,2.18,2.18,0,0,1,1.61.58,2.24,2.24,0,0,1,.59,1.67,2.69,2.69,0,0,1-.49,1.56A3.3,3.3,0,0,1,424,390.5a4.5,4.5,0,0,1-2,.43,3,3,0,0,1-.75-.08v-.51A6.4,6.4,0,0,0,421.91,390.37Z"/><path d="M703.84,85.68h1.91l.3-3.31h-1.87v-.94h2l.35-3.38h1.32l-.36,3.38h2.7l.35-3.38h1.31l-.35,3.38h1.89v.94h-2l-.29,3.31H713v1H711l-.31,3.3h-1.32l.32-3.3H707l-.35,3.3h-1.33l.35-3.3h-1.78Zm3.52-3.31-.3,3.31h2.67l.34-3.31Z"/><path d="M715.19,89.16l1.33-.16V79l-1.25-.2v-.79h2.09c.3,0,.71,0,1.22-.06s.95-.07,1.25-.07a5.7,5.7,0,0,1,3.35.76,2.82,2.82,0,0,1,1,2.4,3.69,3.69,0,0,1-.63,2.08,3.13,3.13,0,0,1-1.74,1.28,2.69,2.69,0,0,1,1,.93,20.68,20.68,0,0,1,1.08,1.85c.34.6.59,1,.76,1.31a1,1,0,0,0,.51.47l.62.16v.78h-2.21c-.17,0-.36-.18-.57-.55s-.5-.94-.85-1.71-.72-1.51-1-2a2.28,2.28,0,0,0-.84-1h-2V89l1.58.16v.78h-4.62Zm6.56-6a3,3,0,0,0,.59-2,2.47,2.47,0,0,0-.6-1.79,2.83,2.83,0,0,0-2.07-.61,9,9,0,0,0-1,.06l-.41,0v5c.16,0,.49,0,1,0h.91A2.05,2.05,0,0,0,721.75,83.19Z"/><path d="M727.78,79l-1.25-.19v-.8h2.1c.33,0,.8,0,1.42-.06s1.09-.07,1.39-.07a5.9,5.9,0,0,1,4.43,1.5,5.82,5.82,0,0,1,1.45,4.2,7.22,7.22,0,0,1-.75,3.35,5.43,5.43,0,0,1-2.09,2.28,5.74,5.74,0,0,1-3.08.82c-.26,0-.7,0-1.32-.07s-1.12-.06-1.43-.06h-2.2v-.78l1.33-.16Zm3.14,10.13h.48a3.9,3.9,0,0,0,2.12-.61A3.84,3.84,0,0,0,735,86.8a7.21,7.21,0,0,0,.51-2.86,5.8,5.8,0,0,0-1.1-3.84,4.07,4.07,0,0,0-3.3-1.31c-.31,0-.68,0-1.1.06a3,3,0,0,1-.48.05V89A6.31,6.31,0,0,0,730.92,89.17Z"/><path d="M703.84,135.68h1.91l.3-3.31h-1.87v-.94h2l.35-3.38h1.32l-.36,3.38h2.7l.35-3.38h1.31l-.35,3.38h1.89v.94h-2l-.29,3.31H713v1H711l-.31,3.3h-1.32l.32-3.3H707l-.35,3.3h-1.33l.35-3.3h-1.78Zm3.52-3.31-.3,3.31h2.67l.34-3.31Z"/><path d="M714.15,128.05h4.33v.8L717,129l2.19,7.46.47,2.22.52-2.22,1.84-6.1-.43-1.36-1.13-.19v-.8h4.49v.8l-1.57.19,2.16,7.46.55,2.4.45-2.4,2-7.46-1.58-.19v-.8h3.81v.8l-1.06.19-3.18,11H725l-2.45-8-2.37,8h-1.52l-3.41-11-1.05-.21Z"/><path d="M731.19,139.16l1.33-.16V129l-1.25-.2v-.79h2.09c.3,0,.71,0,1.22-.06s.95-.07,1.25-.07a5.7,5.7,0,0,1,3.35.76,2.82,2.82,0,0,1,1,2.4,3.69,3.69,0,0,1-.63,2.08,3.13,3.13,0,0,1-1.74,1.28,2.69,2.69,0,0,1,1,.93,20.68,20.68,0,0,1,1.08,1.85c.34.6.59,1,.76,1.31a1,1,0,0,0,.51.47l.62.16v.78h-2.21c-.17,0-.36-.18-.57-.55s-.5-.94-.85-1.71-.72-1.51-1-2a2.28,2.28,0,0,0-.84-1h-2V139l1.58.16v.78h-4.62Zm6.56-6a3,3,0,0,0,.59-2,2.47,2.47,0,0,0-.6-1.79,2.83,2.83,0,0,0-2.07-.61,9,9,0,0,0-1,.06l-.41,0v5c.16,0,.49,0,1,0h.91A2.05,2.05,0,0,0,737.75,133.19Z"/><path d="M703.84,185.68h1.91l.3-3.31h-1.87v-.94h2l.35-3.38h1.32l-.36,3.38h2.7l.35-3.38h1.31l-.35,3.38h1.89v.94h-2l-.29,3.31H713v1H711l-.31,3.3h-1.32l.32-3.3H707l-.35,3.3h-1.33l.35-3.3h-1.78Zm3.52-3.31-.3,3.31h2.67l.34-3.31Z"/><path d="M717.5,189.36a4.84,4.84,0,0,1-1.88-2.14A7.54,7.54,0,0,1,715,184a6.51,6.51,0,0,1,.75-3.17,5.4,5.4,0,0,1,2.07-2.14,5.8,5.8,0,0,1,2.94-.76,13.77,13.77,0,0,1,3,.39l.53.09-.16,2.88H723l-.4-2a2.07,2.07,0,0,0-.78-.33,5.82,5.82,0,0,0-1.35-.13,3,3,0,0,0-1.83.58,3.8,3.8,0,0,0-1.25,1.72,7.2,7.2,0,0,0-.46,2.72,9.06,9.06,0,0,0,.4,2.74,4.38,4.38,0,0,0,1.22,2,2.92,2.92,0,0,0,2,.73,4.43,4.43,0,0,0,1.31-.15,2.1,2.1,0,0,0,.77-.41l.68-1.57,1,.13-.38,2.27a4.21,4.21,0,0,0-1,.22,11.28,11.28,0,0,1-1.11.28,7.16,7.16,0,0,1-1.34.11A5.71,5.71,0,0,1,717.5,189.36Z"/><path d="M728.05,190c-.44-.09-.92-.22-1.44-.38a2.74,2.74,0,0,0-.72-.19l.13-2.9h1l.28,2.08a2.44,2.44,0,0,0,.88.46,4.51,4.51,0,0,0,1.36.2,2.7,2.7,0,0,0,1.84-.55,1.85,1.85,0,0,0,.64-1.5,1.68,1.68,0,0,0-.35-1.07,2.89,2.89,0,0,0-.91-.77,14.65,14.65,0,0,0-1.56-.75,12.4,12.4,0,0,1-1.56-.82,4,4,0,0,1-1.15-1.11A2.81,2.81,0,0,1,726,181a2.77,2.77,0,0,1,.47-1.58,3.27,3.27,0,0,1,1.36-1.1,5.09,5.09,0,0,1,2.07-.4,6.36,6.36,0,0,1,1.31.12q.57.11,1.29.3a3.09,3.09,0,0,0,.54.14l-.1,2.69h-1l-.32-2a1.84,1.84,0,0,0-.67-.3,3.78,3.78,0,0,0-1.09-.14,2.56,2.56,0,0,0-1.67.46,1.63,1.63,0,0,0-.57,1.34,1.68,1.68,0,0,0,.34,1.08,3.23,3.23,0,0,0,.86.73c.34.2.88.48,1.63.83a19.12,19.12,0,0,1,1.7.9,4,4,0,0,1,1.12,1.05,2.5,2.5,0,0,1,.48,1.54,3.06,3.06,0,0,1-.48,1.63,3.38,3.38,0,0,1-1.44,1.29,4.93,4.93,0,0,1-2.34.51A6.77,6.77,0,0,1,728.05,190Z"/><path d="M707.19,227H709l3.89,11,1,.16v.78h-4.22v-.78l1.32-.16-.75-2.37h-4.67l-.75,2.37,1.37.16v.78h-3.79v-.78l1-.16Zm1,2.56-.4-1.41-.39,1.44-1.61,5.13h4.08Z"/><path d="M715.63,234.89a4.84,4.84,0,0,1-.71.2,6,6,0,0,1-.78.16l-.1-.59a4.81,4.81,0,0,0,1.11-.4,4.06,4.06,0,0,0,1-.61h0l.65.11v6l1.32.09v.53h-3.84v-.53l1.38-.09Z"/><path d="M707.19,276H709l3.89,11,1,.16v.78h-4.22v-.78l1.32-.16-.75-2.37h-4.67l-.75,2.37,1.37.16v.78h-3.79v-.78l1-.16Zm1,2.56-.4-1.41-.39,1.44-1.61,5.13h4.08Z"/><path d="M715,288.55a4.1,4.1,0,0,1-.68-2.44,4,4,0,0,1,.39-1.83,2.85,2.85,0,0,1,1-1.2,2.65,2.65,0,0,1,1.45-.41,2.31,2.31,0,0,1,2,.89,4.05,4.05,0,0,1,.64,2.43,4.24,4.24,0,0,1-.37,1.83,2.88,2.88,0,0,1-1,1.23,2.46,2.46,0,0,1-1.45.44A2.34,2.34,0,0,1,715,288.55Zm3.67-2.45a5.2,5.2,0,0,0-.35-2.13,1.24,1.24,0,0,0-1.2-.75,1.31,1.31,0,0,0-1.22.71,4.28,4.28,0,0,0-.39,2,5.26,5.26,0,0,0,.37,2.17,1.26,1.26,0,0,0,1.2.82Q718.63,289,718.63,286.1Z"/><polyline class="cls-3" points="440.66 332.44 441.46 332.44 461.45 332.44 461.45 184.44 692.55 184.44"/><circle class="cls-4" cx="436.97" cy="332.44" r="3.4"/><path d="M611.87,85.32h1.9l.31-3.32H612.2v-.94h2l.35-3.38h1.33l-.37,3.38h2.7l.36-3.38h1.31l-.35,3.38h1.88V82h-2l-.28,3.32h1.93l0,1H619l-.32,3.29h-1.31l.32-3.29H615l-.35,3.29h-1.33l.35-3.29h-1.77ZM615.39,82l-.31,3.32h2.68l.33-3.32Z"/><path d="M624.83,78.68l-1.49-.2v-.8H628v.8l-1.48.2v9.95l1.48.17v.77h-4.68v-.78l1.47-.16Z"/><path d="M631.75,89A4.75,4.75,0,0,1,630,86.88a8.24,8.24,0,0,1-.57-3.18,7.18,7.18,0,0,1,.69-3.23,5.23,5.23,0,0,1,1.92-2.15,5,5,0,0,1,2.73-.76,4.7,4.7,0,0,1,3.82,1.57A6.6,6.6,0,0,1,640,83.49a7.28,7.28,0,0,1-.71,3.29,5.42,5.42,0,0,1-2,2.19,5.08,5.08,0,0,1-2.77.78A4.86,4.86,0,0,1,631.75,89Zm.52-9.26a8.95,8.95,0,0,0,0,7.76,2.83,2.83,0,0,0,4.88,0,7.29,7.29,0,0,0,.91-4,6.94,6.94,0,0,0-.87-3.77,2.73,2.73,0,0,0-2.44-1.35A2.79,2.79,0,0,0,632.27,79.74Z"/><path d="M640.17,77.68h4.34v.8l-1.51.2,2.2,7.45.46,2.23.53-2.23L648,80l-.43-1.36-1.14-.2v-.8H651v.8l-1.57.2,2.16,7.45.54,2.4.45-2.4,2-7.45-1.59-.2v-.8h3.81v.8l-1.06.2-3.18,11H651l-2.45-8-2.36,8h-1.52l-3.41-11-1.06-.21Z"/><path d="M616.6,135.58h1.91l.3-3.31h-1.87v-.94h2l.36-3.38h1.32l-.36,3.38h2.7l.35-3.38h1.31l-.35,3.38h1.89v.94h-2l-.29,3.31h1.94v1h-2.08l-.31,3.3h-1.32l.32-3.3h-2.7l-.35,3.3H618l.35-3.3H616.6Zm3.53-3.31-.31,3.31h2.67l.34-3.31Z"/><path d="M629.56,128.94l-1.48-.19V128h4.7v.8l-1.49.19v9.95l1.49.18v.77h-4.69v-.79l1.47-.16Z"/><path d="M636.48,139.26a4.61,4.61,0,0,1-1.7-2.12,8.19,8.19,0,0,1-.58-3.17,7.15,7.15,0,0,1,.7-3.23,5.23,5.23,0,0,1,1.91-2.16,5.13,5.13,0,0,1,2.74-.76,4.69,4.69,0,0,1,3.81,1.58,6.58,6.58,0,0,1,1.32,4.36,7.18,7.18,0,0,1-.71,3.29,5.33,5.33,0,0,1-2,2.19,5.11,5.11,0,0,1-2.78.77A4.91,4.91,0,0,1,636.48,139.26ZM637,130a7.26,7.26,0,0,0-.89,4,7.17,7.17,0,0,0,.87,3.8,2.74,2.74,0,0,0,2.44,1.4,2.79,2.79,0,0,0,2.44-1.4,7.36,7.36,0,0,0,.9-4,6.91,6.91,0,0,0-.86-3.76,2.75,2.75,0,0,0-2.45-1.35A2.81,2.81,0,0,0,637,130Z"/><path d="M646,139.05l1.33-.16v-9.95l-1.25-.2V128h2.09c.3,0,.71,0,1.22-.06s.95-.07,1.25-.07a5.7,5.7,0,0,1,3.35.76,2.81,2.81,0,0,1,1,2.39,3.64,3.64,0,0,1-.63,2.08,3.09,3.09,0,0,1-1.74,1.28,2.82,2.82,0,0,1,.95.94,20.68,20.68,0,0,1,1.08,1.85c.33.6.59,1,.76,1.31s.35.43.51.46l.62.16v.79h-2.21c-.17,0-.36-.18-.57-.55s-.5-.94-.85-1.71-.72-1.51-1-2a2.28,2.28,0,0,0-.84-1h-2v4.28l1.58.16v.79H646Zm6.56-6a3,3,0,0,0,.59-2,2.47,2.47,0,0,0-.6-1.79,2.83,2.83,0,0,0-2.07-.61,9,9,0,0,0-1,.06l-.41,0v5c.16,0,.49,0,1,0h.91A2.05,2.05,0,0,0,652.51,133.09Z"/><path class="cls-3" d="M666.48,83.94H692.6"/><path class="cls-3" d="M666.48,134.21H692.6"/><polyline class="cls-3" points="186.05 430.24 487.35 430.24 487.35 233.34 692.55 233.34"/><polyline class="cls-3" points="186.05 479.14 512.15 479.14 512.15 282.24 692.55 282.24"/><path d="M705.61,366l-1.25-.19v-.8h2.1c.33,0,.81,0,1.42-.06s1.09-.07,1.4-.07a5.88,5.88,0,0,1,4.42,1.5,5.78,5.78,0,0,1,1.45,4.2,7.22,7.22,0,0,1-.75,3.35,5.47,5.47,0,0,1-2.08,2.28,5.8,5.8,0,0,1-3.09.82c-.26,0-.69,0-1.31-.07s-1.12-.06-1.44-.06h-2.2v-.78l1.33-.16Zm3.14,10.13h.48a3.73,3.73,0,0,0,3.55-2.37,7.21,7.21,0,0,0,.51-2.86,5.86,5.86,0,0,0-1.09-3.84,4.09,4.09,0,0,0-3.31-1.31c-.31,0-.67,0-1.1.06a3,3,0,0,1-.48,0V376A6.31,6.31,0,0,0,708.75,376.17Z"/><path d="M717,377.55a4,4,0,0,1-.68-2.44,4.18,4.18,0,0,1,.38-1.83,2.94,2.94,0,0,1,1-1.2,2.63,2.63,0,0,1,1.45-.41,2.29,2.29,0,0,1,2,.89,4.05,4.05,0,0,1,.64,2.43,4.39,4.39,0,0,1-.36,1.83,3,3,0,0,1-1,1.23,2.45,2.45,0,0,1-1.44.44A2.34,2.34,0,0,1,717,377.55Zm3.67-2.45a5,5,0,0,0-.36-2.13,1.24,1.24,0,0,0-1.2-.75,1.29,1.29,0,0,0-1.21.71,4.15,4.15,0,0,0-.4,2,5.25,5.25,0,0,0,.38,2.17,1.25,1.25,0,0,0,1.2.82Q720.69,378,720.69,375.1Z"/><path d="M725.21,371.32a2.67,2.67,0,0,1,1.47-.44,2,2,0,0,1,.9.19,5.59,5.59,0,0,1,.86.56,6.61,6.61,0,0,0,.62.43,1.08,1.08,0,0,0,.56.14,2,2,0,0,0,1.64-.91l.62.67a3,3,0,0,1-1,1.05,2.49,2.49,0,0,1-1.44.44,1.86,1.86,0,0,1-.87-.19,6.3,6.3,0,0,1-.81-.54,4.22,4.22,0,0,0-.64-.46,1.25,1.25,0,0,0-.61-.15,2.1,2.1,0,0,0-1.66.91l-.61-.69A2.77,2.77,0,0,1,725.21,371.32Z"/><path d="M735.67,366l-1.25-.19v-.8h2.1c.33,0,.8,0,1.42-.06s1.09-.07,1.4-.07a5.9,5.9,0,0,1,4.42,1.5,5.82,5.82,0,0,1,1.45,4.2,7.22,7.22,0,0,1-.75,3.35,5.47,5.47,0,0,1-2.08,2.28,5.8,5.8,0,0,1-3.09.82c-.26,0-.7,0-1.31-.07s-1.12-.06-1.44-.06h-2.2v-.78l1.33-.16Zm3.14,10.13h.48a3.9,3.9,0,0,0,2.12-.61,3.84,3.84,0,0,0,1.43-1.76,7.21,7.21,0,0,0,.51-2.86,5.86,5.86,0,0,0-1.09-3.84,4.1,4.1,0,0,0-3.31-1.31c-.31,0-.68,0-1.1.06a3,3,0,0,1-.48,0V376A6.31,6.31,0,0,0,738.81,376.17Z"/><path d="M747.45,379.92c.39-.84.75-1.68,1.11-2.53l1.47-3.61.51-1.26-3.16,0-.45,1.42-.68-.13.22-2.11h4.87l.22.29c-.35,1-.84,2.34-1.46,4.1s-1.11,3.13-1.45,4.11Z"/><path d="M704.84,423.68h1.91l.3-3.31h-1.87v-.94h2l.35-3.38h1.32l-.36,3.38h2.7l.35-3.38h1.31l-.35,3.38h1.89v.94h-2l-.29,3.31H714v1H712l-.31,3.3h-1.32l.32-3.3H708l-.35,3.3h-1.33l.35-3.3h-1.78Zm3.52-3.31-.3,3.31h2.67l.34-3.31Z"/><path d="M716.19,427.16l1.33-.16V417l-1.25-.2v-.79h2.09c.3,0,.71,0,1.22-.06s.95-.07,1.25-.07a5.7,5.7,0,0,1,3.35.76,2.82,2.82,0,0,1,1,2.4,3.69,3.69,0,0,1-.63,2.08,3.13,3.13,0,0,1-1.74,1.28,2.69,2.69,0,0,1,1,.93,20.68,20.68,0,0,1,1.08,1.85c.34.6.59,1,.76,1.31a1,1,0,0,0,.51.47l.62.16v.78h-2.21c-.17,0-.36-.18-.57-.55s-.5-.94-.85-1.71-.72-1.51-1-2a2.28,2.28,0,0,0-.84-1h-2V427l1.58.16v.78h-4.62Zm6.56-6a3,3,0,0,0,.59-2,2.47,2.47,0,0,0-.6-1.79,2.83,2.83,0,0,0-2.07-.61,9,9,0,0,0-1,.06l-.41,0v5c.16,0,.49,0,1,0h.91A2.05,2.05,0,0,0,722.75,421.19Z"/><path d="M728.78,417l-1.25-.19v-.8h2.1c.33,0,.8,0,1.42-.06s1.09-.07,1.39-.07a5.9,5.9,0,0,1,4.43,1.5,5.82,5.82,0,0,1,1.45,4.2,7.22,7.22,0,0,1-.75,3.35,5.43,5.43,0,0,1-2.09,2.28,5.74,5.74,0,0,1-3.08.82c-.26,0-.7,0-1.32-.07s-1.12-.06-1.43-.06h-2.2v-.78l1.33-.16Zm3.14,10.13h.48a3.9,3.9,0,0,0,2.12-.61A3.84,3.84,0,0,0,736,424.8a7.21,7.21,0,0,0,.51-2.86,5.8,5.8,0,0,0-1.1-3.84,4.07,4.07,0,0,0-3.3-1.31c-.31,0-.68,0-1.1.06a3,3,0,0,1-.48,0V427A6.31,6.31,0,0,0,731.92,427.17Z"/><path d="M704.84,473.68h1.91l.3-3.31h-1.87v-.94h2l.35-3.38h1.32l-.36,3.38h2.7l.35-3.38h1.31l-.35,3.38h1.89v.94h-2l-.29,3.31H714v1H712l-.31,3.3h-1.32l.32-3.3H708l-.35,3.3h-1.33l.35-3.3h-1.78Zm3.52-3.31-.3,3.31h2.67l.34-3.31Z"/><path d="M715.15,466.05h4.33v.8L718,467l2.19,7.46.47,2.22.52-2.22,1.84-6.1-.43-1.36-1.13-.19v-.8h4.49v.8l-1.57.19,2.16,7.46.55,2.4.45-2.4,2-7.46-1.58-.19v-.8h3.81v.8l-1.06.19-3.18,11H726l-2.45-8-2.37,8h-1.52l-3.41-11-1.05-.21Z"/><path d="M732.19,477.16l1.33-.16V467l-1.25-.2v-.79h2.09c.3,0,.71,0,1.22-.06s.95-.07,1.25-.07a5.7,5.7,0,0,1,3.35.76,2.82,2.82,0,0,1,1,2.4,3.69,3.69,0,0,1-.63,2.08,3.13,3.13,0,0,1-1.74,1.28,2.69,2.69,0,0,1,1,.93,20.68,20.68,0,0,1,1.08,1.85c.34.6.59,1,.76,1.31a1,1,0,0,0,.51.47l.62.16v.78h-2.21c-.17,0-.36-.18-.57-.55s-.5-.94-.85-1.71-.72-1.51-1-2a2.28,2.28,0,0,0-.84-1h-2V477l1.58.16v.78h-4.62Zm6.56-6a3,3,0,0,0,.59-2,2.47,2.47,0,0,0-.6-1.79,2.83,2.83,0,0,0-2.07-.61,9,9,0,0,0-1,.06l-.41,0v5c.16,0,.49,0,1,0h.91A2.05,2.05,0,0,0,738.75,471.19Z"/><path d="M704.84,523.68h1.91l.3-3.31h-1.87v-.94h2l.35-3.38h1.32l-.36,3.38h2.7l.35-3.38h1.31l-.35,3.38h1.89v.94h-2l-.29,3.31H714v1H712l-.31,3.3h-1.32l.32-3.3H708l-.35,3.3h-1.33l.35-3.3h-1.78Zm3.52-3.31-.3,3.31h2.67l.34-3.31Z"/><path d="M718.5,527.36a4.84,4.84,0,0,1-1.88-2.14A7.54,7.54,0,0,1,716,522a6.51,6.51,0,0,1,.75-3.17,5.4,5.4,0,0,1,2.07-2.14,5.8,5.8,0,0,1,2.94-.76,13.77,13.77,0,0,1,3,.39l.53.09-.16,2.88H724l-.4-2a2.07,2.07,0,0,0-.78-.33,5.82,5.82,0,0,0-1.35-.13,3,3,0,0,0-1.83.58,3.8,3.8,0,0,0-1.25,1.72,7.2,7.2,0,0,0-.46,2.72,9.06,9.06,0,0,0,.4,2.74,4.38,4.38,0,0,0,1.22,2,2.92,2.92,0,0,0,2,.73,4.43,4.43,0,0,0,1.31-.15,2.1,2.1,0,0,0,.77-.41l.68-1.57,1,.13-.38,2.27a4.21,4.21,0,0,0-1,.22,11.28,11.28,0,0,1-1.11.28,7.16,7.16,0,0,1-1.34.11A5.71,5.71,0,0,1,718.5,527.36Z"/><path d="M729.05,528c-.44-.09-.92-.22-1.44-.38a2.74,2.74,0,0,0-.72-.19l.13-2.9h1l.28,2.08a2.44,2.44,0,0,0,.88.46,4.51,4.51,0,0,0,1.36.2,2.7,2.7,0,0,0,1.84-.55,1.85,1.85,0,0,0,.64-1.5,1.68,1.68,0,0,0-.35-1.07,2.89,2.89,0,0,0-.91-.77,14.65,14.65,0,0,0-1.56-.75,12.4,12.4,0,0,1-1.56-.82,4,4,0,0,1-1.15-1.11A2.81,2.81,0,0,1,727,519a2.77,2.77,0,0,1,.47-1.58,3.27,3.27,0,0,1,1.36-1.1,5.09,5.09,0,0,1,2.07-.4,6.36,6.36,0,0,1,1.31.12q.57.11,1.29.3a3.09,3.09,0,0,0,.54.14l-.1,2.69h-1l-.32-2a1.84,1.84,0,0,0-.67-.3,3.78,3.78,0,0,0-1.09-.14,2.56,2.56,0,0,0-1.67.46,1.63,1.63,0,0,0-.57,1.34,1.68,1.68,0,0,0,.34,1.08,3.23,3.23,0,0,0,.86.73c.34.2.88.48,1.63.83a19.12,19.12,0,0,1,1.7.9,4,4,0,0,1,1.12,1,2.5,2.5,0,0,1,.48,1.54,3.06,3.06,0,0,1-.48,1.63,3.38,3.38,0,0,1-1.44,1.29,4.93,4.93,0,0,1-2.34.51A6.77,6.77,0,0,1,729.05,528Z"/><path d="M708.19,565H710l3.89,11,1,.16v.78h-4.22v-.78l1.32-.16-.75-2.37h-4.67l-.75,2.37,1.37.16v.78h-3.79v-.78l1-.16Zm1,2.56-.4-1.41-.39,1.44-1.61,5.13h4.08Z"/><path d="M716.63,572.89a4.84,4.84,0,0,1-.71.2,6,6,0,0,1-.78.16l-.1-.59a4.81,4.81,0,0,0,1.11-.4,4.06,4.06,0,0,0,1-.61h0l.65.11v6l1.32.09v.53h-3.84v-.53l1.38-.09Z"/><path d="M708.19,614H710l3.89,11,1,.16v.78h-4.22v-.78l1.32-.16-.75-2.37h-4.67l-.75,2.37,1.37.16v.78h-3.79v-.78l1-.16Zm1,2.56-.4-1.41-.39,1.44-1.61,5.13h4.08Z"/><path d="M716,626.55a4.1,4.1,0,0,1-.68-2.44,4,4,0,0,1,.39-1.83,2.85,2.85,0,0,1,1-1.2,2.65,2.65,0,0,1,1.45-.41,2.31,2.31,0,0,1,2,.89,4.05,4.05,0,0,1,.64,2.43,4.24,4.24,0,0,1-.37,1.83,2.88,2.88,0,0,1-1,1.23,2.46,2.46,0,0,1-1.45.44A2.34,2.34,0,0,1,716,626.55Zm3.67-2.45a5.2,5.2,0,0,0-.35-2.13,1.24,1.24,0,0,0-1.2-.75,1.31,1.31,0,0,0-1.22.71,4.28,4.28,0,0,0-.39,2,5.26,5.26,0,0,0,.37,2.17,1.26,1.26,0,0,0,1.2.82Q719.63,627,719.63,624.1Z"/><path d="M612.88,423.31h1.9l.31-3.31h-1.87v-.95h2l.35-3.37h1.33l-.37,3.37h2.71l.35-3.37h1.31l-.35,3.37h1.89V420h-2l-.29,3.31h1.93l0,1H620l-.32,3.3h-1.31l.32-3.3H616l-.35,3.3H614.3l.36-3.3h-1.78ZM616.4,420l-.3,3.31h2.67l.33-3.31Z"/><path d="M625.84,416.67l-1.49-.19v-.8h4.71v.8l-1.49.19v9.95l1.49.18v.77h-4.69v-.79l1.47-.16Z"/><path d="M632.76,427a4.61,4.61,0,0,1-1.7-2.12,8,8,0,0,1-.58-3.18,7.08,7.08,0,0,1,.7-3.23,5.2,5.2,0,0,1,1.91-2.15,5,5,0,0,1,2.73-.76,4.7,4.7,0,0,1,3.82,1.58,6.58,6.58,0,0,1,1.32,4.36,7.27,7.27,0,0,1-.71,3.28,5.39,5.39,0,0,1-2,2.2,5.16,5.16,0,0,1-2.77.77A4.86,4.86,0,0,1,632.76,427Zm.52-9.26a8.95,8.95,0,0,0,0,7.76,2.73,2.73,0,0,0,2.44,1.4,2.79,2.79,0,0,0,2.45-1.39,7.38,7.38,0,0,0,.9-4,7.06,7.06,0,0,0-.86-3.77,2.76,2.76,0,0,0-2.45-1.35A2.79,2.79,0,0,0,633.28,417.73Z"/><path d="M641.18,415.68h4.34v.8l-1.51.19,2.2,7.46.46,2.22.53-2.22L649,418l-.43-1.36-1.14-.19v-.8H652v.8l-1.57.19,2.16,7.46.54,2.4.45-2.4,2-7.46-1.59-.19v-.8h3.81v.8l-1.06.19-3.18,11H652l-2.45-8-2.36,8h-1.52l-3.41-11-1.06-.21Z"/><path d="M617.62,473.58h1.9l.3-3.32H618v-.94h2l.35-3.37h1.33l-.37,3.37H624l.35-3.37h1.32l-.36,3.37h1.89v.94h-2l-.29,3.32h1.94l0,1h-2.08l-.32,3.29H623.1l.32-3.29h-2.7l-.35,3.29H619l.35-3.29h-1.77Zm3.52-3.32-.31,3.32h2.67l.34-3.32Z"/><path d="M630.58,466.94l-1.49-.19V466h4.7v.8l-1.49.19v9.95l1.49.18v.76H629.1v-.78l1.48-.16Z"/><path d="M637.5,477.26a4.57,4.57,0,0,1-1.71-2.12,8.24,8.24,0,0,1-.58-3.18,7.18,7.18,0,0,1,.7-3.23,5.21,5.21,0,0,1,1.91-2.15,5,5,0,0,1,2.74-.76,4.71,4.71,0,0,1,3.82,1.57,6.65,6.65,0,0,1,1.31,4.36A7.15,7.15,0,0,1,645,475a5.21,5.21,0,0,1-2,2.19,5.11,5.11,0,0,1-2.78.78A4.85,4.85,0,0,1,637.5,477.26ZM638,468a8.95,8.95,0,0,0,0,7.76,2.83,2.83,0,0,0,4.88,0,7.38,7.38,0,0,0,.9-4,7,7,0,0,0-.86-3.77,2.75,2.75,0,0,0-2.45-1.35A2.78,2.78,0,0,0,638,468Z"/><path d="M647,477.05l1.33-.16v-9.95l-1.25-.21V466h2.09c.3,0,.71,0,1.22-.07s.95-.06,1.25-.06a5.63,5.63,0,0,1,3.35.76,2.79,2.79,0,0,1,1,2.39,3.66,3.66,0,0,1-.63,2.08,3.09,3.09,0,0,1-1.74,1.28,2.69,2.69,0,0,1,.95.93c.3.45.66,1.06,1.08,1.85.34.6.59,1,.76,1.31s.35.44.51.47l.62.16v.78h-2.21c-.17,0-.36-.18-.57-.55s-.5-.94-.85-1.7-.72-1.51-1-2a2.24,2.24,0,0,0-.84-.95c-1.14,0-1.82,0-2,0v4.29l1.58.16v.78H647Zm6.56-6a3,3,0,0,0,.59-2,2.44,2.44,0,0,0-.6-1.78,2.83,2.83,0,0,0-2.07-.62,7.23,7.23,0,0,0-1,.07l-.41,0v5h1.9A2.05,2.05,0,0,0,653.52,471.08Z"/><path class="cls-3" d="M667.49,421.93h26.12"/><path class="cls-3" d="M667.49,472.2h26.12"/><polyline class="cls-3" points="186.05 33.64 572.45 33.64 572.45 371.64 693.55 371.64"/><polyline class="cls-3" points="186.05 430.24 487.25 430.24 487.25 571.34 693.55 571.34"/><polyline class="cls-3" points="186.05 479.14 512.15 479.14 512.15 620.24 693.55 620.24"/><polyline class="cls-3" points="440.66 382.04 441.46 382.04 543.55 382.04 543.55 522.44 693.55 522.44"/><circle class="cls-4" cx="436.97" cy="382.04" r="3.4"/><path class="cls-5" d="M25.69,17.93a3.89,3.89,0,0,0-1.76-1.33,5.79,5.79,0,0,0-2.11-.42,5.85,5.85,0,0,0-2.4.48A5.63,5.63,0,0,0,17.56,18a5.89,5.89,0,0,0-1.2,2,7,7,0,0,0-.42,2.45,7.64,7.64,0,0,0,.41,2.54,5.72,5.72,0,0,0,1.16,2,5.28,5.28,0,0,0,1.81,1.28,5.88,5.88,0,0,0,2.38.46,5.3,5.3,0,0,0,2.43-.54,4.77,4.77,0,0,0,1.7-1.43l2.42,1.71a7.76,7.76,0,0,1-2.76,2.19,8.76,8.76,0,0,1-3.81.78A9.85,9.85,0,0,1,18,30.71,8.27,8.27,0,0,1,13.28,26a9.46,9.46,0,0,1-.67-3.63,9.3,9.3,0,0,1,.7-3.69,8.07,8.07,0,0,1,1.95-2.79,8.61,8.61,0,0,1,2.91-1.78,10.32,10.32,0,0,1,3.65-.62,10.21,10.21,0,0,1,1.7.15,9.6,9.6,0,0,1,1.71.48,8.6,8.6,0,0,1,1.53.81A5,5,0,0,1,28,16.11Z"/><path class="cls-5" d="M30.13,14h5.54a12.56,12.56,0,0,1,2.64.26,5.57,5.57,0,0,1,2,.87,4,4,0,0,1,1.3,1.53,5.2,5.2,0,0,1,.46,2.26,4.89,4.89,0,0,1-.53,2.37,4.26,4.26,0,0,1-1.43,1.55,6.18,6.18,0,0,1-2.1.85,11.57,11.57,0,0,1-2.54.27H33.15v7h-3Zm5.13,7.41a9.22,9.22,0,0,0,1.42-.1,4.12,4.12,0,0,0,1.2-.39,2.18,2.18,0,0,0,.84-.75A2.34,2.34,0,0,0,39,18.87a2,2,0,0,0-1.14-1.95,3.61,3.61,0,0,0-1.18-.34,10,10,0,0,0-1.35-.09H33.15v4.87Z"/><path class="cls-5" d="M58.3,24.7a7,7,0,0,1-.53,2.77,6,6,0,0,1-1.44,2.1,6.28,6.28,0,0,1-2.16,1.33,8,8,0,0,1-5.42,0,6.32,6.32,0,0,1-2.17-1.33,5.79,5.79,0,0,1-1.44-2.1,7,7,0,0,1-.52-2.77V14h3V24.58a5.74,5.74,0,0,0,.2,1.48,3.58,3.58,0,0,0,.63,1.3,3.26,3.26,0,0,0,1.18.94,4.73,4.73,0,0,0,3.62,0,3.26,3.26,0,0,0,1.18-.94,3.58,3.58,0,0,0,.63-1.3,5.74,5.74,0,0,0,.2-1.48V14h3Z"/><path class="cls-5" d="M406.56,147.72V136.17h2.64L423.55,143v3.39l-14.4-7.15v8.52Z"/><path class="cls-5" d="M420,126v7.85h-2.54l-10.92-7.23v-3.45h11v-2.38H420v2.38h3.53V126Zm-10.08,0v0l7.61,4.82V126Z"/><path class="cls-5" d="M410.06,113l2.76,3.36-2,1.68-4.27-5.3v-2.62h17V113Z"/><path class="cls-5" d="M413.54,99.93v-.76a7.93,7.93,0,0,0-.11-1.29,3.69,3.69,0,0,0-.39-1.16,2.46,2.46,0,0,0-.78-.85,2.29,2.29,0,0,0-1.29-.33,2.32,2.32,0,0,0-1,.22,2.23,2.23,0,0,0-.77.59,2.49,2.49,0,0,0-.48.86,3.21,3.21,0,0,0-.17,1,2.54,2.54,0,0,0,.61,1.75,3,3,0,0,0,1.58,1l-.7,2.71a4.34,4.34,0,0,1-1.57-.73,5.18,5.18,0,0,1-1.22-1.25,5.58,5.58,0,0,1-.81-1.64,6.42,6.42,0,0,1-.28-1.92,7.2,7.2,0,0,1,.29-2.1,5.5,5.5,0,0,1,.89-1.74,4.36,4.36,0,0,1,1.45-1.18,4.45,4.45,0,0,1,2-.43,3.91,3.91,0,0,1,2.44.83,3.84,3.84,0,0,1,1.4,2.22h.05a4.45,4.45,0,0,1,1.4-2.53,3.88,3.88,0,0,1,2.68-1,4.91,4.91,0,0,1,2.3.51,4.78,4.78,0,0,1,1.63,1.35,6,6,0,0,1,1,1.9,7.5,7.5,0,0,1,.32,2.14,8.92,8.92,0,0,1-.23,2,5.81,5.81,0,0,1-.71,1.76,5.22,5.22,0,0,1-1.24,1.42,5.67,5.67,0,0,1-1.83,1l-.84-2.69a3.57,3.57,0,0,0,1.71-1.17,3.38,3.38,0,0,0,.69-2.21,4.37,4.37,0,0,0-.15-1.12,3,3,0,0,0-.5-1,2.53,2.53,0,0,0-.86-.72,2.81,2.81,0,0,0-1.3-.28,2.39,2.39,0,0,0-1.38.4,2.91,2.91,0,0,0-.88,1,4.37,4.37,0,0,0-.47,1.33,7,7,0,0,0-.15,1.4v.72Z"/><path class="cls-5" d="M406.13,83.07a6.8,6.8,0,0,1,.31-2.08,4.92,4.92,0,0,1,.91-1.71,4.23,4.23,0,0,1,3.38-1.57,4.06,4.06,0,0,1,2.48.74,3.81,3.81,0,0,1,1.36,1.88h.05a4,4,0,0,1,.54-1.25,4.21,4.21,0,0,1,2.13-1.69,4,4,0,0,1,1.46-.26,5.12,5.12,0,0,1,2.24.47,4.93,4.93,0,0,1,1.65,1.27,5.52,5.52,0,0,1,1,1.89,8,8,0,0,1,0,4.61,5.47,5.47,0,0,1-1,1.88A4.81,4.81,0,0,1,421,88.52a5.12,5.12,0,0,1-2.24.47,4.35,4.35,0,0,1-1.51-.26A4.5,4.5,0,0,1,416,88a4.21,4.21,0,0,1-.87-1,4.85,4.85,0,0,1-.52-1.2h-.05a4.12,4.12,0,0,1-1.32,1.89,3.67,3.67,0,0,1-2.4.75,4.43,4.43,0,0,1-2-.42,4.33,4.33,0,0,1-1.49-1.15,5.42,5.42,0,0,1-1-1.7A6.51,6.51,0,0,1,406.13,83.07Zm2.39,0a2.49,2.49,0,0,0,.65,1.77,2.3,2.3,0,0,0,1.74.68,2.49,2.49,0,0,0,1.75-.66,2.34,2.34,0,0,0,.71-1.79,2.45,2.45,0,0,0-.19-1,2.52,2.52,0,0,0-.52-.79,2.67,2.67,0,0,0-.79-.53,2.38,2.38,0,0,0-1-.19,2.47,2.47,0,0,0-1,.2,2.31,2.31,0,0,0-.75.56,2.36,2.36,0,0,0-.48.79A2.59,2.59,0,0,0,408.52,83.06Zm7.3,0a3,3,0,0,0,.22,1.17,2.79,2.79,0,0,0,.59.93,2.7,2.7,0,0,0,.91.63,3.13,3.13,0,0,0,1.2.22,2.63,2.63,0,0,0,2.09-.84,3.31,3.31,0,0,0,0-4.2,2.63,2.63,0,0,0-2.09-.84,3,3,0,0,0-1.17.23,2.73,2.73,0,0,0-.93.63,2.66,2.66,0,0,0-.6.93A2.93,2.93,0,0,0,415.82,83.06Z"/><path class="cls-5" d="M833.86,269.52a6.76,6.76,0,0,1,2.08.31,5.1,5.1,0,0,1,1.71.91,4.23,4.23,0,0,1,1.57,3.38,4,4,0,0,1-.74,2.48A3.81,3.81,0,0,1,836.6,278V278a4,4,0,0,1,1.25.54,4.21,4.21,0,0,1,1.69,2.13,4,4,0,0,1,.26,1.46,5.09,5.09,0,0,1-.47,2.24,4.93,4.93,0,0,1-1.27,1.65,5.54,5.54,0,0,1-1.89,1,8.22,8.22,0,0,1-4.61,0,5.49,5.49,0,0,1-1.88-1,4.81,4.81,0,0,1-1.27-1.65,5.09,5.09,0,0,1-.47-2.24,4.35,4.35,0,0,1,.26-1.51,4.5,4.5,0,0,1,.71-1.23,4.21,4.21,0,0,1,1-.87,4.85,4.85,0,0,1,1.2-.52V278a4.12,4.12,0,0,1-1.89-1.32,3.63,3.63,0,0,1-.75-2.4,4.43,4.43,0,0,1,.42-1.95,4.33,4.33,0,0,1,1.15-1.49,5.42,5.42,0,0,1,1.7-.95A6.51,6.51,0,0,1,833.86,269.52Zm0,9.69a3,3,0,0,0-1.17.22,2.79,2.79,0,0,0-.93.59,2.49,2.49,0,0,0-.62.92,2.87,2.87,0,0,0-.23,1.19,2.67,2.67,0,0,0,.84,2.1,3.35,3.35,0,0,0,4.2,0,2.67,2.67,0,0,0,.84-2.1,3,3,0,0,0-.23-1.17,2.73,2.73,0,0,0-.63-.93,2.66,2.66,0,0,0-.93-.6A2.93,2.93,0,0,0,833.87,279.21Zm0-7.29a2.44,2.44,0,0,0-1.76.64,2.27,2.27,0,0,0-.69,1.74,2.49,2.49,0,0,0,.66,1.75,2.31,2.31,0,0,0,1.79.71,2.45,2.45,0,0,0,1-.19,2.36,2.36,0,0,0,.79-.52,2.67,2.67,0,0,0,.53-.79,2.38,2.38,0,0,0,.19-1,2.47,2.47,0,0,0-.2-1,2.31,2.31,0,0,0-.56-.75,2.36,2.36,0,0,0-.79-.48A2.58,2.58,0,0,0,833.87,271.92Z"/><path class="cls-5" d="M842.84,284.3l6.56-6.43a8.25,8.25,0,0,0,1.26-1.55,3.43,3.43,0,0,0,.46-1.79,2.47,2.47,0,0,0-.78-1.91,2.76,2.76,0,0,0-1.93-.7,2.54,2.54,0,0,0-2,.82,3.85,3.85,0,0,0-.91,2.08l-2.81-.43a5.32,5.32,0,0,1,1.83-3.48,5.55,5.55,0,0,1,1.74-1,6.1,6.1,0,0,1,2.17-.37,7.11,7.11,0,0,1,2.12.31,5.36,5.36,0,0,1,1.82.95,4.82,4.82,0,0,1,1.26,1.56,4.68,4.68,0,0,1,.46,2.14,5.34,5.34,0,0,1-.21,1.53,6.34,6.34,0,0,1-.59,1.33,9,9,0,0,1-.86,1.19c-.33.37-.69.74-1.07,1.09l-4.9,4.68h7.66v2.64H842.84Z"/><path class="cls-5" d="M868,272.54H861l-.17,3.67a5.82,5.82,0,0,1,1-.17c.37,0,.71,0,1,0a7.17,7.17,0,0,1,2.31.36,5.46,5.46,0,0,1,1.86,1,4.84,4.84,0,0,1,1.24,1.68,5.67,5.67,0,0,1,.44,2.29,6.14,6.14,0,0,1-.49,2.53,5.52,5.52,0,0,1-1.33,1.89,5.82,5.82,0,0,1-2,1.17,6.8,6.8,0,0,1-2.4.41,6.3,6.3,0,0,1-3.6-1,5.76,5.76,0,0,1-2.14-2.73l2.62-1a3.37,3.37,0,0,0,1.2,1.62,3.27,3.27,0,0,0,2,.61,3.61,3.61,0,0,0,1.23-.21,2.94,2.94,0,0,0,1.69-1.65,3.5,3.5,0,0,0,.25-1.38,3.45,3.45,0,0,0-.34-1.63,2.87,2.87,0,0,0-.87-1,3.17,3.17,0,0,0-1.21-.55,5.76,5.76,0,0,0-1.37-.16,7.39,7.39,0,0,0-1,.07,9.46,9.46,0,0,0-1.06.21,9,9,0,0,0-1,.3,6.53,6.53,0,0,0-.87.36l.29-9.29H868Z"/><path class="cls-5" d="M882.59,272.54h-6.94l-.17,3.67a5.82,5.82,0,0,1,1-.17c.37,0,.71,0,1,0a7.17,7.17,0,0,1,2.31.36,5.46,5.46,0,0,1,1.86,1,4.84,4.84,0,0,1,1.24,1.68,5.67,5.67,0,0,1,.44,2.29,6.14,6.14,0,0,1-.49,2.53,5.52,5.52,0,0,1-1.33,1.89,5.82,5.82,0,0,1-2,1.17,6.8,6.8,0,0,1-2.4.41,6.3,6.3,0,0,1-3.6-1,5.76,5.76,0,0,1-2.14-2.73l2.62-1a3.37,3.37,0,0,0,1.2,1.62,3.27,3.27,0,0,0,2,.61,3.61,3.61,0,0,0,1.23-.21,2.94,2.94,0,0,0,1.69-1.65,3.5,3.5,0,0,0,.25-1.38,3.45,3.45,0,0,0-.34-1.63,2.87,2.87,0,0,0-.87-1,3.17,3.17,0,0,0-1.21-.55,5.76,5.76,0,0,0-1.37-.16,7.39,7.39,0,0,0-1,.07,9.46,9.46,0,0,0-1.06.21,9,9,0,0,0-1,.3,6.53,6.53,0,0,0-.87.36l.29-9.29h9.67Z"/><path class="cls-5" d="M833.86,606.52a6.76,6.76,0,0,1,2.08.31,5.1,5.1,0,0,1,1.71.91,4.23,4.23,0,0,1,1.57,3.38,4,4,0,0,1-.74,2.48A3.81,3.81,0,0,1,836.6,615v0a4,4,0,0,1,1.25.54,4.21,4.21,0,0,1,1.69,2.13,4,4,0,0,1,.26,1.46,5.09,5.09,0,0,1-.47,2.24,4.93,4.93,0,0,1-1.27,1.65,5.54,5.54,0,0,1-1.89,1,8.22,8.22,0,0,1-4.61,0,5.49,5.49,0,0,1-1.88-1,4.81,4.81,0,0,1-1.27-1.65,5.09,5.09,0,0,1-.47-2.24,4.35,4.35,0,0,1,.26-1.51,4.5,4.5,0,0,1,.71-1.23,4.21,4.21,0,0,1,1-.87,4.85,4.85,0,0,1,1.2-.52v0a4.12,4.12,0,0,1-1.89-1.32,3.63,3.63,0,0,1-.75-2.4,4.43,4.43,0,0,1,.42-2,4.33,4.33,0,0,1,1.15-1.49,5.42,5.42,0,0,1,1.7-.95A6.51,6.51,0,0,1,833.86,606.52Zm0,9.69a3,3,0,0,0-1.17.22,2.79,2.79,0,0,0-.93.59,2.49,2.49,0,0,0-.62.92,2.87,2.87,0,0,0-.23,1.19,2.67,2.67,0,0,0,.84,2.1,3.35,3.35,0,0,0,4.2,0,2.67,2.67,0,0,0,.84-2.1,3,3,0,0,0-.23-1.17,2.73,2.73,0,0,0-.63-.93,2.66,2.66,0,0,0-.93-.6A2.93,2.93,0,0,0,833.87,616.21Zm0-7.29a2.44,2.44,0,0,0-1.76.64,2.27,2.27,0,0,0-.69,1.74,2.49,2.49,0,0,0,.66,1.75,2.31,2.31,0,0,0,1.79.71,2.45,2.45,0,0,0,1-.19,2.36,2.36,0,0,0,.79-.52,2.67,2.67,0,0,0,.53-.79,2.38,2.38,0,0,0,.19-1,2.47,2.47,0,0,0-.2-1,2.31,2.31,0,0,0-.56-.75,2.36,2.36,0,0,0-.79-.48A2.58,2.58,0,0,0,833.87,608.92Z"/><path class="cls-5" d="M842.84,621.3l6.56-6.43a8.25,8.25,0,0,0,1.26-1.55,3.43,3.43,0,0,0,.46-1.79,2.47,2.47,0,0,0-.78-1.91,2.76,2.76,0,0,0-1.93-.7,2.54,2.54,0,0,0-2,.82,3.85,3.85,0,0,0-.91,2.08l-2.81-.43a5.32,5.32,0,0,1,1.83-3.48,5.55,5.55,0,0,1,1.74-1,6.1,6.1,0,0,1,2.17-.37,7.11,7.11,0,0,1,2.12.31,5.36,5.36,0,0,1,1.82.95,4.82,4.82,0,0,1,1.26,1.56,4.68,4.68,0,0,1,.46,2.14,5.34,5.34,0,0,1-.21,1.53,6.34,6.34,0,0,1-.59,1.33,9,9,0,0,1-.86,1.19c-.33.37-.69.74-1.07,1.09l-4.9,4.68h7.66v2.64H842.84Z"/><path class="cls-5" d="M868,609.54H861l-.17,3.67a5.82,5.82,0,0,1,1-.17c.37,0,.71,0,1,0a7.17,7.17,0,0,1,2.31.36,5.46,5.46,0,0,1,1.86,1,4.84,4.84,0,0,1,1.24,1.68,5.67,5.67,0,0,1,.44,2.29,6.14,6.14,0,0,1-.49,2.53,5.52,5.52,0,0,1-1.33,1.89,5.82,5.82,0,0,1-2,1.17,6.8,6.8,0,0,1-2.4.41,6.3,6.3,0,0,1-3.6-1,5.76,5.76,0,0,1-2.14-2.73l2.62-1a3.37,3.37,0,0,0,1.2,1.62,3.27,3.27,0,0,0,2,.61,3.61,3.61,0,0,0,1.23-.21,2.94,2.94,0,0,0,1.69-1.65,3.5,3.5,0,0,0,.25-1.38,3.45,3.45,0,0,0-.34-1.63,2.87,2.87,0,0,0-.87-1,3.17,3.17,0,0,0-1.21-.55,5.76,5.76,0,0,0-1.37-.16,7.39,7.39,0,0,0-1,.07,9.46,9.46,0,0,0-1.06.21,9,9,0,0,0-1,.3,6.53,6.53,0,0,0-.87.36l.29-9.29H868Z"/><path class="cls-5" d="M875.56,613.93h.76a7,7,0,0,0,1.29-.11,3.69,3.69,0,0,0,1.16-.39,2.18,2.18,0,0,0,1.18-2.07,2.32,2.32,0,0,0-.22-1,2.23,2.23,0,0,0-.59-.77,2.86,2.86,0,0,0-.86-.48,3.2,3.2,0,0,0-1-.16,2.58,2.58,0,0,0-1.75.6,3,3,0,0,0-1,1.58l-2.71-.7a4.34,4.34,0,0,1,.73-1.57,5.18,5.18,0,0,1,1.25-1.22,5.84,5.84,0,0,1,1.64-.81,6.42,6.42,0,0,1,1.92-.28,7.25,7.25,0,0,1,2.1.3,5.28,5.28,0,0,1,1.74.88,4.3,4.3,0,0,1,1.18,1.46,4.38,4.38,0,0,1,.43,2,3.89,3.89,0,0,1-.83,2.44,3.84,3.84,0,0,1-2.22,1.4v0a4.51,4.51,0,0,1,2.53,1.4,3.88,3.88,0,0,1,1,2.68,4.81,4.81,0,0,1-1.86,3.94,6.21,6.21,0,0,1-1.9,1,7.5,7.5,0,0,1-2.14.32,8.39,8.39,0,0,1-2-.23,6.06,6.06,0,0,1-1.76-.7,5.26,5.26,0,0,1-1.42-1.25,5.67,5.67,0,0,1-.95-1.83l2.69-.84a3.57,3.57,0,0,0,1.16,1.71,3.42,3.42,0,0,0,2.22.69,4.37,4.37,0,0,0,1.12-.15,3.16,3.16,0,0,0,1-.49,2.55,2.55,0,0,0,1-2.16,2.34,2.34,0,0,0-.39-1.38,2.84,2.84,0,0,0-1-.89,4.66,4.66,0,0,0-1.33-.47,7,7,0,0,0-1.4-.14h-.72Z"/><path d="M934.6,377.36a4.78,4.78,0,0,1-1.88-2.14,7.54,7.54,0,0,1-.64-3.23,6.51,6.51,0,0,1,.75-3.17,5.44,5.44,0,0,1,2.06-2.14,5.86,5.86,0,0,1,3-.76,13.77,13.77,0,0,1,3,.39l.52.09-.15,2.88h-1.08l-.4-2a2.09,2.09,0,0,0-.77-.33,5.86,5.86,0,0,0-1.36-.13,3,3,0,0,0-1.82.58,3.89,3.89,0,0,0-1.26,1.72,7.41,7.41,0,0,0-.45,2.72,8.76,8.76,0,0,0,.4,2.74,4.38,4.38,0,0,0,1.22,2,2.92,2.92,0,0,0,2,.73,4.31,4.31,0,0,0,1.3-.15,2.07,2.07,0,0,0,.78-.41l.67-1.57,1,.13-.38,2.27a4.16,4.16,0,0,0-1,.22,10,10,0,0,1-1.11.28,7,7,0,0,1-1.33.11A5.66,5.66,0,0,1,934.6,377.36Z"/><path d="M944.09,367l-1.29-.19v-.8h4.59v.8l-1.58.19v10l4.12-.15,1-2.69,1,.15-.56,3.63h-8.52v-.78l1.32-.16Z"/><path d="M960.79,377.29c-.28-.43-.69-1.11-1.21-2-.06-.12-.24-.43-.54-.95s-.56-1-.81-1.34a7.91,7.91,0,0,0-.67-.88L956,373.91V377l1.45.16v.78h-4.49v-.78l1.33-.16V367l-1.32-.19v-.8h4.36v.8L956,367v5.6l4.7-5.6-1.34-.19v-.8h4v.8L962,367l-3.46,3.88a7,7,0,0,1,1.19,1.39c.43.61.94,1.39,1.55,2.35s.9,1.41,1.14,1.75.43.54.57.57l.75.18v.78h-2.29C961.3,377.94,961.07,377.72,960.79,377.29Z"/><path d="M969.37,368.78a10.24,10.24,0,0,1,1.69-2.72,7,7,0,0,1,1.55-1.37l.67.47a5.13,5.13,0,0,0-1.21,1.27,9.44,9.44,0,0,0-1.28,2.55,10.9,10.9,0,0,0-.57,3.66,11.43,11.43,0,0,0,.57,3.76,10.14,10.14,0,0,0,1.29,2.64,5.84,5.84,0,0,0,1.23,1.35l-.7.49a7.46,7.46,0,0,1-1.56-1.33,9.72,9.72,0,0,1-1.66-2.73,10.6,10.6,0,0,1-.77-4.22A9.33,9.33,0,0,1,969.37,368.78Z"/><path d="M977.88,375.36a10,10,0,0,0,2-2.24,4,4,0,0,0,.73-2.17,1.85,1.85,0,0,0-.53-1.4,2,2,0,0,0-1.5-.52,3.22,3.22,0,0,0-1.57.36,5.71,5.71,0,0,0-1.21.89l-.52-.72a5.35,5.35,0,0,1,1.6-1.2,4.91,4.91,0,0,1,2.23-.53,3.91,3.91,0,0,1,1.89.41,2.65,2.65,0,0,1,1.13,1.06,2.86,2.86,0,0,1,.37,1.44,5,5,0,0,1-1.52,3.26,15.92,15.92,0,0,1-3.81,3l5-.37.56-1.38.82.16-.42,2.53h-7.63l-.24-.67A16.39,16.39,0,0,0,977.88,375.36Z"/><path d="M986.62,367l-1.74-.19v-.8h4.24l2.25,7.2.53,2,.48-2,2.24-7.2h4.21v.8l-1.76.19,1.28,9.94,1.39.18v.78h-4.61v-.78l1.46-.16-.72-7.19-.34-3.09-.67,2.31-2.67,8.37h-1l-2.59-7.67-.95-3-.29,3.1-.64,7.19,1.59.16v.78h-4.18v-.78l1.36-.16Z"/><path d="M1001.93,367l-1.26-.19v-.8H1005v.8l-1.38.19v4.31h5.64V367l-1.3-.19v-.8h4.29v.8L1011,367v10l1.27.16v.78H1008v-.78l1.32-.16v-4.66h-5.64V377l1.4.16v.78h-4.4v-.78l1.29-.16Z"/><path d="M1015.42,370.08l-.29,1.52h-1v-2.54h6.8l.32.69-4.71,6.3-1.1,1,4.3-.14.67-1.79.93.11-.29,2.72h-7.18l-.34-.7,4.79-6.24,1-1Z"/><path d="M1027,376.78a10.23,10.23,0,0,1-1.68,2.72,7,7,0,0,1-1.55,1.37l-.67-.47a5.32,5.32,0,0,0,1.21-1.27,9.74,9.74,0,0,0,1.28-2.55,10.9,10.9,0,0,0,.57-3.66,11.43,11.43,0,0,0-.57-3.76,10.14,10.14,0,0,0-1.29-2.64,5.84,5.84,0,0,0-1.23-1.35l.7-.49a7.2,7.2,0,0,1,1.55,1.33,9.5,9.5,0,0,1,1.67,2.73,10.6,10.6,0,0,1,.77,4.22A9.34,9.34,0,0,1,1027,376.78Z"/><path class="cls-3" d="M894.6,372.23h27.21"/><path d="M931.29,416.05h4.26v.8l-1.42.19,2.63,7.51.6,1.95.52-2,2.39-7.48-1.27-.19v-.8h3.57v.8l-1,.19-3.79,11h-1.4l-4.09-11-1-.19Z"/><path d="M943,424.87a2.71,2.71,0,0,1,1-1.13,3,3,0,0,1,1.63-.42,3.1,3.1,0,0,1,.79.08l.79.24-.05,1.64h-.69l-.23-1.09q-.08-.3-.81-.3a1.37,1.37,0,0,0-1.18.6,2.94,2.94,0,0,0-.43,1.72,3.2,3.2,0,0,0,.48,1.91,1.5,1.5,0,0,0,1.26.66,2.61,2.61,0,0,0,.85-.14,2.77,2.77,0,0,0,.69-.33l.2.42a2.49,2.49,0,0,1-.85.54,2.83,2.83,0,0,1-1.13.24,2.68,2.68,0,0,1-1.48-.39,2.53,2.53,0,0,1-.91-1.08,3.89,3.89,0,0,1-.3-1.57A3.65,3.65,0,0,1,943,424.87Z"/><path d="M948.44,424.87a2.71,2.71,0,0,1,1-1.13,3.53,3.53,0,0,1,2.42-.34l.79.24,0,1.64h-.7l-.23-1.09q-.06-.3-.81-.3a1.38,1.38,0,0,0-1.18.6,2.94,2.94,0,0,0-.43,1.72,3.2,3.2,0,0,0,.48,1.91,1.52,1.52,0,0,0,1.27.66,2.6,2.6,0,0,0,.84-.14,2.77,2.77,0,0,0,.69-.33l.2.42a2.54,2.54,0,0,1-.84.54,2.92,2.92,0,0,1-1.14.24,2.7,2.7,0,0,1-1.48-.39,2.44,2.44,0,0,1-.9-1.08,3.73,3.73,0,0,1-.31-1.57A3.65,3.65,0,0,1,948.44,424.87Z"/><path class="cls-3" d="M894.6,421.93h27.21"/><path d="M932.61,28l-1.25-.19v-.8h2.1c.33,0,.81,0,1.42-.06s1.09-.07,1.4-.07a5.88,5.88,0,0,1,4.42,1.5,5.78,5.78,0,0,1,1.45,4.2A7.22,7.22,0,0,1,941.4,36a5.47,5.47,0,0,1-2.08,2.28,5.8,5.8,0,0,1-3.09.82c-.26,0-.69,0-1.31-.07s-1.12-.06-1.44-.06h-2.2v-.78l1.33-.16Zm3.14,10.13h.48a3.73,3.73,0,0,0,3.55-2.37,7.21,7.21,0,0,0,.51-2.86,5.86,5.86,0,0,0-1.09-3.84,4.09,4.09,0,0,0-3.31-1.31c-.31,0-.67,0-1.1.06a3,3,0,0,1-.48,0V38A6.31,6.31,0,0,0,935.75,38.17Z"/><path d="M944.38,37.85a5.21,5.21,0,0,1-1-3.37,5.42,5.42,0,0,1,.53-2.45,3.84,3.84,0,0,1,1.48-1.63,4.07,4.07,0,0,1,2.17-.58,3.12,3.12,0,0,1,2.31.82,3.35,3.35,0,0,1,.87,2.36,7.1,7.1,0,0,1-.11,1.49h-5.5a4.43,4.43,0,0,0,.73,2.55,2.32,2.32,0,0,0,2,1,4.06,4.06,0,0,0,1.34-.23,3.39,3.39,0,0,0,1.08-.55l.3.7a3.61,3.61,0,0,1-1.37.83,5,5,0,0,1-1.86.36A3.58,3.58,0,0,1,944.38,37.85ZM949,33.64a3.82,3.82,0,0,0,0-.68,2.8,2.8,0,0,0-.44-1.64,1.52,1.52,0,0,0-1.33-.6,1.81,1.81,0,0,0-1.48.67,3.87,3.87,0,0,0-.63,2.25Z"/><path d="M953.48,38.68a1.86,1.86,0,0,1-.45-1.42V31.12h-1.15V30.4l.44-.12a2,2,0,0,0,.5-.17,1,1,0,0,0,.4-.58,6.44,6.44,0,0,0,.3-1l.21-.8h.95l0,2.3h2.67v1.06h-2.67V36a11.88,11.88,0,0,0,0,1.28.68.68,0,0,0,.24.48,1.41,1.41,0,0,0,.64.11,5,5,0,0,0,1-.11,5.15,5.15,0,0,0,.81-.24l.24.72a4.43,4.43,0,0,1-1.24.56,5.22,5.22,0,0,1-1.56.27A1.93,1.93,0,0,1,953.48,38.68Z"/><path d="M959.6,37.85a5.21,5.21,0,0,1-1-3.37,5.42,5.42,0,0,1,.53-2.45,3.78,3.78,0,0,1,1.48-1.63,4.05,4.05,0,0,1,2.17-.58,3.12,3.12,0,0,1,2.31.82,3.35,3.35,0,0,1,.87,2.36,7.86,7.86,0,0,1-.11,1.49h-5.51a4.43,4.43,0,0,0,.74,2.55,2.32,2.32,0,0,0,2,1,4.11,4.11,0,0,0,1.34-.23,3.39,3.39,0,0,0,1.08-.55l.3.7a3.74,3.74,0,0,1-1.38.83,5,5,0,0,1-1.85.36A3.56,3.56,0,0,1,959.6,37.85Zm4.58-4.21a5.06,5.06,0,0,0,.05-.68,2.88,2.88,0,0,0-.44-1.64,1.52,1.52,0,0,0-1.34-.6,1.81,1.81,0,0,0-1.48.67,3.87,3.87,0,0,0-.63,2.25Z"/><path d="M967.64,32.16a4,4,0,0,1,1.54-1.71,5.15,5.15,0,0,1,3.62-.5c.34.08.73.2,1.19.35l-.07,2.46h-1l-.35-1.63c-.06-.3-.47-.45-1.21-.45a2.07,2.07,0,0,0-1.77.91,4.37,4.37,0,0,0-.65,2.57,4.77,4.77,0,0,0,.73,2.87,2.26,2.26,0,0,0,1.89,1,3.86,3.86,0,0,0,1.28-.21,4.28,4.28,0,0,0,1-.49l.3.64a3.86,3.86,0,0,1-1.27.81,4.29,4.29,0,0,1-1.7.36,3.91,3.91,0,0,1-2.22-.6,3.61,3.61,0,0,1-1.36-1.62,5.81,5.81,0,0,1-.46-2.34A5.49,5.49,0,0,1,967.64,32.16Z"/><path d="M976.9,38.68a1.86,1.86,0,0,1-.45-1.42V31.12H975.3V30.4l.45-.12a2,2,0,0,0,.49-.17,1,1,0,0,0,.4-.58,7.54,7.54,0,0,0,.31-1c.12-.45.18-.72.21-.8h.94l0,2.3h2.67v1.06h-2.67V36a9.22,9.22,0,0,0,.06,1.28.68.68,0,0,0,.24.48,1.33,1.33,0,0,0,.63.11,4.78,4.78,0,0,0,1-.11,5.15,5.15,0,0,0,.81-.24l.24.72a4.43,4.43,0,0,1-1.24.56,5.22,5.22,0,0,1-1.56.27A1.93,1.93,0,0,1,976.9,38.68Z"/><path d="M982.63,32a4.1,4.1,0,0,1,3.63-2.16,3.65,3.65,0,0,1,3,1.28,5.22,5.22,0,0,1,1,3.36,5.09,5.09,0,0,1-.59,2.51,4.07,4.07,0,0,1-1.56,1.6,4.12,4.12,0,0,1-2.08.55,3.65,3.65,0,0,1-3-1.28,5.31,5.31,0,0,1-1-3.36A5,5,0,0,1,982.63,32Zm5.25,5.31a5.05,5.05,0,0,0,.59-2.7,6,6,0,0,0-.55-2.82,1.83,1.83,0,0,0-1.74-1,1.93,1.93,0,0,0-1.7.91,5,5,0,0,0-.6,2.71,5.87,5.87,0,0,0,.56,2.81,1.83,1.83,0,0,0,1.74,1A1.91,1.91,0,0,0,987.88,37.29Z"/><path d="M991.8,38.16l1.2-.1V31.29L991.84,31v-.86l2.21-.29h0l.36.29v.29l-.05,1.25h.05A3.48,3.48,0,0,1,995,31a4.57,4.57,0,0,1,1.07-.79,3,3,0,0,1,1.43-.36,1.6,1.6,0,0,1,.53.08v1.79a1.62,1.62,0,0,0-.36-.15,2,2,0,0,0-.56-.07,4.16,4.16,0,0,0-2.46.81V38l2,.13v.77H991.8Z"/><path d="M1000.2,29.78a10.23,10.23,0,0,1,1.68-2.72,7,7,0,0,1,1.55-1.37l.67.47a5.32,5.32,0,0,0-1.21,1.27,9.74,9.74,0,0,0-1.28,2.55,10.9,10.9,0,0,0-.57,3.66,11.43,11.43,0,0,0,.57,3.76A10.14,10.14,0,0,0,1002.9,40a5.84,5.84,0,0,0,1.23,1.35l-.7.49a7.2,7.2,0,0,1-1.55-1.33,9.5,9.5,0,0,1-1.67-2.73,10.6,10.6,0,0,1-.77-4.22A9.18,9.18,0,0,1,1000.2,29.78Z"/><path d="M1007.26,37.67a6.12,6.12,0,0,1-1-3.66,6.21,6.21,0,0,1,.58-2.74,4.21,4.21,0,0,1,1.57-1.8,4,4,0,0,1,2.17-.63,3.49,3.49,0,0,1,3,1.34,6.16,6.16,0,0,1,1,3.66,6.41,6.41,0,0,1-.55,2.74,4.44,4.44,0,0,1-1.52,1.85,3.75,3.75,0,0,1-2.17.65A3.53,3.53,0,0,1,1007.26,37.67Zm5.51-3.67a7.71,7.71,0,0,0-.53-3.2,1.85,1.85,0,0,0-1.8-1.12,2,2,0,0,0-1.83,1.06,6.44,6.44,0,0,0-.59,3.05,7.76,7.76,0,0,0,.57,3.25,1.88,1.88,0,0,0,1.8,1.23C1012,38.27,1012.77,36.84,1012.77,34Z"/><path d="M1018.21,33.32a2.67,2.67,0,0,1,1.47-.44,2,2,0,0,1,.9.19,5.15,5.15,0,0,1,.86.56,6.55,6.55,0,0,0,.63.43,1.06,1.06,0,0,0,.56.14,2,2,0,0,0,1.63-.91l.62.67a2.91,2.91,0,0,1-1,1,2.49,2.49,0,0,1-1.44.44,1.79,1.79,0,0,1-.86-.19,5.72,5.72,0,0,1-.82-.54,3.78,3.78,0,0,0-.64-.46,1.23,1.23,0,0,0-.61-.15,2.1,2.1,0,0,0-1.66.91l-.61-.69A2.77,2.77,0,0,1,1018.21,33.32Z"/><path d="M1029.19,41.23c.57-1.26,1.13-2.53,1.65-3.8s1.27-3.08,2.22-5.42l.75-1.89-4.73.07-.68,2.13-1-.2.34-3.16H1035l.34.43q-.8,2.19-2.19,6.15T1031,41.71Z"/><path d="M1041.08,37.78a10.5,10.5,0,0,1-1.69,2.72,7,7,0,0,1-1.55,1.37l-.67-.47a5.32,5.32,0,0,0,1.21-1.27,9.74,9.74,0,0,0,1.28-2.55,10.9,10.9,0,0,0,.57-3.66,11.43,11.43,0,0,0-.57-3.76,10.14,10.14,0,0,0-1.29-2.64,5.84,5.84,0,0,0-1.23-1.35l.7-.49A7.46,7.46,0,0,1,1039.4,27a9.72,9.72,0,0,1,1.66,2.73,10.6,10.6,0,0,1,.77,4.22A9.33,9.33,0,0,1,1041.08,37.78Z"/><path d="M933.61,79l-1.31-.19v-.8h2.16q.54,0,1.38-.06c.51,0,.89-.07,1.13-.07a5.52,5.52,0,0,1,3.16.69,2.32,2.32,0,0,1,1,2,3,3,0,0,1-.65,2,2.87,2.87,0,0,1-1.79,1,3.47,3.47,0,0,1,2.41.72,2.56,2.56,0,0,1,.88,2.05A3.38,3.38,0,0,1,940.79,89,5.65,5.65,0,0,1,937,90c-.38,0-.75,0-1.1-.05l-1.49,0h-2.13v-.78l1.33-.16Zm2.61,4.28h.88a2.2,2.2,0,0,0,1.7-.63,2.53,2.53,0,0,0,.57-1.77,2.1,2.1,0,0,0-.57-1.64,2.93,2.93,0,0,0-2-.52,11.81,11.81,0,0,0-1.18.06l-.34,0V83.3C935.46,83.31,935.76,83.32,936.22,83.32Zm.75,5.85a3.45,3.45,0,0,0,2.35-.66A2.47,2.47,0,0,0,940,86.6a2.3,2.3,0,0,0-.63-1.8,3.05,3.05,0,0,0-2-.56c-1.09,0-1.77,0-2.06,0V89A6.21,6.21,0,0,0,937,89.17Z"/><path d="M949.84,89.91a.72.72,0,0,1-.21-.58v-.54a5.16,5.16,0,0,1-1.32.93,3.6,3.6,0,0,1-1.59.4,2.51,2.51,0,0,1-2.11-.8,4.34,4.34,0,0,1-.63-2.64V82l-.9-.26v-.7l2.24-.21h0l.31.19v5.49a6.12,6.12,0,0,0,.13,1.45,1.29,1.29,0,0,0,.48.76,1.66,1.66,0,0,0,1,.25,2.71,2.71,0,0,0,1.2-.27,4.25,4.25,0,0,0,1-.64V82l-1.16-.26v-.7l2.44-.21h0l.37.19v8.06h1l0,.72c-.29.08-.55.14-.77.18a4.26,4.26,0,0,1-.76.06A1.12,1.12,0,0,1,949.84,89.91Z"/><path d="M954.72,89.68a1.86,1.86,0,0,1-.45-1.42V82.12h-1.15V81.4l.44-.12a2,2,0,0,0,.5-.17,1,1,0,0,0,.4-.58,6.44,6.44,0,0,0,.3-1l.21-.8h.95l0,2.3h2.67v1.06H956V87a11.88,11.88,0,0,0,0,1.28.68.68,0,0,0,.24.48,1.41,1.41,0,0,0,.64.11,5,5,0,0,0,1-.11,5.5,5.5,0,0,0,.81-.24l.24.72a4.43,4.43,0,0,1-1.24.56,5.22,5.22,0,0,1-1.56.27A1.93,1.93,0,0,1,954.72,89.68Z"/><path d="M961.23,89.68a1.86,1.86,0,0,1-.45-1.42V82.12h-1.15V81.4l.45-.12a2,2,0,0,0,.49-.17,1,1,0,0,0,.4-.58,7.54,7.54,0,0,0,.31-1c.11-.45.18-.72.2-.8h.95l0,2.3h2.67v1.06h-2.67V87a9.22,9.22,0,0,0,.06,1.28.62.62,0,0,0,.24.48,1.33,1.33,0,0,0,.63.11,4.87,4.87,0,0,0,1-.11,5.15,5.15,0,0,0,.81-.24l.24.72a4.43,4.43,0,0,1-1.24.56,5.22,5.22,0,0,1-1.56.27A1.93,1.93,0,0,1,961.23,89.68Z"/><path d="M967,83a4.1,4.1,0,0,1,3.63-2.16,3.65,3.65,0,0,1,3,1.28,5.22,5.22,0,0,1,1,3.36A5,5,0,0,1,974,88a4,4,0,0,1-1.56,1.6,4.06,4.06,0,0,1-2.07.55,3.65,3.65,0,0,1-3-1.28,5.26,5.26,0,0,1-1-3.36A5,5,0,0,1,967,83Zm5.24,5.31a5,5,0,0,0,.6-2.7,6,6,0,0,0-.55-2.82,1.83,1.83,0,0,0-1.74-1,1.94,1.94,0,0,0-1.71.91,5,5,0,0,0-.6,2.71,6,6,0,0,0,.56,2.81,1.85,1.85,0,0,0,1.75,1A1.89,1.89,0,0,0,972.2,88.29Z"/><path d="M977.05,82.29,975.9,82v-.86l2.29-.29h0l.33.29V82.2a5.57,5.57,0,0,1,1.52-.93,4.43,4.43,0,0,1,1.8-.42,2.64,2.64,0,0,1,1.56.39,2,2,0,0,1,.78,1.17,8.16,8.16,0,0,1,.22,2.14V89l1.12.11v.8h-3.79v-.78l1-.13v-4.5a7.13,7.13,0,0,0-.12-1.48,1.4,1.4,0,0,0-.48-.8,1.76,1.76,0,0,0-1-.26,3,3,0,0,0-1.23.29,5.5,5.5,0,0,0-1.17.67V89l1.09.15v.78H976v-.78l1-.15Z"/><path d="M934.65,129l-1.3-.19v-.8h4.59v.8l-1.58.19v10l4.12-.15.95-2.69,1,.15-.56,3.63h-8.52v-.78l1.33-.16Z"/><path d="M945,129l-1.48-.19v-.8h4.7v.8l-1.49.19v10l1.49.17v.77h-4.69v-.78L945,139Z"/><path d="M952.4,139.35a5,5,0,0,1-1.92-2.12,7.67,7.67,0,0,1,.12-6.44,5.24,5.24,0,0,1,2.16-2.14,6.63,6.63,0,0,1,3.13-.73,16.63,16.63,0,0,1,3.73.5l-.14,2.77h-1.14l-.38-1.92a2.5,2.5,0,0,0-.76-.34,5.51,5.51,0,0,0-1.44-.16,3.7,3.7,0,0,0-2.06.58,3.76,3.76,0,0,0-1.4,1.71,6.69,6.69,0,0,0-.5,2.75,8.68,8.68,0,0,0,.4,2.72,4.55,4.55,0,0,0,1.25,2,3,3,0,0,0,2.06.74,5.65,5.65,0,0,0,1.45-.18,2.83,2.83,0,0,0,1.06-.49V135l-2-.16v-.94h4.68v.94l-.93.15v4.3a5.22,5.22,0,0,0-1.17.27,14,14,0,0,1-1.57.4,8.15,8.15,0,0,1-1.63.15A5.6,5.6,0,0,1,952.4,139.35Z"/><path d="M963.08,129l-1.27-.19v-.8h4.35v.8l-1.37.19v4.31h5.63V129l-1.3-.19v-.8h4.29v.8l-1.26.19v10l1.26.16v.78h-4.3v-.78l1.31-.16v-4.66h-5.63V139l1.39.16v.78h-4.4v-.78l1.3-.16Z"/><path d="M978.87,128.9l-2.75.1-.56,3.34H974.5l.27-4.29h10l.19,4.29h-1L983.4,129l-2.77-.1V139l2.27.16v.78h-6.11v-.78l2.08-.16Z"/><path d="M935.7,478c-.44-.09-.92-.22-1.44-.38a2.74,2.74,0,0,0-.72-.19l.13-2.9h1l.27,2.08a2.6,2.6,0,0,0,.89.46,4.45,4.45,0,0,0,1.35.2,2.71,2.71,0,0,0,1.85-.55,1.88,1.88,0,0,0,.64-1.5,1.68,1.68,0,0,0-.35-1.07,2.89,2.89,0,0,0-.91-.77,14.65,14.65,0,0,0-1.56-.75,12.4,12.4,0,0,1-1.56-.82,4,4,0,0,1-1.15-1.11,2.81,2.81,0,0,1-.49-1.67,2.77,2.77,0,0,1,.47-1.58,3.27,3.27,0,0,1,1.36-1.1,5.09,5.09,0,0,1,2.07-.4,6.43,6.43,0,0,1,1.31.12q.57.1,1.29.3a3.09,3.09,0,0,0,.54.14l-.1,2.69h-1l-.32-2a1.84,1.84,0,0,0-.67-.3,3.78,3.78,0,0,0-1.09-.14,2.61,2.61,0,0,0-1.68.46,1.66,1.66,0,0,0-.56,1.34,1.68,1.68,0,0,0,.34,1.08,3.23,3.23,0,0,0,.86.73c.34.2.88.48,1.63.83a17.48,17.48,0,0,1,1.69.9,3.89,3.89,0,0,1,1.13,1,2.49,2.49,0,0,1,.47,1.54,3,3,0,0,1-.47,1.63,3.38,3.38,0,0,1-1.44,1.29,4.93,4.93,0,0,1-2.34.51A6.7,6.7,0,0,1,935.7,478Z"/><path d="M944.15,467l-1.25-.19v-.8H945a10.56,10.56,0,0,0,1.13-.05c.58,0,1.12-.06,1.64-.06a5.06,5.06,0,0,1,3.28.86,3.25,3.25,0,0,1,1,2.56,4.06,4.06,0,0,1-.6,2.23A3.77,3.77,0,0,1,949.8,473a5.53,5.53,0,0,1-2.4.49c-.31,0-.63,0-.95,0l-.59,0V477l2.19.18v.78h-5.23v-.78l1.33-.16Zm3.25,5.62a2.83,2.83,0,0,0,2.05-.77,3.37,3.37,0,0,0,.79-2.51,2.5,2.5,0,0,0-.68-2,3.23,3.23,0,0,0-2.15-.6,10.82,10.82,0,0,0-1.09.07l-.46,0v5.68A10.51,10.51,0,0,0,947.4,472.66Z"/><path d="M954.5,467l-1.31-.19v-.8h8.14l.23,2.48h-.92l-.46-1.55-4-.1v4.52l2.67,0,.23-1.33H960v3.68h-.88l-.23-1.38-2.67,0V477l4.51-.16.85-2,.95.29-.47,2.78h-8.88v-.78l1.33-.16Z"/><path d="M967.49,466h1.76l3.89,11,1,.16v.78h-4.22v-.78l1.33-.16-.76-2.37h-4.67l-.75,2.37,1.38.16v.78h-3.8v-.78l1-.16Zm1,2.56-.4-1.41-.38,1.44-1.62,5.13h4.08Z"/><path d="M982.57,477.29c-.28-.43-.68-1.11-1.21-2-.06-.12-.24-.43-.53-.95s-.57-1-.82-1.34a9.5,9.5,0,0,0-.66-.88l-1.62,1.83V477l1.46.16v.78h-4.5v-.78L976,477V467l-1.31-.19v-.8h4.35v.8l-1.33.19v5.6l4.71-5.6-1.35-.19v-.8H985v.8l-1.23.19-3.45,3.88a7.36,7.36,0,0,1,1.19,1.39c.42.61.93,1.39,1.54,2.35s.91,1.41,1.15,1.75.43.54.56.57l.76.18v.78h-2.29C983.09,477.94,982.85,477.72,982.57,477.29Z"/><path d="M987.6,467l-1.31-.19v-.8h8.15l.22,2.48h-.91l-.47-1.55-4-.1v4.52l2.67,0,.22-1.33h.88v3.68h-.88l-.22-1.38-2.67,0V477l4.51-.16.85-2,.94.29-.46,2.78h-8.88v-.78l1.32-.16Z"/><path d="M996.69,477.16,998,477V467l-1.25-.2v-.79h2.1c.3,0,.7,0,1.21-.06s.95-.07,1.25-.07a5.68,5.68,0,0,1,3.35.76,2.82,2.82,0,0,1,1,2.4,3.69,3.69,0,0,1-.63,2.08,3.15,3.15,0,0,1-1.73,1.28,2.78,2.78,0,0,1,.95.93c.29.44.65,1.06,1.08,1.85.33.6.58,1,.76,1.31a.94.94,0,0,0,.5.47l.63.16v.78H1005c-.17,0-.36-.18-.58-.55s-.49-.94-.85-1.71a21.63,21.63,0,0,0-1-2,2.28,2.28,0,0,0-.84-1h-2V477l1.59.16v.78h-4.63Zm6.56-6a2.93,2.93,0,0,0,.59-2,2.47,2.47,0,0,0-.6-1.79,2.83,2.83,0,0,0-2.07-.61,8.72,8.72,0,0,0-1,.06l-.42,0v5c.16,0,.49,0,1,0h.92A2,2,0,0,0,1003.25,471.19Z"/><path class="cls-3" d="M893.6,33.67h27.2"/><line class="cls-3" x1="893.6" y1="84.39" x2="921.81" y2="84.26"/><line class="cls-3" x1="893.6" y1="135.11" x2="922.14" y2="134.84"/><line class="cls-3" x1="894.6" y1="473.38" x2="922.14" y2="473.04"/></g></g></svg>