<svg xmlns="http://www.w3.org/2000/svg" viewBox="0 0 676.06 368.48"><defs><style>.cls-1{fill:#b51700;}.cls-2{fill:none;stroke:#000;stroke-width:1.5px;}.cls-3{fill:#929292;}.cls-4{opacity:0.01;}.cls-5{fill:#d6d5d5;}</style></defs><title>GroupChart</title><g id="Layer_2" data-name="Layer 2"><g id="Layer_1-2" data-name="Layer 1"><path class="cls-1" d="M259,52.76l-1.62,5.65h.5a5.89,5.89,0,0,0,2.85-.52,4,4,0,0,0,1.52-1.82h.4L261,61.74h-.37a6.22,6.22,0,0,0,.09-.92,1.37,1.37,0,0,0-.34-1,2,2,0,0,0-.91-.54A6.77,6.77,0,0,0,258,59.2h-.84l-1.39,4.89a4,4,0,0,0-.18,1,.45.45,0,0,0,.23.4,2.75,2.75,0,0,0,1.3.21,7.86,7.86,0,0,0,3.46-.78,8.48,8.48,0,0,0,2.91-2.36h.44l-1.51,4H249.91l.13-.4a2.56,2.56,0,0,0,1.6-.41,3.86,3.86,0,0,0,.91-1.82l2.74-9.38a4.69,4.69,0,0,0,.22-1.24.7.7,0,0,0-.29-.62,2.78,2.78,0,0,0-1.32-.3L254,52h11.61l-.93,3.65h-.39a3.19,3.19,0,0,0-.33-1.52,2.6,2.6,0,0,0-1.2-1,6.48,6.48,0,0,0-2.42-.32Z"/><path d="M302,51.62l-1.1,12.12c-.06.56-.09.94-.09,1.11a1.11,1.11,0,0,0,.16.66,1.21,1.21,0,0,0,.56.46,3.22,3.22,0,0,0,1.17.15l-.12.4h-5.73l.12-.4h.24a2,2,0,0,0,1.14-.3,1.24,1.24,0,0,0,.48-.67,8.15,8.15,0,0,0,.23-1.57l.17-1.85h-4.17l-1.48,2a5.18,5.18,0,0,0-.63,1,1.33,1.33,0,0,0-.13.55.74.74,0,0,0,.28.59,1.38,1.38,0,0,0,.92.27l-.12.4h-4.3l.11-.4a2.34,2.34,0,0,0,1.41-.53,13.79,13.79,0,0,0,1.81-2.13l8.7-11.84Zm-2.12,3.58-4.23,5.74h3.67Z"/><path d="M333.94,52.35l.15-.4h5.19a6.3,6.3,0,0,1,2.34.41,3.24,3.24,0,0,1,1.54,1.14,2.66,2.66,0,0,1,.51,1.55,3.35,3.35,0,0,1-.91,2.27,5.58,5.58,0,0,1-3,1.5,4.16,4.16,0,0,1,1.94,1.31,2.85,2.85,0,0,1,.63,1.79,4.39,4.39,0,0,1-2,3.61,6.34,6.34,0,0,1-2.12.81,15,15,0,0,1-2.75.18h-5.33l.13-.4a3.27,3.27,0,0,0,1.14-.16,1.29,1.29,0,0,0,.62-.48,9.08,9.08,0,0,0,.68-1.87l2.61-8.82a6.32,6.32,0,0,0,.34-1.57.77.77,0,0,0-.3-.63,2,2,0,0,0-1.12-.23ZM334,65.57a13.55,13.55,0,0,0,1.81.16,4.75,4.75,0,0,0,3-1A3.31,3.31,0,0,0,340.08,62a2.71,2.71,0,0,0-.8-2.07,3.75,3.75,0,0,0-2.58-.74l-.84,0Zm2.12-7.17,1,0a4.88,4.88,0,0,0,3.32-1A3.12,3.12,0,0,0,341.54,55a2.22,2.22,0,0,0-.67-1.73,3.05,3.05,0,0,0-2.12-.62,5.38,5.38,0,0,0-1,.13Z"/><path d="M386.16,51.62l-1.09,4.72h-.38l0-1.19A4.25,4.25,0,0,0,384.4,54a2.37,2.37,0,0,0-.58-.88,2.71,2.71,0,0,0-1-.58,3.87,3.87,0,0,0-1.31-.21,5.55,5.55,0,0,0-3.36,1,8.79,8.79,0,0,0-2.88,3.8,10.39,10.39,0,0,0-.86,4.09,4.65,4.65,0,0,0,1.23,3.38,4.32,4.32,0,0,0,3.22,1.26,5.23,5.23,0,0,0,2.66-.67,7.14,7.14,0,0,0,2.16-2h.5A8.36,8.36,0,0,1,381.58,66a6.45,6.45,0,0,1-3.44.88,6.58,6.58,0,0,1-3.16-.74,5.06,5.06,0,0,1-2.1-2.1,6.15,6.15,0,0,1-.72-2.91A9.67,9.67,0,0,1,377,52.91a8.86,8.86,0,0,1,4.49-1.29,6.72,6.72,0,0,1,2.39.51,2.84,2.84,0,0,0,.84.21.94.94,0,0,0,.45-.11,3.12,3.12,0,0,0,.64-.61Z"/><path d="M412.9,52.35,413,52h4.65a10.74,10.74,0,0,1,4.38.68,5.12,5.12,0,0,1,2.27,2.13,6.05,6.05,0,0,1,.85,3.12,8.88,8.88,0,0,1-1.59,4.94,10.48,10.48,0,0,1-1.9,1.79,8.94,8.94,0,0,1-2.77,1.44,12.74,12.74,0,0,1-3.73.47H409l.14-.4A3.25,3.25,0,0,0,410.3,66a1.36,1.36,0,0,0,.64-.49,7,7,0,0,0,.7-1.82l2.57-8.81a6.31,6.31,0,0,0,.3-1.63.76.76,0,0,0-.28-.64,1.83,1.83,0,0,0-1.09-.23Zm3.82.41-3.16,10.9a8.1,8.1,0,0,0-.36,1.52.56.56,0,0,0,.12.33.52.52,0,0,0,.3.22,3.25,3.25,0,0,0,.9.09,13,13,0,0,0,3.14-.35,6.5,6.5,0,0,0,2.36-1,6.94,6.94,0,0,0,2.1-2.75,9.73,9.73,0,0,0,.78-4A5.18,5.18,0,0,0,421.7,54a4.69,4.69,0,0,0-3.51-1.23C417.81,52.72,417.32,52.73,416.72,52.76Z"/><path d="M457.83,52.73l-1.71,5.77H458a3.78,3.78,0,0,0,1.93-.4,4.42,4.42,0,0,0,1.31-1.7h.41l-1.51,5.31h-.43a5,5,0,0,0,.16-1.07,1.25,1.25,0,0,0-.44-1,2.66,2.66,0,0,0-1.63-.36H455.9l-1.27,4.39a7,7,0,0,0-.34,1.56.72.72,0,0,0,.29.61,3.26,3.26,0,0,0,1.45.29l-.13.4h-5.76l.14-.4A3.16,3.16,0,0,0,451.4,66a1.28,1.28,0,0,0,.63-.49,7.34,7.34,0,0,0,.69-1.82l2.57-8.77a6.3,6.3,0,0,0,.31-1.67.85.85,0,0,0-.14-.48.79.79,0,0,0-.41-.29,3.73,3.73,0,0,0-1.09-.1l.13-.4h11.3l-1.08,3.69h-.41a6.49,6.49,0,0,0,.12-1.1,1.57,1.57,0,0,0-.39-1.12,2.19,2.19,0,0,0-1-.59,10.82,10.82,0,0,0-1.93-.1Z"/><path class="cls-1" d="M218,93.76l-1.62,5.65h.5a5.89,5.89,0,0,0,2.85-.52,4,4,0,0,0,1.52-1.82h.4L220,102.74h-.37a6.22,6.22,0,0,0,.09-.92,1.37,1.37,0,0,0-.34-1,2,2,0,0,0-.91-.54,6.77,6.77,0,0,0-1.52-.11h-.84l-1.39,4.89a4,4,0,0,0-.18,1,.45.45,0,0,0,.23.4,2.75,2.75,0,0,0,1.3.21,7.86,7.86,0,0,0,3.46-.78,8.48,8.48,0,0,0,2.91-2.36h.44l-1.51,4H208.91l.13-.4a2.56,2.56,0,0,0,1.6-.41,3.86,3.86,0,0,0,.91-1.82l2.74-9.38a4.69,4.69,0,0,0,.22-1.24.7.7,0,0,0-.29-.62,2.78,2.78,0,0,0-1.32-.3L213,93h11.61l-.93,3.65h-.39a3.19,3.19,0,0,0-.33-1.52,2.6,2.6,0,0,0-1.2-1,6.48,6.48,0,0,0-2.42-.32Z"/><path class="cls-1" d="M259,93.76l-1.62,5.65h.5a5.89,5.89,0,0,0,2.85-.52,4,4,0,0,0,1.52-1.82h.4L261,102.74h-.37a6.22,6.22,0,0,0,.09-.92,1.37,1.37,0,0,0-.34-1,2,2,0,0,0-.91-.54,6.77,6.77,0,0,0-1.52-.11h-.84l-1.39,4.89a4,4,0,0,0-.18,1,.45.45,0,0,0,.23.4,2.75,2.75,0,0,0,1.3.21,7.86,7.86,0,0,0,3.46-.78,8.48,8.48,0,0,0,2.91-2.36h.44l-1.51,4H249.91l.13-.4a2.56,2.56,0,0,0,1.6-.41,3.86,3.86,0,0,0,.91-1.82l2.74-9.38a4.69,4.69,0,0,0,.22-1.24.7.7,0,0,0-.29-.62,2.78,2.78,0,0,0-1.32-.3L254,93h11.61l-.93,3.65h-.39a3.19,3.19,0,0,0-.33-1.52,2.6,2.6,0,0,0-1.2-1,6.48,6.48,0,0,0-2.42-.32Z"/><path d="M302,92.62l-1.1,12.12c-.06.56-.09.94-.09,1.11a1.11,1.11,0,0,0,.16.66,1.21,1.21,0,0,0,.56.46,3.22,3.22,0,0,0,1.17.15l-.12.4h-5.73l.12-.4h.24a2,2,0,0,0,1.14-.3,1.24,1.24,0,0,0,.48-.67,8.15,8.15,0,0,0,.23-1.57l.17-1.85h-4.17l-1.48,2a5.18,5.18,0,0,0-.63,1,1.33,1.33,0,0,0-.13.55.74.74,0,0,0,.28.59,1.38,1.38,0,0,0,.92.27l-.12.4h-4.3l.11-.4a2.34,2.34,0,0,0,1.41-.53,13.79,13.79,0,0,0,1.81-2.13l8.7-11.84Zm-2.12,3.58-4.23,5.74h3.67Z"/><path d="M333.94,93.35l.15-.4h5.19a6.3,6.3,0,0,1,2.34.41,3.24,3.24,0,0,1,1.54,1.14,2.66,2.66,0,0,1,.51,1.55,3.35,3.35,0,0,1-.91,2.27,5.58,5.58,0,0,1-3,1.5,4.16,4.16,0,0,1,1.94,1.31,2.85,2.85,0,0,1,.63,1.79,4.39,4.39,0,0,1-2,3.61,6.34,6.34,0,0,1-2.12.81,15,15,0,0,1-2.75.18h-5.33l.13-.4a3.27,3.27,0,0,0,1.14-.16,1.29,1.29,0,0,0,.62-.48,9.08,9.08,0,0,0,.68-1.87l2.61-8.82a6.32,6.32,0,0,0,.34-1.57.77.77,0,0,0-.3-.63,2,2,0,0,0-1.12-.23Zm.06,13.22a13.55,13.55,0,0,0,1.81.16,4.75,4.75,0,0,0,3-1,3.31,3.31,0,0,0,1.29-2.74,2.71,2.71,0,0,0-.8-2.07,3.75,3.75,0,0,0-2.58-.74l-.84,0Zm2.12-7.17,1,0a4.88,4.88,0,0,0,3.32-1A3.12,3.12,0,0,0,341.54,96a2.22,2.22,0,0,0-.67-1.73,3.05,3.05,0,0,0-2.12-.62,5.38,5.38,0,0,0-1,.13Z"/><path d="M386.16,92.62l-1.09,4.72h-.38l0-1.19A4.25,4.25,0,0,0,384.4,95a2.37,2.37,0,0,0-.58-.88,2.71,2.71,0,0,0-1-.58,3.87,3.87,0,0,0-1.31-.21,5.55,5.55,0,0,0-3.36,1,8.79,8.79,0,0,0-2.88,3.8,10.39,10.39,0,0,0-.86,4.09,4.65,4.65,0,0,0,1.23,3.38,4.32,4.32,0,0,0,3.22,1.26,5.23,5.23,0,0,0,2.66-.67,7.14,7.14,0,0,0,2.16-2h.5a8.36,8.36,0,0,1-2.62,2.77,6.45,6.45,0,0,1-3.44.88,6.58,6.58,0,0,1-3.16-.74,5.06,5.06,0,0,1-2.1-2.1,6.15,6.15,0,0,1-.72-2.91A9.67,9.67,0,0,1,377,93.91a8.86,8.86,0,0,1,4.49-1.29,6.72,6.72,0,0,1,2.39.51,2.84,2.84,0,0,0,.84.21.94.94,0,0,0,.45-.11,3.12,3.12,0,0,0,.64-.61Z"/><path d="M412.9,93.35,413,93h4.65a10.74,10.74,0,0,1,4.38.68,5.12,5.12,0,0,1,2.27,2.13,6.05,6.05,0,0,1,.85,3.12,8.88,8.88,0,0,1-1.59,4.94,10.48,10.48,0,0,1-1.9,1.79,8.94,8.94,0,0,1-2.77,1.44,12.74,12.74,0,0,1-3.73.47H409l.14-.4a3.25,3.25,0,0,0,1.14-.15,1.36,1.36,0,0,0,.64-.49,7,7,0,0,0,.7-1.82l2.57-8.81a6.31,6.31,0,0,0,.3-1.63.76.76,0,0,0-.28-.64,1.83,1.83,0,0,0-1.09-.23Zm3.82.41-3.16,10.9a8.1,8.1,0,0,0-.36,1.52.56.56,0,0,0,.12.33.52.52,0,0,0,.3.22,3.25,3.25,0,0,0,.9.09,13,13,0,0,0,3.14-.35,6.5,6.5,0,0,0,2.36-1,6.94,6.94,0,0,0,2.1-2.75,9.73,9.73,0,0,0,.78-4A5.18,5.18,0,0,0,421.7,95a4.69,4.69,0,0,0-3.51-1.23C417.81,93.72,417.32,93.73,416.72,93.76Z"/><path d="M457.83,93.73l-1.71,5.77H458a3.78,3.78,0,0,0,1.93-.4,4.42,4.42,0,0,0,1.31-1.7h.41l-1.51,5.31h-.43a5,5,0,0,0,.16-1.07,1.25,1.25,0,0,0-.44-1,2.66,2.66,0,0,0-1.63-.36H455.9l-1.27,4.39a7,7,0,0,0-.34,1.56.72.72,0,0,0,.29.61,3.26,3.26,0,0,0,1.45.29l-.13.4h-5.76l.14-.4a3.16,3.16,0,0,0,1.12-.15,1.28,1.28,0,0,0,.63-.49,7.34,7.34,0,0,0,.69-1.82l2.57-8.77a6.3,6.3,0,0,0,.31-1.67.85.85,0,0,0-.14-.48.79.79,0,0,0-.41-.29,3.73,3.73,0,0,0-1.09-.1l.13-.4h11.3l-1.08,3.69h-.41a6.49,6.49,0,0,0,.12-1.1,1.57,1.57,0,0,0-.39-1.12,2.19,2.19,0,0,0-1-.59,10.82,10.82,0,0,0-1.93-.1Z"/><path d="M222,131.62l-1.1,12.12c-.06.56-.09.94-.09,1.11a1.11,1.11,0,0,0,.16.66,1.21,1.21,0,0,0,.56.46,3.22,3.22,0,0,0,1.17.15l-.12.4h-5.73l.12-.4h.24a2,2,0,0,0,1.14-.3,1.24,1.24,0,0,0,.48-.67,8.15,8.15,0,0,0,.23-1.57l.17-1.85h-4.17l-1.48,2a5.18,5.18,0,0,0-.63,1,1.33,1.33,0,0,0-.13.55.74.74,0,0,0,.28.59,1.38,1.38,0,0,0,.92.27l-.12.4h-4.3l.11-.4a2.34,2.34,0,0,0,1.41-.53,13.79,13.79,0,0,0,1.81-2.13l8.7-11.84Zm-2.12,3.58-4.23,5.74h3.67Z"/><path d="M263,131.62l-1.1,12.12c-.06.56-.09.94-.09,1.11a1.11,1.11,0,0,0,.16.66,1.21,1.21,0,0,0,.56.46,3.22,3.22,0,0,0,1.17.15l-.12.4h-5.73l.12-.4h.24a2,2,0,0,0,1.14-.3,1.24,1.24,0,0,0,.48-.67,8.15,8.15,0,0,0,.23-1.57l.17-1.85h-4.17l-1.48,2a5.18,5.18,0,0,0-.63,1,1.33,1.33,0,0,0-.13.55.74.74,0,0,0,.28.59,1.38,1.38,0,0,0,.92.27l-.12.4h-4.3l.11-.4a2.34,2.34,0,0,0,1.41-.53,13.79,13.79,0,0,0,1.81-2.13l8.7-11.84Zm-2.12,3.58-4.23,5.74h3.67Z"/><path class="cls-1" d="M299,132.76l-1.62,5.65h.5a5.89,5.89,0,0,0,2.85-.52,4,4,0,0,0,1.52-1.82h.4L301,141.74h-.37a6.22,6.22,0,0,0,.09-.92,1.37,1.37,0,0,0-.34-1,2,2,0,0,0-.91-.54,6.77,6.77,0,0,0-1.52-.11h-.84l-1.39,4.89a4,4,0,0,0-.18,1,.45.45,0,0,0,.23.4,2.75,2.75,0,0,0,1.3.21,7.86,7.86,0,0,0,3.46-.78,8.48,8.48,0,0,0,2.91-2.36h.44l-1.51,4H289.91l.13-.4a2.56,2.56,0,0,0,1.6-.41,3.86,3.86,0,0,0,.91-1.82l2.74-9.38a4.69,4.69,0,0,0,.22-1.24.7.7,0,0,0-.29-.62,2.78,2.78,0,0,0-1.32-.3l.12-.4h11.61l-.93,3.65h-.39a3.19,3.19,0,0,0-.33-1.52,2.6,2.6,0,0,0-1.2-1,6.48,6.48,0,0,0-2.42-.32Z"/><path d="M332.9,132.35l.13-.4h4.65a10.74,10.74,0,0,1,4.38.68,5.12,5.12,0,0,1,2.27,2.13,6.05,6.05,0,0,1,.85,3.12,8.88,8.88,0,0,1-1.59,4.94,10.48,10.48,0,0,1-1.9,1.79,8.94,8.94,0,0,1-2.77,1.44,12.74,12.74,0,0,1-3.73.47H329l.14-.4a3.25,3.25,0,0,0,1.14-.15,1.36,1.36,0,0,0,.64-.49,7.41,7.41,0,0,0,.7-1.82l2.57-8.81a6.31,6.31,0,0,0,.3-1.63.76.76,0,0,0-.28-.64,1.83,1.83,0,0,0-1.09-.23Zm3.82.41-3.16,10.9a8.1,8.1,0,0,0-.36,1.52.56.56,0,0,0,.12.33.52.52,0,0,0,.3.22,3.25,3.25,0,0,0,.9.09,13,13,0,0,0,3.14-.35,6.5,6.5,0,0,0,2.36-1,6.94,6.94,0,0,0,2.1-2.75,9.73,9.73,0,0,0,.78-4,5.18,5.18,0,0,0-1.2-3.75,4.69,4.69,0,0,0-3.51-1.23C337.81,132.72,337.32,132.73,336.72,132.76Z"/><path d="M377.83,132.73l-1.71,5.77H378a3.78,3.78,0,0,0,1.93-.4,4.42,4.42,0,0,0,1.31-1.7h.41l-1.51,5.31h-.43a5,5,0,0,0,.16-1.07,1.25,1.25,0,0,0-.44-1,2.66,2.66,0,0,0-1.63-.36H375.9l-1.27,4.39a7,7,0,0,0-.34,1.56.72.72,0,0,0,.29.61,3.26,3.26,0,0,0,1.45.29l-.13.4h-5.76l.14-.4a3.16,3.16,0,0,0,1.12-.15,1.28,1.28,0,0,0,.63-.49,7.34,7.34,0,0,0,.69-1.82l2.57-8.77a6.3,6.3,0,0,0,.31-1.67.85.85,0,0,0-.14-.48.79.79,0,0,0-.41-.29,3.73,3.73,0,0,0-1.09-.1l.13-.4h11.3l-1.08,3.69h-.41a6.49,6.49,0,0,0,.12-1.1,1.57,1.57,0,0,0-.39-1.12,2.19,2.19,0,0,0-1-.59,10.82,10.82,0,0,0-1.93-.1Z"/><path d="M413.94,132.35l.15-.4h5.19a6.3,6.3,0,0,1,2.34.41,3.24,3.24,0,0,1,1.54,1.14,2.66,2.66,0,0,1,.51,1.55,3.35,3.35,0,0,1-.91,2.27,5.58,5.58,0,0,1-3,1.5,4.16,4.16,0,0,1,1.94,1.31,2.85,2.85,0,0,1,.63,1.79,4.39,4.39,0,0,1-2,3.61,6.34,6.34,0,0,1-2.12.81,15,15,0,0,1-2.75.18h-5.33l.13-.4a3.27,3.27,0,0,0,1.14-.16,1.29,1.29,0,0,0,.62-.48,9.08,9.08,0,0,0,.68-1.87l2.61-8.82a6.32,6.32,0,0,0,.34-1.57.77.77,0,0,0-.3-.63,2,2,0,0,0-1.12-.23Zm.06,13.22a13.55,13.55,0,0,0,1.81.16,4.75,4.75,0,0,0,3-1,3.31,3.31,0,0,0,1.29-2.74,2.71,2.71,0,0,0-.8-2.07,3.75,3.75,0,0,0-2.58-.74l-.84,0Zm2.12-7.17,1,0a4.88,4.88,0,0,0,3.32-1,3.12,3.12,0,0,0,1.09-2.43,2.22,2.22,0,0,0-.67-1.73,3.05,3.05,0,0,0-2.12-.62,5.38,5.38,0,0,0-1,.13Z"/><path d="M466.16,131.62l-1.09,4.72h-.38l0-1.19a4.25,4.25,0,0,0-.25-1.14,2.37,2.37,0,0,0-.58-.88,2.71,2.71,0,0,0-1-.58,3.87,3.87,0,0,0-1.31-.21,5.55,5.55,0,0,0-3.36,1,8.79,8.79,0,0,0-2.88,3.8,10.39,10.39,0,0,0-.86,4.09,4.65,4.65,0,0,0,1.23,3.38,4.32,4.32,0,0,0,3.22,1.26,5.23,5.23,0,0,0,2.66-.67,7.14,7.14,0,0,0,2.16-2.05h.5a8.36,8.36,0,0,1-2.62,2.77,6.45,6.45,0,0,1-3.44.88,6.58,6.58,0,0,1-3.16-.74,5.06,5.06,0,0,1-2.1-2.1,6.15,6.15,0,0,1-.72-2.91,9.67,9.67,0,0,1,4.79-8.19,8.86,8.86,0,0,1,4.49-1.29,6.72,6.72,0,0,1,2.39.51,2.84,2.84,0,0,0,.84.21.94.94,0,0,0,.45-.11,3.12,3.12,0,0,0,.64-.61Z"/><path d="M213.94,172.35l.15-.4h5.19a6.3,6.3,0,0,1,2.34.41,3.29,3.29,0,0,1,1.54,1.14,2.66,2.66,0,0,1,.51,1.55,3.35,3.35,0,0,1-.91,2.27,5.58,5.58,0,0,1-3,1.5,4.16,4.16,0,0,1,1.94,1.31,2.85,2.85,0,0,1,.63,1.79,4.39,4.39,0,0,1-2,3.61,6.34,6.34,0,0,1-2.12.81,15,15,0,0,1-2.75.18h-5.33l.13-.4a3.27,3.27,0,0,0,1.14-.16,1.29,1.29,0,0,0,.62-.48,9.08,9.08,0,0,0,.68-1.87l2.61-8.82a6.32,6.32,0,0,0,.34-1.57.77.77,0,0,0-.3-.63,2,2,0,0,0-1.12-.23Zm.06,13.22a13.55,13.55,0,0,0,1.81.16,4.75,4.75,0,0,0,3-1,3.31,3.31,0,0,0,1.29-2.74,2.71,2.71,0,0,0-.8-2.07,3.75,3.75,0,0,0-2.58-.74l-.84,0Zm2.12-7.17,1,0a4.88,4.88,0,0,0,3.32-1,3.12,3.12,0,0,0,1.09-2.43,2.22,2.22,0,0,0-.67-1.73,3.05,3.05,0,0,0-2.12-.62,5.38,5.38,0,0,0-1,.13Z"/><path d="M254.94,172.35l.15-.4h5.19a6.3,6.3,0,0,1,2.34.41,3.29,3.29,0,0,1,1.54,1.14,2.66,2.66,0,0,1,.51,1.55,3.35,3.35,0,0,1-.91,2.27,5.58,5.58,0,0,1-3,1.5,4.16,4.16,0,0,1,1.94,1.31,2.85,2.85,0,0,1,.63,1.79,4.39,4.39,0,0,1-2,3.61,6.34,6.34,0,0,1-2.12.81,15,15,0,0,1-2.75.18h-5.33l.13-.4a3.27,3.27,0,0,0,1.14-.16,1.29,1.29,0,0,0,.62-.48,9.08,9.08,0,0,0,.68-1.87l2.61-8.82a6.32,6.32,0,0,0,.34-1.57.77.77,0,0,0-.3-.63,2,2,0,0,0-1.12-.23Zm.06,13.22a13.55,13.55,0,0,0,1.81.16,4.75,4.75,0,0,0,3-1,3.31,3.31,0,0,0,1.29-2.74,2.71,2.71,0,0,0-.8-2.07,3.75,3.75,0,0,0-2.58-.74l-.84,0Zm2.12-7.17,1,0a4.88,4.88,0,0,0,3.32-1,3.12,3.12,0,0,0,1.09-2.43,2.22,2.22,0,0,0-.67-1.73,3.05,3.05,0,0,0-2.12-.62,5.38,5.38,0,0,0-1,.13Z"/><path d="M297.83,172.73l-1.71,5.77H298a3.78,3.78,0,0,0,1.93-.4,4.42,4.42,0,0,0,1.31-1.7h.41l-1.51,5.31h-.43a5,5,0,0,0,.16-1.07,1.25,1.25,0,0,0-.44-1,2.66,2.66,0,0,0-1.63-.36H295.9l-1.27,4.39a7,7,0,0,0-.34,1.56.72.72,0,0,0,.29.61,3.26,3.26,0,0,0,1.45.29l-.13.4h-5.76l.14-.4a3.16,3.16,0,0,0,1.12-.15,1.28,1.28,0,0,0,.63-.49,7.34,7.34,0,0,0,.69-1.82l2.57-8.77a6.3,6.3,0,0,0,.31-1.67.85.85,0,0,0-.14-.48.79.79,0,0,0-.41-.29,3.73,3.73,0,0,0-1.09-.1l.13-.4h11.3l-1.08,3.69h-.41a6.49,6.49,0,0,0,.12-1.1,1.57,1.57,0,0,0-.39-1.12,2.19,2.19,0,0,0-1-.59,10.82,10.82,0,0,0-1.93-.1Z"/><path class="cls-1" d="M339,172.76l-1.62,5.65h.5a5.89,5.89,0,0,0,2.85-.52,4,4,0,0,0,1.52-1.82h.4L341,181.74h-.37a6.22,6.22,0,0,0,.09-.92,1.37,1.37,0,0,0-.34-1,2,2,0,0,0-.91-.54,6.77,6.77,0,0,0-1.52-.11h-.84l-1.39,4.89a4,4,0,0,0-.18,1,.45.45,0,0,0,.23.4,2.75,2.75,0,0,0,1.3.21,7.86,7.86,0,0,0,3.46-.78,8.48,8.48,0,0,0,2.91-2.36h.44l-1.51,4H329.91l.13-.4a2.56,2.56,0,0,0,1.6-.41,3.86,3.86,0,0,0,.91-1.82l2.74-9.38a4.69,4.69,0,0,0,.22-1.24.7.7,0,0,0-.29-.62,2.78,2.78,0,0,0-1.32-.3l.12-.4h11.61l-.93,3.65h-.39a3.19,3.19,0,0,0-.33-1.52,2.6,2.6,0,0,0-1.2-1,6.48,6.48,0,0,0-2.42-.32Z"/><path d="M372.9,172.35l.13-.4h4.65a10.74,10.74,0,0,1,4.38.68,5.12,5.12,0,0,1,2.27,2.13,6.05,6.05,0,0,1,.85,3.12,8.88,8.88,0,0,1-1.59,4.94,10.48,10.48,0,0,1-1.9,1.79,8.94,8.94,0,0,1-2.77,1.44,12.74,12.74,0,0,1-3.73.47H369l.14-.4a3.25,3.25,0,0,0,1.14-.15,1.36,1.36,0,0,0,.64-.49,7,7,0,0,0,.7-1.82l2.57-8.81a6.31,6.31,0,0,0,.3-1.63.76.76,0,0,0-.28-.64,1.83,1.83,0,0,0-1.09-.23Zm3.82.41-3.16,10.9a8.1,8.1,0,0,0-.36,1.52.56.56,0,0,0,.12.33.52.52,0,0,0,.3.22,3.25,3.25,0,0,0,.9.09,13,13,0,0,0,3.14-.35,6.5,6.5,0,0,0,2.36-1,6.94,6.94,0,0,0,2.1-2.75,9.73,9.73,0,0,0,.78-4,5.18,5.18,0,0,0-1.2-3.75,4.69,4.69,0,0,0-3.51-1.23C377.81,172.72,377.32,172.73,376.72,172.76Z"/><path d="M426.16,171.62l-1.09,4.72h-.38l0-1.19a4.25,4.25,0,0,0-.25-1.14,2.37,2.37,0,0,0-.58-.88,2.71,2.71,0,0,0-1-.58,3.87,3.87,0,0,0-1.31-.21,5.55,5.55,0,0,0-3.36,1,8.79,8.79,0,0,0-2.88,3.8,10.39,10.39,0,0,0-.86,4.09,4.65,4.65,0,0,0,1.23,3.38,4.32,4.32,0,0,0,3.22,1.26,5.23,5.23,0,0,0,2.66-.67,7.14,7.14,0,0,0,2.16-2.05h.5a8.36,8.36,0,0,1-2.62,2.77,6.45,6.45,0,0,1-3.44.88,6.58,6.58,0,0,1-3.16-.74,5.06,5.06,0,0,1-2.1-2.1,6.15,6.15,0,0,1-.72-2.91,9.67,9.67,0,0,1,4.79-8.19,8.86,8.86,0,0,1,4.49-1.29,6.72,6.72,0,0,1,2.39.51,2.84,2.84,0,0,0,.84.21.94.94,0,0,0,.45-.11,3.12,3.12,0,0,0,.64-.61Z"/><path d="M462,171.62l-1.1,12.12c-.06.56-.09.94-.09,1.11a1.11,1.11,0,0,0,.16.66,1.21,1.21,0,0,0,.56.46,3.22,3.22,0,0,0,1.17.15l-.12.4h-5.73l.12-.4h.24a2,2,0,0,0,1.14-.3,1.24,1.24,0,0,0,.48-.67,8.15,8.15,0,0,0,.23-1.57l.17-1.85h-4.17l-1.48,2a5.18,5.18,0,0,0-.63,1,1.33,1.33,0,0,0-.13.55.74.74,0,0,0,.28.59,1.38,1.38,0,0,0,.92.27l-.12.4h-4.3l.11-.4a2.34,2.34,0,0,0,1.41-.53,13.79,13.79,0,0,0,1.81-2.13l8.7-11.84Zm-2.12,3.58-4.23,5.74h3.67Z"/><path d="M225.16,211.62l-1.09,4.72h-.38l0-1.19a4.25,4.25,0,0,0-.25-1.14,2.37,2.37,0,0,0-.58-.88,2.71,2.71,0,0,0-1-.58,3.87,3.87,0,0,0-1.31-.21,5.55,5.55,0,0,0-3.36,1,8.79,8.79,0,0,0-2.88,3.8,10.39,10.39,0,0,0-.86,4.09,4.65,4.65,0,0,0,1.23,3.38,4.32,4.32,0,0,0,3.22,1.26,5.23,5.23,0,0,0,2.66-.67,7.14,7.14,0,0,0,2.16-2.05h.5a8.36,8.36,0,0,1-2.62,2.77,6.45,6.45,0,0,1-3.44.88,6.58,6.58,0,0,1-3.16-.74,5.06,5.06,0,0,1-2.1-2.1,6.15,6.15,0,0,1-.72-2.91,9.67,9.67,0,0,1,4.79-8.19,8.86,8.86,0,0,1,4.49-1.29,6.72,6.72,0,0,1,2.39.51,2.84,2.84,0,0,0,.84.21.94.94,0,0,0,.45-.11,3.12,3.12,0,0,0,.64-.61Z"/><path d="M266.16,211.62l-1.09,4.72h-.38l0-1.19a4.25,4.25,0,0,0-.25-1.14,2.37,2.37,0,0,0-.58-.88,2.71,2.71,0,0,0-1-.58,3.87,3.87,0,0,0-1.31-.21,5.55,5.55,0,0,0-3.36,1,8.79,8.79,0,0,0-2.88,3.8,10.39,10.39,0,0,0-.86,4.09,4.65,4.65,0,0,0,1.23,3.38,4.32,4.32,0,0,0,3.22,1.26,5.23,5.23,0,0,0,2.66-.67,7.14,7.14,0,0,0,2.16-2.05h.5a8.36,8.36,0,0,1-2.62,2.77,6.45,6.45,0,0,1-3.44.88,6.58,6.58,0,0,1-3.16-.74,5.06,5.06,0,0,1-2.1-2.1,6.15,6.15,0,0,1-.72-2.91,9.67,9.67,0,0,1,4.79-8.19,8.86,8.86,0,0,1,4.49-1.29,6.72,6.72,0,0,1,2.39.51,2.84,2.84,0,0,0,.84.21.94.94,0,0,0,.45-.11,3.12,3.12,0,0,0,.64-.61Z"/><path d="M292.9,212.35l.13-.4h4.65a10.74,10.74,0,0,1,4.38.68,5.12,5.12,0,0,1,2.27,2.13,6.05,6.05,0,0,1,.85,3.12,8.88,8.88,0,0,1-1.59,4.94,10.48,10.48,0,0,1-1.9,1.79,8.94,8.94,0,0,1-2.77,1.44,12.74,12.74,0,0,1-3.73.47H289l.14-.4a3.25,3.25,0,0,0,1.14-.15,1.36,1.36,0,0,0,.64-.49,7.41,7.41,0,0,0,.7-1.82l2.57-8.81a6.31,6.31,0,0,0,.3-1.63.76.76,0,0,0-.28-.64,1.83,1.83,0,0,0-1.09-.23Zm3.82.41-3.16,10.9a8.1,8.1,0,0,0-.36,1.52.56.56,0,0,0,.12.33.52.52,0,0,0,.3.22,3.25,3.25,0,0,0,.9.09,13,13,0,0,0,3.14-.35,6.5,6.5,0,0,0,2.36-1,6.94,6.94,0,0,0,2.1-2.75,9.73,9.73,0,0,0,.78-4,5.18,5.18,0,0,0-1.2-3.75,4.69,4.69,0,0,0-3.51-1.23C297.81,212.72,297.32,212.73,296.72,212.76Z"/><path d="M337.83,212.73l-1.71,5.77H338a3.78,3.78,0,0,0,1.93-.4,4.42,4.42,0,0,0,1.31-1.7h.41l-1.51,5.31h-.43a5,5,0,0,0,.16-1.07,1.25,1.25,0,0,0-.44-1,2.66,2.66,0,0,0-1.63-.36H335.9l-1.27,4.39a7,7,0,0,0-.34,1.56.72.72,0,0,0,.29.61,3.26,3.26,0,0,0,1.45.29l-.13.4h-5.76l.14-.4a3.16,3.16,0,0,0,1.12-.15,1.28,1.28,0,0,0,.63-.49,7.34,7.34,0,0,0,.69-1.82l2.57-8.77a6.3,6.3,0,0,0,.31-1.67.85.85,0,0,0-.14-.48.79.79,0,0,0-.41-.29,3.73,3.73,0,0,0-1.09-.1l.13-.4h11.3l-1.08,3.69h-.41a6.49,6.49,0,0,0,.12-1.1,1.57,1.57,0,0,0-.39-1.12,2.19,2.19,0,0,0-1-.59,10.82,10.82,0,0,0-1.93-.1Z"/><path class="cls-1" d="M379,212.76l-1.62,5.65h.5a5.89,5.89,0,0,0,2.85-.52,4,4,0,0,0,1.52-1.82h.4L381,221.74h-.37a6.22,6.22,0,0,0,.09-.92,1.37,1.37,0,0,0-.34-1,2,2,0,0,0-.91-.54,6.77,6.77,0,0,0-1.52-.11h-.84l-1.39,4.89a4,4,0,0,0-.18,1,.45.45,0,0,0,.23.4,2.75,2.75,0,0,0,1.3.21,7.86,7.86,0,0,0,3.46-.78,8.48,8.48,0,0,0,2.91-2.36h.44l-1.51,4H369.91l.13-.4a2.56,2.56,0,0,0,1.6-.41,3.86,3.86,0,0,0,.91-1.82l2.74-9.38a4.69,4.69,0,0,0,.22-1.24.7.7,0,0,0-.29-.62,2.78,2.78,0,0,0-1.32-.3l.12-.4h11.61l-.93,3.65h-.39a3.19,3.19,0,0,0-.33-1.52,2.6,2.6,0,0,0-1.2-1,6.48,6.48,0,0,0-2.42-.32Z"/><path d="M422,211.62l-1.1,12.12c-.06.56-.09.94-.09,1.11a1.11,1.11,0,0,0,.16.66,1.21,1.21,0,0,0,.56.46,3.22,3.22,0,0,0,1.17.15l-.12.4h-5.73l.12-.4h.24a2,2,0,0,0,1.14-.3,1.24,1.24,0,0,0,.48-.67,8.15,8.15,0,0,0,.23-1.57l.17-1.85h-4.17l-1.48,2a5.18,5.18,0,0,0-.63,1,1.33,1.33,0,0,0-.13.55.74.74,0,0,0,.28.59,1.38,1.38,0,0,0,.92.27l-.12.4h-4.3l.11-.4a2.34,2.34,0,0,0,1.41-.53,13.79,13.79,0,0,0,1.81-2.13l8.7-11.84Zm-2.12,3.58-4.23,5.74h3.67Z"/><path d="M453.94,212.35l.15-.4h5.19a6.3,6.3,0,0,1,2.34.41,3.24,3.24,0,0,1,1.54,1.14,2.66,2.66,0,0,1,.51,1.55,3.35,3.35,0,0,1-.91,2.27,5.58,5.58,0,0,1-3,1.5,4.16,4.16,0,0,1,1.94,1.31,2.85,2.85,0,0,1,.63,1.79,4.39,4.39,0,0,1-2,3.61,6.34,6.34,0,0,1-2.12.81,15,15,0,0,1-2.75.18h-5.33l.13-.4a3.27,3.27,0,0,0,1.14-.16,1.29,1.29,0,0,0,.62-.48,9.08,9.08,0,0,0,.68-1.87l2.61-8.82a6.32,6.32,0,0,0,.34-1.57.77.77,0,0,0-.3-.63,2,2,0,0,0-1.12-.23Zm.06,13.22a13.55,13.55,0,0,0,1.81.16,4.75,4.75,0,0,0,3-1,3.31,3.31,0,0,0,1.29-2.74,2.71,2.71,0,0,0-.8-2.07,3.75,3.75,0,0,0-2.58-.74l-.84,0Zm2.12-7.17,1,0a4.88,4.88,0,0,0,3.32-1,3.12,3.12,0,0,0,1.09-2.43,2.22,2.22,0,0,0-.67-1.73,3.05,3.05,0,0,0-2.12-.62,5.38,5.38,0,0,0-1,.13Z"/><path d="M212.9,252.35l.13-.4h4.65a10.74,10.74,0,0,1,4.38.68,5.12,5.12,0,0,1,2.27,2.13,6.05,6.05,0,0,1,.85,3.12,8.88,8.88,0,0,1-1.59,4.94,10.48,10.48,0,0,1-1.9,1.79,8.94,8.94,0,0,1-2.77,1.44,12.74,12.74,0,0,1-3.73.47H209l.14-.4a3.25,3.25,0,0,0,1.14-.15,1.36,1.36,0,0,0,.64-.49,7.41,7.41,0,0,0,.7-1.82l2.57-8.81a6.31,6.31,0,0,0,.3-1.63.76.76,0,0,0-.28-.64,1.83,1.83,0,0,0-1.09-.23Zm3.82.41-3.16,10.9a8.1,8.1,0,0,0-.36,1.52.56.56,0,0,0,.12.33.52.52,0,0,0,.3.22,3.25,3.25,0,0,0,.9.09,13,13,0,0,0,3.14-.35,6.5,6.5,0,0,0,2.36-1,6.94,6.94,0,0,0,2.1-2.75,9.73,9.73,0,0,0,.78-4,5.18,5.18,0,0,0-1.2-3.75,4.69,4.69,0,0,0-3.51-1.23C217.81,252.72,217.32,252.73,216.72,252.76Z"/><path d="M252.9,252.35l.13-.4h4.65a10.74,10.74,0,0,1,4.38.68,5.12,5.12,0,0,1,2.27,2.13,6.05,6.05,0,0,1,.85,3.12,8.88,8.88,0,0,1-1.59,4.94,10.48,10.48,0,0,1-1.9,1.79,8.94,8.94,0,0,1-2.77,1.44,12.74,12.74,0,0,1-3.73.47H249l.14-.4a3.25,3.25,0,0,0,1.14-.15,1.36,1.36,0,0,0,.64-.49,7.41,7.41,0,0,0,.7-1.82l2.57-8.81a6.31,6.31,0,0,0,.3-1.63.76.76,0,0,0-.28-.64,1.83,1.83,0,0,0-1.09-.23Zm3.82.41-3.16,10.9a8.1,8.1,0,0,0-.36,1.52.56.56,0,0,0,.12.33.52.52,0,0,0,.3.22,3.25,3.25,0,0,0,.9.09,13,13,0,0,0,3.14-.35,6.5,6.5,0,0,0,2.36-1,6.94,6.94,0,0,0,2.1-2.75,9.73,9.73,0,0,0,.78-4,5.18,5.18,0,0,0-1.2-3.75,4.69,4.69,0,0,0-3.51-1.23C257.81,252.72,257.32,252.73,256.72,252.76Z"/><path d="M306.16,251.62l-1.09,4.72h-.38l0-1.19a4.25,4.25,0,0,0-.25-1.14,2.37,2.37,0,0,0-.58-.88,2.71,2.71,0,0,0-1-.58,3.87,3.87,0,0,0-1.31-.21,5.55,5.55,0,0,0-3.36,1,8.79,8.79,0,0,0-2.88,3.8,10.39,10.39,0,0,0-.86,4.09,4.65,4.65,0,0,0,1.23,3.38,4.32,4.32,0,0,0,3.22,1.26,5.23,5.23,0,0,0,2.66-.67,7.14,7.14,0,0,0,2.16-2.05h.5a8.36,8.36,0,0,1-2.62,2.77,6.45,6.45,0,0,1-3.44.88,6.58,6.58,0,0,1-3.16-.74,5.06,5.06,0,0,1-2.1-2.1,6.15,6.15,0,0,1-.72-2.91,9.67,9.67,0,0,1,4.79-8.19,8.86,8.86,0,0,1,4.49-1.29,6.72,6.72,0,0,1,2.39.51,2.84,2.84,0,0,0,.84.21.94.94,0,0,0,.45-.11,3.12,3.12,0,0,0,.64-.61Z"/><path d="M342,251.62l-1.1,12.12c-.06.56-.09.94-.09,1.11a1.11,1.11,0,0,0,.16.66,1.21,1.21,0,0,0,.56.46,3.22,3.22,0,0,0,1.17.15l-.12.4h-5.73l.12-.4h.24a2,2,0,0,0,1.14-.3,1.24,1.24,0,0,0,.48-.67,8.15,8.15,0,0,0,.23-1.57l.17-1.85h-4.17l-1.48,2a5.18,5.18,0,0,0-.63,1,1.33,1.33,0,0,0-.13.55.74.74,0,0,0,.28.59,1.38,1.38,0,0,0,.92.27l-.12.4h-4.3l.11-.4a2.34,2.34,0,0,0,1.41-.53,13.79,13.79,0,0,0,1.81-2.13l8.7-11.84Zm-2.12,3.58-4.23,5.74h3.67Z"/><path d="M373.94,252.35l.15-.4h5.19a6.3,6.3,0,0,1,2.34.41,3.24,3.24,0,0,1,1.54,1.14,2.66,2.66,0,0,1,.51,1.55,3.35,3.35,0,0,1-.91,2.27,5.58,5.58,0,0,1-3,1.5,4.16,4.16,0,0,1,1.94,1.31,2.85,2.85,0,0,1,.63,1.79,4.39,4.39,0,0,1-2,3.61,6.34,6.34,0,0,1-2.12.81,15,15,0,0,1-2.75.18h-5.33l.13-.4a3.27,3.27,0,0,0,1.14-.16,1.29,1.29,0,0,0,.62-.48,9.08,9.08,0,0,0,.68-1.87l2.61-8.82a6.32,6.32,0,0,0,.34-1.57.77.77,0,0,0-.3-.63,2,2,0,0,0-1.12-.23Zm.06,13.22a13.55,13.55,0,0,0,1.81.16,4.75,4.75,0,0,0,3-1,3.31,3.31,0,0,0,1.29-2.74,2.71,2.71,0,0,0-.8-2.07,3.75,3.75,0,0,0-2.58-.74l-.84,0Zm2.12-7.17,1,0a4.88,4.88,0,0,0,3.32-1,3.12,3.12,0,0,0,1.09-2.43,2.22,2.22,0,0,0-.67-1.73,3.05,3.05,0,0,0-2.12-.62,5.38,5.38,0,0,0-1,.13Z"/><path d="M417.83,252.73l-1.71,5.77H418a3.78,3.78,0,0,0,1.93-.4,4.42,4.42,0,0,0,1.31-1.7h.41l-1.51,5.31h-.43a5,5,0,0,0,.16-1.07,1.25,1.25,0,0,0-.44-1,2.66,2.66,0,0,0-1.63-.36H415.9l-1.27,4.39a7,7,0,0,0-.34,1.56.72.72,0,0,0,.29.61,3.26,3.26,0,0,0,1.45.29l-.13.4h-5.76l.14-.4a3.16,3.16,0,0,0,1.12-.15,1.28,1.28,0,0,0,.63-.49,7.34,7.34,0,0,0,.69-1.82l2.57-8.77a6.3,6.3,0,0,0,.31-1.67.85.85,0,0,0-.14-.48.79.79,0,0,0-.41-.29,3.73,3.73,0,0,0-1.09-.1l.13-.4h11.3l-1.08,3.69h-.41a6.49,6.49,0,0,0,.12-1.1,1.57,1.57,0,0,0-.39-1.12,2.19,2.19,0,0,0-1-.59,10.82,10.82,0,0,0-1.93-.1Z"/><path class="cls-1" d="M459,252.76l-1.62,5.65h.5a5.89,5.89,0,0,0,2.85-.52,4,4,0,0,0,1.52-1.82h.4L461,261.74h-.37a6.22,6.22,0,0,0,.09-.92,1.37,1.37,0,0,0-.34-1,2,2,0,0,0-.91-.54,6.77,6.77,0,0,0-1.52-.11h-.84l-1.39,4.89a4,4,0,0,0-.18,1,.45.45,0,0,0,.23.4,2.75,2.75,0,0,0,1.3.21,7.86,7.86,0,0,0,3.46-.78,8.48,8.48,0,0,0,2.91-2.36h.44l-1.51,4H449.91l.13-.4a2.56,2.56,0,0,0,1.6-.41,3.86,3.86,0,0,0,.91-1.82l2.74-9.38a4.69,4.69,0,0,0,.22-1.24.7.7,0,0,0-.29-.62,2.78,2.78,0,0,0-1.32-.3l.12-.4h11.61l-.93,3.65h-.39a3.19,3.19,0,0,0-.33-1.52,2.6,2.6,0,0,0-1.2-1,6.48,6.48,0,0,0-2.42-.32Z"/><path d="M217.83,292.73l-1.71,5.77H218a3.78,3.78,0,0,0,1.93-.4,4.42,4.42,0,0,0,1.31-1.7h.41l-1.51,5.31h-.43a5,5,0,0,0,.16-1.07,1.25,1.25,0,0,0-.44-1,2.66,2.66,0,0,0-1.63-.36H215.9l-1.27,4.39a7,7,0,0,0-.34,1.56.72.72,0,0,0,.29.61,3.26,3.26,0,0,0,1.45.29l-.13.4h-5.76l.14-.4a3.16,3.16,0,0,0,1.12-.15,1.28,1.28,0,0,0,.63-.49,7.34,7.34,0,0,0,.69-1.82l2.57-8.77a6.3,6.3,0,0,0,.31-1.67.85.85,0,0,0-.14-.48.79.79,0,0,0-.41-.29,3.73,3.73,0,0,0-1.09-.1l.13-.4h11.3l-1.08,3.69h-.41a6.49,6.49,0,0,0,.12-1.1,1.57,1.57,0,0,0-.39-1.12,2.19,2.19,0,0,0-1-.59,10.82,10.82,0,0,0-1.93-.1Z"/><path d="M258.83,292.73l-1.71,5.77H259a3.78,3.78,0,0,0,1.93-.4,4.42,4.42,0,0,0,1.31-1.7h.41l-1.51,5.31h-.43a5,5,0,0,0,.16-1.07,1.25,1.25,0,0,0-.44-1,2.66,2.66,0,0,0-1.63-.36H256.9l-1.27,4.39a7,7,0,0,0-.34,1.56.72.72,0,0,0,.29.61,3.26,3.26,0,0,0,1.45.29l-.13.4h-5.76l.14-.4a3.16,3.16,0,0,0,1.12-.15,1.28,1.28,0,0,0,.63-.49,7.34,7.34,0,0,0,.69-1.82l2.57-8.77a6.3,6.3,0,0,0,.31-1.67.85.85,0,0,0-.14-.48.79.79,0,0,0-.41-.29,3.73,3.73,0,0,0-1.09-.1l.13-.4h11.3l-1.08,3.69h-.41a6.49,6.49,0,0,0,.12-1.1,1.57,1.57,0,0,0-.39-1.12,2.19,2.19,0,0,0-1-.59,10.82,10.82,0,0,0-1.93-.1Z"/><path d="M293.94,292.35l.15-.4h5.19a6.3,6.3,0,0,1,2.34.41,3.29,3.29,0,0,1,1.54,1.14,2.66,2.66,0,0,1,.51,1.55,3.35,3.35,0,0,1-.91,2.27,5.58,5.58,0,0,1-3,1.5,4.16,4.16,0,0,1,1.94,1.31,2.85,2.85,0,0,1,.63,1.79,4.39,4.39,0,0,1-2,3.61,6.34,6.34,0,0,1-2.12.81,15,15,0,0,1-2.75.18h-5.33l.13-.4a3.27,3.27,0,0,0,1.14-.16,1.29,1.29,0,0,0,.62-.48,9.08,9.08,0,0,0,.68-1.87l2.61-8.82a6.32,6.32,0,0,0,.34-1.57.77.77,0,0,0-.3-.63,2,2,0,0,0-1.12-.23Zm.06,13.22a13.55,13.55,0,0,0,1.81.16,4.75,4.75,0,0,0,3-1,3.31,3.31,0,0,0,1.29-2.74,2.71,2.71,0,0,0-.8-2.07,3.75,3.75,0,0,0-2.58-.74l-.84,0Zm2.12-7.17,1,0a4.88,4.88,0,0,0,3.32-1,3.12,3.12,0,0,0,1.09-2.43,2.22,2.22,0,0,0-.67-1.73,3.05,3.05,0,0,0-2.12-.62,5.38,5.38,0,0,0-1,.13Z"/><path d="M346.16,291.62l-1.09,4.72h-.38l0-1.19a4.25,4.25,0,0,0-.25-1.14,2.37,2.37,0,0,0-.58-.88,2.71,2.71,0,0,0-1-.58,3.87,3.87,0,0,0-1.31-.21,5.55,5.55,0,0,0-3.36,1.05,8.79,8.79,0,0,0-2.88,3.8,10.39,10.39,0,0,0-.86,4.09,4.65,4.65,0,0,0,1.23,3.38,4.32,4.32,0,0,0,3.22,1.26,5.23,5.23,0,0,0,2.66-.67,7.14,7.14,0,0,0,2.16-2.05h.5a8.36,8.36,0,0,1-2.62,2.77,6.45,6.45,0,0,1-3.44.88,6.58,6.58,0,0,1-3.16-.74,5.06,5.06,0,0,1-2.1-2.1,6.15,6.15,0,0,1-.72-2.91,9.67,9.67,0,0,1,4.79-8.19,8.86,8.86,0,0,1,4.49-1.29,6.72,6.72,0,0,1,2.39.51,2.84,2.84,0,0,0,.84.21.94.94,0,0,0,.45-.11,3.12,3.12,0,0,0,.64-.61Z"/><path d="M382,291.62l-1.1,12.12c-.06.56-.09.94-.09,1.11a1.11,1.11,0,0,0,.16.66,1.21,1.21,0,0,0,.56.46,3.22,3.22,0,0,0,1.17.15l-.12.4h-5.73l.12-.4h.24a2,2,0,0,0,1.14-.3,1.24,1.24,0,0,0,.48-.67,8.15,8.15,0,0,0,.23-1.57l.17-1.85h-4.17l-1.48,2a5.18,5.18,0,0,0-.63,1,1.33,1.33,0,0,0-.13.55.74.74,0,0,0,.28.59,1.38,1.38,0,0,0,.92.27l-.12.4h-4.3l.11-.4a2.34,2.34,0,0,0,1.41-.53,13.79,13.79,0,0,0,1.81-2.13l8.7-11.84Zm-2.12,3.58-4.23,5.74h3.67Z"/><path class="cls-1" d="M419,292.76l-1.62,5.65h.5a5.89,5.89,0,0,0,2.85-.52,4,4,0,0,0,1.52-1.82h.4L421,301.74h-.37a6.22,6.22,0,0,0,.09-.92,1.37,1.37,0,0,0-.34-1,2,2,0,0,0-.91-.54,6.77,6.77,0,0,0-1.52-.11h-.84l-1.39,4.89a4,4,0,0,0-.18,1,.45.45,0,0,0,.23.4,2.75,2.75,0,0,0,1.3.21,7.86,7.86,0,0,0,3.46-.78,8.48,8.48,0,0,0,2.91-2.36h.44l-1.51,4H409.91l.13-.4a2.56,2.56,0,0,0,1.6-.41,3.86,3.86,0,0,0,.91-1.82l2.74-9.38a4.69,4.69,0,0,0,.22-1.24.7.7,0,0,0-.29-.62,2.78,2.78,0,0,0-1.32-.3l.12-.4h11.61l-.93,3.65h-.39a3.19,3.19,0,0,0-.33-1.52,2.6,2.6,0,0,0-1.2-1,6.48,6.48,0,0,0-2.42-.32Z"/><path d="M452.9,292.35l.13-.4h4.65a10.74,10.74,0,0,1,4.38.68,5.12,5.12,0,0,1,2.27,2.13,6.05,6.05,0,0,1,.85,3.12,8.88,8.88,0,0,1-1.59,4.94,10.48,10.48,0,0,1-1.9,1.79,8.94,8.94,0,0,1-2.77,1.44,12.74,12.74,0,0,1-3.73.47H449l.14-.4a3.25,3.25,0,0,0,1.14-.15,1.36,1.36,0,0,0,.64-.49,7,7,0,0,0,.7-1.82l2.57-8.81a6.31,6.31,0,0,0,.3-1.63.76.76,0,0,0-.28-.64,1.83,1.83,0,0,0-1.09-.23Zm3.82.41-3.16,10.9a8.1,8.1,0,0,0-.36,1.52.56.56,0,0,0,.12.33.52.52,0,0,0,.3.22,3.25,3.25,0,0,0,.9.09,13,13,0,0,0,3.14-.35,6.5,6.5,0,0,0,2.36-1,6.94,6.94,0,0,0,2.1-2.75,9.73,9.73,0,0,0,.78-4,5.18,5.18,0,0,0-1.2-3.75,4.69,4.69,0,0,0-3.51-1.23C457.81,292.72,457.32,292.73,456.72,292.76Z"/><line class="cls-2" x1="237.68" y1="39.34" x2="237.68" y2="319.34"/><line class="cls-2" x1="197.68" y1="79.34" x2="477.68" y2="79.34"/><path class="cls-3" d="M151,218c-.34-1.71-.59-2.92-.77-3.62a7.47,7.47,0,0,1-.26-1.8,2.69,2.69,0,0,1,.25-1.24c.17-.33.32-.49.45-.49s.27.14.39.43a23.9,23.9,0,0,1,.62,3.18c.3,1.83.5,3.2.61,4.09a32,32,0,0,1,7.11,4.23,14.88,14.88,0,0,1,3.35,3.64,6.36,6.36,0,0,1,.9,2c0,.08,0,.12-.08.12s-.45-.28-.88-.82a24.76,24.76,0,0,0-4.49-4.33,30.9,30.9,0,0,0-5.71-3.28c.09.83.14,1.45.14,1.84a3.13,3.13,0,0,1-.26,1.2c-.18.41-.32.61-.44.61s-.2-.32-.26-1c-.11-1.2-.24-2.26-.38-3.19a24.52,24.52,0,0,0-2.85-1,8.78,8.78,0,0,0-2.1-.36,2.75,2.75,0,0,0-.59.08,2.28,2.28,0,0,1-.63.09c-.21,0-.31-.13-.31-.38a3.86,3.86,0,0,1,.4-1.28c.28-.61.59-.91.94-.91a.87.87,0,0,1,.59.26,7.16,7.16,0,0,0,1.82.85C149.56,217.44,150.38,217.77,151,218Zm-.24-24.34c1.25,0,3,.05,5.3.05a16.22,16.22,0,0,0,2.58-2.93,15.8,15.8,0,0,0,2.31-3.88,21.74,21.74,0,0,0,.9-3.8q.09-.57.33-.57c.08,0,.15.08.22.25a15.45,15.45,0,0,1,.32,1.78,17.65,17.65,0,0,1,.23,2.44,2.39,2.39,0,0,1-.42,1.48c-.28.37-1,1.13-2.14,2.29a33.08,33.08,0,0,1-3.25,2.94c2.39,0,4,0,4.83-.06s1.55-.06,2.17-.06a4.71,4.71,0,0,1,1.59.24c.45.16.68.33.68.51s-.2.38-.6.61a2.38,2.38,0,0,1-1.18.35,3.28,3.28,0,0,1-1-.15,25.65,25.65,0,0,0-5.93-.41,10.59,10.59,0,0,1,3.1,2.72,15.78,15.78,0,0,1,2.17,3.43,7.22,7.22,0,0,1,.71,2.12c0,.35-.06.52-.16.52s-.2-.09-.28-.27a20.69,20.69,0,0,0-3.13-4.84,15.52,15.52,0,0,0-4.35-3.68c-2.34,0-3.95.07-4.83.1a40,40,0,0,0,.76,4.62,4.16,4.16,0,0,1,.25,1.16,2.13,2.13,0,0,1-.28.94c-.18.37-.35.55-.5.55s-.24-.27-.28-.81c-.09-1.64-.35-3.77-.76-6.41a5.35,5.35,0,0,0-2.09.53c.29,1.37.43,2.15.43,2.32s-.07.41-.22.41-.2-.09-.26-.26q-1.59-4.25-2.38-4.83a.84.84,0,0,1-.38-.61,2.34,2.34,0,0,1,.48-1c.32-.47.57-.7.76-.7s.31.13.39.4l.51,1.78c.27.9.42,1.43.45,1.61a6.34,6.34,0,0,1,.4-1c.12-.23.25-.34.41-.34a1.52,1.52,0,0,1,.68.29,1.26,1.26,0,0,0,.6.14c-.26-1.45-.49-2.56-.7-3.32a7.8,7.8,0,0,1-.31-1.9,3.7,3.7,0,0,1,.3-1.46c.2-.47.39-.71.58-.71s.33.15.44.46a3.8,3.8,0,0,1,.17,1.27l0,1c0,.81.14,2.41.43,4.77Zm-3.82-25.46q0-1.08.51-1.08c.49,0,1,.85,1.45,2.56a16.58,16.58,0,0,1,.71,3.38,3.59,3.59,0,0,1-.18,1.28c-.12.31-.23.46-.33.46s-.19-.2-.27-.6-.24-.94-.46-1.63a19.52,19.52,0,0,0-.68-1.86c-.24-.55-.43-1-.56-1.41a3.69,3.69,0,0,1-.19-1.1ZM154,191.09a4.05,4.05,0,0,0,1.52-.09c.3-.1.44-.42.44-1a3.54,3.54,0,0,0-.26-1.43,1.46,1.46,0,0,0-.94-.82c-.44-.15-.67-.27-.67-.36s.18-.18.53-.24a2.58,2.58,0,0,0,.8-.26,1.05,1.05,0,0,1,.4-.15c.29,0,.56.27.82.81a4.63,4.63,0,0,1,.38,1.94,4.27,4.27,0,0,1-.23,1.62,1.42,1.42,0,0,1-.72.73,3.28,3.28,0,0,1-1.38.21h-1.08a6.31,6.31,0,0,0-1.87.16,1.79,1.79,0,0,1-.59.15c-.13,0-.2-.06-.2-.19a2.39,2.39,0,0,1,.31-.8c.21-.41.43-.61.66-.61a2.84,2.84,0,0,1,.77.12,4.4,4.4,0,0,0,.66.14,12.17,12.17,0,0,0-.81-1.18,4.29,4.29,0,0,0-.7-.74.56.56,0,0,1-.29-.44,1.53,1.53,0,0,1,.37-.74c.25-.33.46-.5.64-.5s.29.17.36.52A30,30,0,0,0,154,191.09Zm-.75-20.79a5.59,5.59,0,0,1,.7-1.09.87.87,0,0,1,.62-.35,1.91,1.91,0,0,1,.81.26,5.19,5.19,0,0,0,1.45.4,11.86,11.86,0,0,0,2,.16c1.56,0,2.58-.26,3.08-.77a3.51,3.51,0,0,0,.74-2.49,14.13,14.13,0,0,0-.18-2.25,4.06,4.06,0,0,0-.54-1.63,2.55,2.55,0,0,0-1.07-.83,10.07,10.07,0,0,0-1.81-.56c-.74-.17-1.1-.31-1.1-.43s.26-.19.79-.21a8.78,8.78,0,0,0,2.53-.3,3.08,3.08,0,0,1,.9-.25c.5,0,1,.55,1.39,1.64a9.5,9.5,0,0,1,.65,3.5,11.21,11.21,0,0,1-.37,3.12,2.93,2.93,0,0,1-1.36,1.82,7.24,7.24,0,0,1-3.33.55l-4.2-.14q-1.26,0-1.56.45c.24,1.09.42,2,.55,2.67.29-.43.51-.75.68-.95s.32-.3.46-.3a1.08,1.08,0,0,1,.53.23,10.75,10.75,0,0,0,1.57.75,11,11,0,0,1,3.31,2.39,11.22,11.22,0,0,1,2.1,2.86,5.68,5.68,0,0,1,.61,1.67c0,.09,0,.14-.07.14s-.3-.19-.55-.58a17.55,17.55,0,0,0-2.56-3,11.89,11.89,0,0,0-3-2.11,6,6,0,0,0-2.37-.72.91.91,0,0,0-.6.17,12.88,12.88,0,0,1,.41,2.35,3.26,3.26,0,0,1-.15,1.06c-.09.29-.21.43-.33.43s-.23-.3-.29-.91-.35-2-.84-4.09-.92-3.7-1.27-4.73a7.77,7.77,0,0,1-.53-2.34,2.34,2.34,0,0,1,.26-1.21q.27-.42.48-.42.4,0,.69,1.83C152.7,167.32,153,168.72,153.27,170.3Zm.51,27.6a3.34,3.34,0,0,0-1.08.24,1.23,1.23,0,0,1-.51.17.25.25,0,0,1-.29-.29,2.34,2.34,0,0,1,.33-.91c.21-.41.4-.62.55-.62a2.58,2.58,0,0,1,.68.13,8.11,8.11,0,0,0,1.85.13,4.22,4.22,0,0,1,1.8.24c.27.16.41.34.41.53s-.37.3-1.1.31a19,19,0,0,0,1.63,2.23.86.86,0,0,1,.19.56,1.12,1.12,0,0,1-.38.7,1.05,1.05,0,0,1-.69.4c-.2,0-.3-.31-.3-.94a14,14,0,0,0-1.1-2.95q-1,0-1.35,0a5.8,5.8,0,0,1,.48,1.84,1.48,1.48,0,0,1-.2.77q-.21.36-.42.36c-.19,0-.29-.24-.29-.72a3.53,3.53,0,0,0-.08-.55,1.91,1.91,0,0,0-.15-.48,1.09,1.09,0,0,1-.06-.47A3.29,3.29,0,0,1,153.78,197.9ZM159,215.71a24.89,24.89,0,0,0,3.38.43c-.24-2.33-.39-3.64-.44-3.91a5.18,5.18,0,0,1-.09-1.08,3.39,3.39,0,0,1,.51-1.59c.33-.62.66-.93,1-.93s.47.27.47.79a5.38,5.38,0,0,1-.13,1,17.77,17.77,0,0,0-.26,2.22q-.12,1.62-.12,3.18a33.39,33.39,0,0,0,.3,4c.2,1.61.34,2.51.4,2.71a1.92,1.92,0,0,1,.1.49,2.08,2.08,0,0,1-.4,1.16q-.39.57-.6.57c-.14,0-.2-.17-.2-.53l0-.67q0-1.2-.41-6c-1.25-.1-2.29-.15-3.13-.15a2.61,2.61,0,0,0-1.62.34c.05.51.07,1,.07,1.45a2.25,2.25,0,0,1-.25,1.13c-.17.3-.31.44-.42.44s-.19-.33-.24-1A41.16,41.16,0,0,0,156,215a7.88,7.88,0,0,1-.24-1.48,2.35,2.35,0,0,1,.27-1c.17-.38.34-.56.5-.56s.31.18.46.56a34.77,34.77,0,0,1,.69,4.28c.31-.8.65-1.2,1-1.2a1.24,1.24,0,0,1,.31.05Z"/><path class="cls-3" d="M331.23,6.31q4.27-.67,5.4-1a9.61,9.61,0,0,1,2-.29,3.12,3.12,0,0,1,1.46.36c.47.24.7.5.7.77,0,.45-.68.67-2,.67l-2-.07a41.14,41.14,0,0,0-5.83.48,27.28,27.28,0,0,1-2.72,5.11l.41.2a24.24,24.24,0,0,0,3.52-.45,13.39,13.39,0,0,0,2.65-.71,2.19,2.19,0,0,1,.86-.21,2.69,2.69,0,0,1,1.12.39l1.27.71c.36.21.54.38.54.52s-.13.32-.38.56a6.41,6.41,0,0,0-1,1.56,5.07,5.07,0,0,0-.64,1.49.56.56,0,0,0,.15.43,1,1,0,0,1,.33.64.46.46,0,0,1-.27.42,11,11,0,0,1-2.24.31c-1.3.11-3,.2-5.05.26a4.42,4.42,0,0,1-.14,1.16c-.08.25-.2.38-.36.38s-.31-.17-.45-.52a5.43,5.43,0,0,1-.27-1.45c-.21-2.89-.43-4.51-.65-4.85a17.51,17.51,0,0,1-4.22,4.24,6.71,6.71,0,0,1-2.74,1.26c-.13,0-.19,0-.19-.14s.21-.29.62-.58a21.89,21.89,0,0,0,4.9-4.54,24.24,24.24,0,0,0,3.33-6,36.47,36.47,0,0,0-3.86.84,8.26,8.26,0,0,1-1.87.41,1.85,1.85,0,0,1-1.08-.42c-.39-.28-.58-.48-.58-.58s.2-.16.6-.18c1.11-.08,3.48-.42,7.13-1a12.08,12.08,0,0,0,.84-4,2,2,0,0,0-.2-.91A1.53,1.53,0,0,1,330,1q0-.33.39-.33a4.31,4.31,0,0,1,1.41.48c.69.32,1,.58,1,.76a1.36,1.36,0,0,1-.2.65C332.52,2.76,332.05,4,331.23,6.31Zm-2.16,7.06q.23,1.85.36,4.2c1.87-.21,3.17-.38,3.88-.52a3.35,3.35,0,0,0,1.35-.44,2.19,2.19,0,0,0,.51-1.09,7,7,0,0,0,.21-1.67,3,3,0,0,0-.07-.94.43.43,0,0,0-.26-.17,2.39,2.39,0,0,0-.51,0q-.65,0-5.47.67Zm26.43-7.8c0,1.25-.05,3-.05,5.3a16.22,16.22,0,0,0,2.93,2.58,15.8,15.8,0,0,0,3.88,2.31,21.74,21.74,0,0,0,3.8.9q.57.09.57.33c0,.08-.08.15-.25.22a15.45,15.45,0,0,1-1.78.32,17.65,17.65,0,0,1-2.44.23,2.39,2.39,0,0,1-1.48-.42c-.37-.28-1.13-1-2.29-2.14A33.08,33.08,0,0,1,355.45,12c0,2.39,0,4,.06,4.83s.06,1.55.06,2.17a4.71,4.71,0,0,1-.24,1.59c-.16.45-.33.68-.51.68s-.38-.2-.61-.6a2.38,2.38,0,0,1-.35-1.18,3.28,3.28,0,0,1,.15-1,25.65,25.65,0,0,0,.41-5.93,10.59,10.59,0,0,1-2.72,3.1,15.78,15.78,0,0,1-3.43,2.17,7.22,7.22,0,0,1-2.12.71c-.35,0-.52-.06-.52-.16s.09-.2.27-.28a20.69,20.69,0,0,0,4.84-3.13,15.52,15.52,0,0,0,3.68-4.35c0-2.34-.07-3.95-.1-4.83a40,40,0,0,0-4.62.76,4.16,4.16,0,0,1-1.16.25,2.13,2.13,0,0,1-.94-.28c-.37-.18-.55-.35-.55-.5s.27-.24.81-.28c1.64-.09,3.77-.35,6.41-.76a5.35,5.35,0,0,0-.53-2.09c-1.37.29-2.15.43-2.32.43S351,3.17,351,3s.09-.2.26-.26q4.25-1.59,4.83-2.38a.84.84,0,0,1,.61-.38,2.34,2.34,0,0,1,1,.48c.47.32.7.57.7.76s-.13.31-.4.39l-1.78.51c-.9.27-1.43.42-1.61.45a6.34,6.34,0,0,1,1,.4c.23.12.34.25.34.41a1.52,1.52,0,0,1-.29.68,1.26,1.26,0,0,0-.14.6c1.45-.26,2.56-.49,3.32-.7a7.8,7.8,0,0,1,1.9-.31,3.7,3.7,0,0,1,1.46.3c.47.2.71.39.71.58s-.15.33-.46.44a3.8,3.8,0,0,1-1.27.17l-1,0c-.81,0-2.41.14-4.77.43Zm-4.2,3a3.34,3.34,0,0,0-.24-1.08,1.23,1.23,0,0,1-.17-.51.25.25,0,0,1,.29-.29,2.34,2.34,0,0,1,.91.33c.41.21.62.4.62.55a2.58,2.58,0,0,1-.13.68,8.11,8.11,0,0,0-.13,1.85,4.22,4.22,0,0,1-.24,1.8c-.16.27-.34.41-.53.41s-.3-.37-.31-1.1a19,19,0,0,0-2.23,1.63.86.86,0,0,1-.56.19,1.12,1.12,0,0,1-.7-.38,1.05,1.05,0,0,1-.4-.69c0-.2.31-.3.94-.3a14,14,0,0,0,2.95-1.1q0-1,0-1.35a5.8,5.8,0,0,1-1.84.48,1.48,1.48,0,0,1-.77-.2q-.36-.21-.36-.42c0-.19.24-.29.72-.29a3.53,3.53,0,0,0,.55-.08,1.91,1.91,0,0,0,.48-.15,1.09,1.09,0,0,1,.47-.06A3.29,3.29,0,0,1,351.3,8.62Zm6.81.24a4.05,4.05,0,0,0,.09,1.52c.1.3.42.44,1,.44a3.54,3.54,0,0,0,1.43-.26,1.46,1.46,0,0,0,.82-.94c.15-.44.27-.67.36-.67s.18.18.24.53a2.58,2.58,0,0,0,.26.8,1.05,1.05,0,0,1,.15.4c0,.29-.27.56-.81.82a4.63,4.63,0,0,1-1.94.38,4.27,4.27,0,0,1-1.62-.23,1.42,1.42,0,0,1-.73-.72,3.28,3.28,0,0,1-.21-1.38c0-.59,0-1,0-1.08A6.31,6.31,0,0,0,357,6.6a1.79,1.79,0,0,1-.15-.59c0-.13.06-.2.19-.2a2.39,2.39,0,0,1,.8.31c.41.21.61.43.61.66a2.84,2.84,0,0,1-.12.77,4.4,4.4,0,0,0-.14.66,12.17,12.17,0,0,0,1.18-.81,4.29,4.29,0,0,0,.74-.7.56.56,0,0,1,.44-.29,1.53,1.53,0,0,1,.74.37c.33.25.5.46.5.64s-.17.29-.52.36A30,30,0,0,0,358.11,8.86Zm20.79-.75a5.59,5.59,0,0,1,1.09.7.87.87,0,0,1,.35.62,1.91,1.91,0,0,1-.26.81,5.19,5.19,0,0,0-.4,1.45,11.86,11.86,0,0,0-.16,2c0,1.56.26,2.58.77,3.08a3.51,3.51,0,0,0,2.49.74,14.13,14.13,0,0,0,2.25-.18,4.06,4.06,0,0,0,1.63-.54,2.55,2.55,0,0,0,.83-1.07,10.07,10.07,0,0,0,.56-1.81c.17-.74.31-1.1.43-1.1s.19.26.21.79a8.78,8.78,0,0,0,.3,2.53,3.08,3.08,0,0,1,.25.9c0,.5-.55,1-1.64,1.39a9.5,9.5,0,0,1-3.5.65,11.21,11.21,0,0,1-3.12-.37,2.93,2.93,0,0,1-1.82-1.36,7.24,7.24,0,0,1-.55-3.33l.14-4.2q0-1.26-.45-1.56c-1.09.24-2,.42-2.67.55.43.29.75.51.95.68s.3.32.3.46a1.08,1.08,0,0,1-.23.53,10.75,10.75,0,0,0-.75,1.57,11,11,0,0,1-2.39,3.31,11.22,11.22,0,0,1-2.86,2.1,5.68,5.68,0,0,1-1.67.61c-.09,0-.14,0-.14-.07s.19-.3.58-.55a17.55,17.55,0,0,0,3-2.56,11.89,11.89,0,0,0,2.11-3,6,6,0,0,0,.72-2.37.91.91,0,0,0-.17-.6,12.88,12.88,0,0,1-2.35.41,3.26,3.26,0,0,1-1.06-.15c-.29-.09-.43-.21-.43-.33s.3-.23.91-.29,2-.35,4.09-.84,3.7-.92,4.73-1.27a7.77,7.77,0,0,1,2.34-.53,2.34,2.34,0,0,1,1.21.26q.42.27.42.48,0,.41-1.83.69C381.88,7.54,380.48,7.79,378.9,8.11ZM381,1.75q1.08,0,1.08.51c0,.49-.85,1-2.56,1.45a16.58,16.58,0,0,1-3.38.71,3.59,3.59,0,0,1-1.28-.18c-.31-.12-.46-.23-.46-.33s.2-.19.6-.27.94-.24,1.63-.46a19.52,19.52,0,0,0,1.86-.68c.55-.24,1-.43,1.41-.56a3.69,3.69,0,0,1,1.1-.19Z"/><path class="cls-3" d="M524.63,171.34c-1.25,0-3-.05-5.3-.05a16.22,16.22,0,0,0-2.58,2.93,15.8,15.8,0,0,0-2.31,3.88,21.74,21.74,0,0,0-.9,3.8q-.09.57-.33.57c-.08,0-.15-.08-.22-.25a15.45,15.45,0,0,1-.32-1.78,17.65,17.65,0,0,1-.23-2.44,2.39,2.39,0,0,1,.42-1.48c.28-.37,1-1.13,2.14-2.29a33.08,33.08,0,0,1,3.25-2.94c-2.39,0-4,0-4.83.06s-1.55.06-2.17.06a4.71,4.71,0,0,1-1.59-.24c-.45-.16-.68-.33-.68-.51s.2-.38.6-.61a2.38,2.38,0,0,1,1.18-.35,3.28,3.28,0,0,1,1,.15,25.65,25.65,0,0,0,5.93.41,10.59,10.59,0,0,1-3.1-2.72,15.78,15.78,0,0,1-2.17-3.43,7.22,7.22,0,0,1-.71-2.12c0-.35.06-.52.16-.52s.2.09.28.27a20.69,20.69,0,0,0,3.13,4.84,15.52,15.52,0,0,0,4.35,3.68c2.34,0,4-.07,4.83-.1a40,40,0,0,0-.76-4.62,4.16,4.16,0,0,1-.25-1.16,2.13,2.13,0,0,1,.28-.94c.18-.37.35-.55.5-.55s.24.27.28.81c.09,1.64.35,3.77.76,6.41a5.35,5.35,0,0,0,2.09-.53c-.29-1.37-.43-2.15-.43-2.32s.07-.41.22-.41.2.09.26.26q1.59,4.24,2.38,4.83a.84.84,0,0,1,.38.61,2.34,2.34,0,0,1-.48,1c-.32.47-.57.7-.76.7s-.31-.13-.39-.4l-.51-1.78c-.27-.9-.42-1.43-.45-1.61a6.34,6.34,0,0,1-.4,1c-.12.23-.25.34-.41.34a1.52,1.52,0,0,1-.68-.29,1.26,1.26,0,0,0-.6-.14c.26,1.45.49,2.56.7,3.32a7.8,7.8,0,0,1,.31,1.9,3.7,3.7,0,0,1-.3,1.46c-.2.47-.39.71-.58.71s-.33-.15-.44-.46a3.8,3.8,0,0,1-.17-1.27l0-1c0-.81-.14-2.41-.43-4.77Zm-1.39,20.35c.08.4.17.79.26,1.17a4.19,4.19,0,0,1,.15,1,1.13,1.13,0,0,1-.19.69.52.52,0,0,1-.36.24c-.12,0-.21-.22-.29-.65l-.51-2.52-2.47-.07a8.38,8.38,0,0,1,0,1,2.91,2.91,0,0,1-.31,1.29,1,1,0,0,1-.91.65.62.62,0,0,1-.46-.17A.54.54,0,0,1,518,194a1.06,1.06,0,0,1,.17-.52c.11-.19.59-.82,1.44-1.87-2,0-3.75,0-5.15,0a10.33,10.33,0,0,1-3.14-.29c-.7-.22-1.05-.41-1.05-.56s.23-.32.69-.51a3.19,3.19,0,0,1,1.13-.27,5.51,5.51,0,0,1,1.23.19,42,42,0,0,0,7.25.67,13.22,13.22,0,0,1-3.3-2.06,11.54,11.54,0,0,1-2.23-2.48,4.36,4.36,0,0,1-.78-1.6c0-.08,0-.12.11-.12s.18.09.34.28a18.72,18.72,0,0,0,7.3,5.6c-.29-1.35-.62-2.6-1-3.75a2.51,2.51,0,0,1-.1-.78,1.87,1.87,0,0,1,.38-1c.26-.37.44-.55.56-.55s.16.13.16.38a34.52,34.52,0,0,0,1,6.12,8.91,8.91,0,0,0,3-.33,11.13,11.13,0,0,1-.75-2.67c0-.11,0-.16.11-.16s.16.08.25.26a24,24,0,0,0,1.79,3c.54.72.95,1.11,1.24,1.18s.43.21.43.44a3.11,3.11,0,0,1-.48,1.21c-.32.58-.59.87-.82.87s-.37-.16-.45-.48a8.89,8.89,0,0,0-.54-1.63,12.67,12.67,0,0,1-.57-1.44,4.7,4.7,0,0,1-.34.73c-.11.17-.22.25-.35.25a3.58,3.58,0,0,1-.59-.08C524.72,191.86,524.14,191.78,523.24,191.69Zm-1.15,27.05a5.59,5.59,0,0,1-.7,1.09.87.87,0,0,1-.62.35,1.91,1.91,0,0,1-.81-.26,5.19,5.19,0,0,0-1.45-.4,11.86,11.86,0,0,0-2-.16c-1.56,0-2.58.26-3.08.77a3.51,3.51,0,0,0-.74,2.49,14.13,14.13,0,0,0,.18,2.25,4.06,4.06,0,0,0,.54,1.63,2.55,2.55,0,0,0,1.07.83,10.07,10.07,0,0,0,1.81.56c.74.17,1.1.31,1.1.43s-.26.19-.79.21a8.78,8.78,0,0,0-2.53.3,3.08,3.08,0,0,1-.9.25c-.5,0-1-.55-1.39-1.64a9.5,9.5,0,0,1-.65-3.5,11.21,11.21,0,0,1,.37-3.12,2.93,2.93,0,0,1,1.36-1.82,7.24,7.24,0,0,1,3.33-.55l4.2.14q1.26,0,1.56-.45c-.24-1.09-.42-2-.55-2.67-.29.43-.51.75-.68.95s-.32.3-.46.3a1.08,1.08,0,0,1-.53-.23,10.75,10.75,0,0,0-1.57-.75,11,11,0,0,1-3.31-2.39,11.22,11.22,0,0,1-2.1-2.86,5.68,5.68,0,0,1-.61-1.67c0-.09,0-.14.07-.14s.3.19.55.58a17.55,17.55,0,0,0,2.56,3,11.89,11.89,0,0,0,3,2.11,6,6,0,0,0,2.37.72.91.91,0,0,0,.6-.17,12.88,12.88,0,0,1-.41-2.35,3.26,3.26,0,0,1,.15-1.06c.09-.29.21-.43.33-.43s.23.3.29.91.35,2,.84,4.09.92,3.7,1.27,4.73a7.77,7.77,0,0,1,.53,2.34,2.34,2.34,0,0,1-.26,1.21q-.27.42-.48.42-.4,0-.69-1.83C522.66,221.72,522.41,220.32,522.09,218.74Zm-4.92-18.05c.08,0,.12.05.12.14a5.55,5.55,0,0,1-.61,1.49,5.81,5.81,0,0,1-1.55,1.94,3.09,3.09,0,0,1-2,.75c-.67,0-1-.15-1-.46s.23-.58.7-1,1.26-1,2.36-1.74a7.28,7.28,0,0,1,1.93-1.14Zm-1-2.43a.41.41,0,0,1-.34-.24,7,7,0,0,0-.65-.84,14.65,14.65,0,0,1-2.37-3.18,7.49,7.49,0,0,1-.6-1.39c0-.1,0-.15.11-.15s.16.07.27.21a21.5,21.5,0,0,0,2.52,2.83c.87.8,1.5,1.2,1.9,1.2.24,0,.36.1.36.29a1.37,1.37,0,0,1-.48.78C516.61,198.1,516.37,198.26,516.21,198.26Zm5.37-31.12a3.34,3.34,0,0,0,1.08-.24,1.23,1.23,0,0,1,.51-.17.25.25,0,0,1,.29.29,2.34,2.34,0,0,1-.33.91c-.21.41-.4.62-.55.62a2.58,2.58,0,0,1-.68-.13,8.11,8.11,0,0,0-1.85-.13,4.22,4.22,0,0,1-1.8-.24c-.27-.16-.41-.34-.41-.53s.37-.3,1.1-.31a19,19,0,0,0-1.63-2.23.86.86,0,0,1-.19-.56,1.12,1.12,0,0,1,.38-.7,1.05,1.05,0,0,1,.69-.4c.2,0,.3.31.3.94a14,14,0,0,0,1.1,3q1,0,1.35,0a5.8,5.8,0,0,1-.48-1.84,1.48,1.48,0,0,1,.2-.77q.21-.36.42-.36c.19,0,.29.24.29.72a3.53,3.53,0,0,0,.08.55,1.91,1.91,0,0,0,.15.48,1.09,1.09,0,0,1,.06.47A3.29,3.29,0,0,1,521.58,167.14Zm2.69,29.28a10.21,10.21,0,0,0,.31,2.18,19.08,19.08,0,0,0,.62,2.24,1.89,1.89,0,0,1-.33,2.36c-.4.68-.69,1-.86,1s-.19-.09-.34-.27a3.79,3.79,0,0,0-1.57-1.14,4.65,4.65,0,0,0-1.52-.44.61.61,0,0,0-.52.24.49.49,0,0,1-.35.24.24.24,0,0,1-.23-.12,16.18,16.18,0,0,1-.22-1.81c-.12-1.13-.22-2.28-.32-3.45-.44-.08-.67-.22-.67-.42s.34-.35,1-.47c2.4-.35,3.94-.79,4.63-1.32a.79.79,0,0,1,.43-.19c.13,0,.2.11.2.34A3.09,3.09,0,0,1,524.27,196.42ZM521.34,174a4.05,4.05,0,0,0-1.52.09c-.3.1-.44.42-.44,1a3.54,3.54,0,0,0,.26,1.43,1.46,1.46,0,0,0,.94.82c.44.15.67.27.67.36s-.18.18-.53.24a2.58,2.58,0,0,0-.8.26,1.05,1.05,0,0,1-.4.15c-.29,0-.56-.27-.82-.81a4.63,4.63,0,0,1-.38-1.94,4.27,4.27,0,0,1,.23-1.62,1.42,1.42,0,0,1,.72-.73,3.28,3.28,0,0,1,1.38-.21h1.08a6.31,6.31,0,0,0,1.87-.16,1.79,1.79,0,0,1,.59-.15c.13,0,.2.06.2.19a2.39,2.39,0,0,1-.31.8c-.21.41-.43.61-.66.61a2.84,2.84,0,0,1-.77-.12A4.4,4.4,0,0,0,522,174a12.17,12.17,0,0,0,.81,1.18,4.29,4.29,0,0,0,.7.74.56.56,0,0,1,.29.44,1.53,1.53,0,0,1-.37.74c-.25.33-.46.5-.64.5s-.29-.17-.36-.52A30,30,0,0,0,521.34,174Zm2.36,23c-2.6.33-4,.52-4.13.55q.21,1.32.45,2.37a5.92,5.92,0,0,0,.34,1.19.86.86,0,0,0,.38.25,8,8,0,0,0,1.55.28c.84.1,1.31.16,1.41.16.36,0,.55-.32.55-.94a11.92,11.92,0,0,0-.31-1.93,6.55,6.55,0,0,1-.24-1.93Zm4.75,23.9q0,1.08-.51,1.08c-.49,0-1-.85-1.45-2.56a16.58,16.58,0,0,1-.71-3.38,3.59,3.59,0,0,1,.18-1.28c.12-.31.23-.46.33-.46s.19.2.27.6.24.94.46,1.63a19.52,19.52,0,0,0,.68,1.86c.24.55.43,1,.56,1.41a3.69,3.69,0,0,1,.19,1.1Z"/><path d="M294.69,361.59a18.05,18.05,0,0,1-2.75,5.73l-1.46-.91a15.24,15.24,0,0,0,2.56-5.19Zm0,6.4-.35-1.61c.64.06,1.26.09,1.84.09s.66-.21.66-.61v-6.11h-6.09V358.1h13.8v1.65h-6v6.55c0,1.12-.59,1.69-1.77,1.69Zm8.44-13.92v1.63h-10.9v-1.63Zm1.66,12.43-1.52.69a36,36,0,0,0-2.75-5.66l1.5-.52A33.21,33.21,0,0,1,304.82,366.5Z"/><path d="M306.69,361.43l-.56-1.79a19.23,19.23,0,0,0,2.9-6.41l1.58.74a21.41,21.41,0,0,1-1.33,3.47v10.78h-1.66v-8C307.33,360.63,307,361,306.69,361.43Zm9.36-7.25v1.58h-2.73c-.07.63-.16,1.24-.28,1.81h2.8V359q-.73,6.6-4.81,9.19l-.84-1.5a8.25,8.25,0,0,0,2.84-3.24,16.3,16.3,0,0,0-1.6-1.33,13.15,13.15,0,0,1-1,1.4l-.85-1.64a12,12,0,0,0,2.13-6.13h-1v-1.58Zm-2.38,7.75a17.43,17.43,0,0,0,.65-2.84h-1.63a14.7,14.7,0,0,1-.59,1.7A14.24,14.24,0,0,1,313.67,361.93Zm4.35-7.08v9.88H316.5v-9.88Zm-.86,13.22-.39-1.6a12.58,12.58,0,0,0,1.57.11c.39,0,.58-.19.58-.54V353.43h1.66v13a1.46,1.46,0,0,1-1.66,1.63Z"/><path d="M326.58,356.87a1.26,1.26,0,0,1,0,1.78,1.27,1.27,0,0,1-.9.36,1.26,1.26,0,0,1-.89-2.14,1.15,1.15,0,0,1,.89-.37A1.2,1.2,0,0,1,326.58,356.87Zm0,5.86a1.22,1.22,0,0,1,.37.89,1.18,1.18,0,0,1-.37.88,1.28,1.28,0,0,1-.9.37,1.22,1.22,0,0,1-.89-.37,1.18,1.18,0,0,1-.36-.88,1.21,1.21,0,0,1,.36-.89,1.15,1.15,0,0,1,.89-.37A1.2,1.2,0,0,1,326.58,362.73Z"/><path d="M343,355.09a5.47,5.47,0,0,1,4.21,1.54,7,7,0,0,1,0,8.35,5.47,5.47,0,0,1-4.21,1.54H338.8V355.09Zm-2.31,9.83h2a4.31,4.31,0,0,0,3.12-1,4.42,4.42,0,0,0,1-3.12,4.32,4.32,0,0,0-1-3.14,4.26,4.26,0,0,0-3.12-1h-2Z"/><path d="M354.34,361.12a1.9,1.9,0,0,1,.69,1.55,1.63,1.63,0,0,1-1.26,1.66,2.28,2.28,0,0,1,1,.62,1.59,1.59,0,0,1,.38,1.11,2.23,2.23,0,0,1-.73,1.73,2.91,2.91,0,0,1-2,.69,2.84,2.84,0,0,1-1.91-.61,2.67,2.67,0,0,1-.89-2h1.27a1.52,1.52,0,0,0,.47,1.14,1.45,1.45,0,0,0,1.05.38,1.56,1.56,0,0,0,1.14-.41,1.21,1.21,0,0,0,.38-.91,1.17,1.17,0,0,0-.4-1,1.72,1.72,0,0,0-1.12-.3h-.53v-.94h.53a1.62,1.62,0,0,0,1-.29,1.08,1.08,0,0,0,.34-.85,1.13,1.13,0,0,0-.31-.85,1.52,1.52,0,0,0-1-.28,1.46,1.46,0,0,0-1,.33,1.48,1.48,0,0,0-.45,1h-1.22a2.45,2.45,0,0,1,.85-1.79,2.66,2.66,0,0,1,1.85-.63A2.94,2.94,0,0,1,354.34,361.12Z"/><path d="M359.43,361c-.1.39-.21.74-.32,1.09h4v6h-1.47v-.85h-2v.88h-1.47v-4a10.59,10.59,0,0,1-1.23,1.7l-.88-1.38a8.8,8.8,0,0,0,1.79-3.44h-1v-1.41h1.37c.08-.44.14-.92.2-1.41h-1.95v-1.47h2.08l.05-1.39H357v-1.41h5.76v2.8h.76v1.47h-.76V361Zm2.24,4.79v-2.2h-2v2.2Zm-1.94-6.2h1.47v-1.41h-1.26C359.87,358.65,359.81,359.13,359.73,359.57Zm.34-2.88h1.13V355.3h-1.07C360.11,355.78,360.1,356.24,360.07,356.69Zm3.73,1.15v-1.58h1.55a17.16,17.16,0,0,0-1.11-2.19l1.4-.69c.43.73.84,1.54,1.25,2.43l-.92.45h1.47a27.1,27.1,0,0,0,1.12-3l1.57.56a20.8,20.8,0,0,1-1,2.47h1.46v1.58h-2.48v1.81h2.13v1.56h-2.13V363H371v1.62h-2.83v3.52h-1.65v-3.52h-2.8V363h2.8v-1.82h-2.29v-1.56h2.29v-1.81Z"/><path d="M378.27,367.19h-1.6v-.8h-2.36v1.27H372.7V356h1.54a14.51,14.51,0,0,0,.63-2.64l1.68.23a14.81,14.81,0,0,1-.71,2.41h2.43Zm-1.6-6.85v-2.8h-2.36v2.8Zm0,4.51v-3h-2.36v3Zm9.61,1.49Q386,368,384,368c-.32,0-.89,0-1.73-.09l-.4-1.52c.71,0,1.33.08,1.86.08s.91-.32,1-.95.14-3.41.18-7.94H381a13,13,0,0,1-1.53,2.6l-1-1.33a13.68,13.68,0,0,0,2.14-5.56l1.65.21a20.88,20.88,0,0,1-.61,2.45h4.87Q386.52,364.37,386.28,366.34Zm-2.72-3-1.35.93a28.77,28.77,0,0,0-2.38-3.51l1.36-.85A27.67,27.67,0,0,1,383.56,363.29Z"/><path d="M391.43,361c-.1.39-.21.74-.32,1.09h4v6h-1.47v-.85h-2v.88h-1.47v-4a10.59,10.59,0,0,1-1.23,1.7l-.88-1.38a8.8,8.8,0,0,0,1.79-3.44h-1v-1.41h1.37c.08-.44.14-.92.2-1.41h-1.95v-1.47h2.08l.05-1.39H389v-1.41h5.76v2.8h.76v1.47h-.76V361Zm2.24,4.79v-2.2h-2v2.2Zm-1.94-6.2h1.47v-1.41h-1.26C391.87,358.65,391.81,359.13,391.73,359.57Zm.34-2.88h1.13V355.3h-1.07C392.11,355.78,392.1,356.24,392.07,356.69Zm3.73,1.15v-1.58h1.55a17.16,17.16,0,0,0-1.11-2.19l1.4-.69c.43.73.84,1.54,1.25,2.43l-.92.45h1.47a27.1,27.1,0,0,0,1.12-3l1.57.56a20.8,20.8,0,0,1-1,2.47h1.46v1.58h-2.48v1.81h2.13v1.56h-2.13V363H403v1.62h-2.83v3.52h-1.65v-3.52h-2.8V363h2.8v-1.82h-2.29v-1.56h2.29v-1.81Z"/><path d="M410.75,354.6v-1.19h1.7v1.19H418v1.53h-5.59v1h4.66v1.54h-4.66v1h6.15v1.52H413a10.52,10.52,0,0,0,1.35,2.22,8.17,8.17,0,0,0,2.29-1.84l1.15,1.12a9.57,9.57,0,0,1-2.48,1.77,10,10,0,0,0,3.47,2.12l-.91,1.48a11.7,11.7,0,0,1-6.39-6.87h-.34a10.47,10.47,0,0,1-2,2.05v2.85c1.07-.34,2.14-.72,3.2-1.14l.33,1.54a43.7,43.7,0,0,1-5.29,1.65l-.55-1.43c.45-.19.67-.46.67-.83v-1.52a21.38,21.38,0,0,1-2.49,1.23l-.9-1.45a12.76,12.76,0,0,0,5.2-3h-4.75v-1.52h6.14v-1H406.1v-1.54h4.65v-1h-5.58V354.6Z"/><g class="cls-4"><path class="cls-5" d="M.61,183.18A2,2,0,0,1,2,182.59a1.83,1.83,0,0,1,.77.16,2,2,0,0,1,.63.43,2,2,0,0,1,.45.65,1.94,1.94,0,0,1,.17.8,1.79,1.79,0,0,1-.17.75,2.57,2.57,0,0,1-.43.64,1.9,1.9,0,0,1-.63.46,1.81,1.81,0,0,1-.77.17,2,2,0,0,1-.8-.16,2,2,0,0,1-.65-.43,2.13,2.13,0,0,1-.44-.65,2,2,0,0,1,.44-2.23Z"/></g><g class="cls-4"><path class="cls-5" d="M672.61,183.18a2,2,0,0,1,1.43-.59,1.83,1.83,0,0,1,.77.16,2,2,0,0,1,.63.43,2,2,0,0,1,.45.65,1.94,1.94,0,0,1,.17.8,1.79,1.79,0,0,1-.17.75,2.57,2.57,0,0,1-.43.64,1.9,1.9,0,0,1-.63.46,1.81,1.81,0,0,1-.77.17,2,2,0,0,1-.8-.16,2,2,0,0,1-.65-.43,2.13,2.13,0,0,1-.44-.65,2,2,0,0,1,.44-2.23Z"/></g></g></g></svg>